<?xml version="1.0" encoding="utf-8" standalone="no"?>
<!DOCTYPE svg PUBLIC "-//W3C//DTD SVG 1.1//EN"
  "http://www.w3.org/Graphics/SVG/1.1/DTD/svg11.dtd">
<svg xmlns:xlink="http://www.w3.org/1999/xlink" width="488.963594pt" height="488.162187pt" viewBox="0 0 488.963594 488.162187" xmlns="http://www.w3.org/2000/svg" version="1.1">
 <metadata>
  <rdf:RDF xmlns:dc="http://purl.org/dc/elements/1.1/" xmlns:cc="http://creativecommons.org/ns#" xmlns:rdf="http://www.w3.org/1999/02/22-rdf-syntax-ns#">
   <cc:Work>
    <dc:type rdf:resource="http://purl.org/dc/dcmitype/StillImage"/>
    <dc:date>2026-06-17T18:37:22.818816</dc:date>
    <dc:format>image/svg+xml</dc:format>
    <dc:creator>
     <cc:Agent>
      <dc:title>Matplotlib v3.11.0, https://matplotlib.org/</dc:title>
     </cc:Agent>
    </dc:creator>
   </cc:Work>
  </rdf:RDF>
 </metadata>
 <defs>
  <style type="text/css">*{stroke-linejoin: round; stroke-linecap: butt}</style>
 </defs>
 <g id="figure_1">
  <g id="patch_1">
   <path d="M 0 488.162187 
L 488.963594 488.162187 
L 488.963594 0 
L 0 0 
z
" style="fill: #ffffff"/>
  </g>
  <g id="axes_1">
   <g id="patch_2">
    <path d="M 58.923594 441.961094 
L 481.763594 441.961094 
L 481.763594 32.837812 
L 58.923594 32.837812 
z
" style="fill: #ffffff"/>
   </g>
   <g id="matplotlib.axis_1">
    <g id="xtick_1">
     <g id="line2d_1">
      <path d="M 78.143594 441.961094 
L 78.143594 32.837812 
" clip-path="url(#p85db7338d5)" style="fill: none; stroke-dasharray: 0.8,1.32; stroke-dashoffset: 0; stroke: #d3d3d3; stroke-width: 0.8"/>
     </g>
     <g id="line2d_2">
      <defs>
       <path id="me2248fe9ca" d="M 0 0 
L 0 3.5 
" style="stroke: #000000; stroke-width: 0.8"/>
      </defs>
      <g>
       <use xlink:href="#me2248fe9ca" x="78.143594" y="441.961094" style="stroke: #000000; stroke-width: 0.8"/>
      </g>
     </g>
     <g id="text_1">
      <!-- 440 -->
      <g transform="translate(64.782344 459.597812) scale(0.14 -0.14)">
       <defs>
        <path id="DejaVuSerif-17" d="M 2234 1581 
L 2234 4063 
L 641 1581 
L 2234 1581 
z
M 3609 0 
L 1484 0 
L 1484 331 
L 2234 331 
L 2234 1247 
L 197 1247 
L 197 1588 
L 2241 4750 
L 2859 4750 
L 2859 1581 
L 3750 1581 
L 3750 1247 
L 2859 1247 
L 2859 331 
L 3609 331 
L 3609 0 
z
" transform="scale(0.015625)"/>
        <path id="DejaVuSerif-13" d="M 2034 219 
Q 2513 219 2750 744 
Q 2988 1269 2988 2328 
Q 2988 3391 2750 3916 
Q 2513 4441 2034 4441 
Q 1556 4441 1318 3916 
Q 1081 3391 1081 2328 
Q 1081 1269 1318 744 
Q 1556 219 2034 219 
z
M 2034 -91 
Q 1275 -91 848 546 
Q 422 1184 422 2328 
Q 422 3475 848 4112 
Q 1275 4750 2034 4750 
Q 2797 4750 3222 4112 
Q 3647 3475 3647 2328 
Q 3647 1184 3222 546 
Q 2797 -91 2034 -91 
z
" transform="scale(0.015625)"/>
       </defs>
       <use xlink:href="#DejaVuSerif-17"/>
       <use xlink:href="#DejaVuSerif-17" transform="translate(63.625 0)"/>
       <use xlink:href="#DejaVuSerif-13" transform="translate(127.25 0)"/>
      </g>
     </g>
    </g>
    <g id="xtick_2">
     <g id="line2d_3">
      <path d="M 133.057879 441.961094 
L 133.057879 32.837812 
" clip-path="url(#p85db7338d5)" style="fill: none; stroke-dasharray: 0.8,1.32; stroke-dashoffset: 0; stroke: #d3d3d3; stroke-width: 0.8"/>
     </g>
     <g id="line2d_4">
      <g>
       <use xlink:href="#me2248fe9ca" x="133.057879" y="441.961094" style="stroke: #000000; stroke-width: 0.8"/>
      </g>
     </g>
     <g id="text_2">
      <!-- 460 -->
      <g transform="translate(119.696629 459.597812) scale(0.14 -0.14)">
       <defs>
        <path id="DejaVuSerif-19" d="M 2094 219 
Q 2534 219 2771 542 
Q 3009 866 3009 1472 
Q 3009 2078 2771 2401 
Q 2534 2725 2094 2725 
Q 1647 2725 1412 2412 
Q 1178 2100 1178 1509 
Q 1178 888 1415 553 
Q 1653 219 2094 219 
z
M 1075 2569 
Q 1288 2803 1556 2918 
Q 1825 3034 2163 3034 
Q 2859 3034 3264 2615 
Q 3669 2197 3669 1472 
Q 3669 763 3233 336 
Q 2797 -91 2069 -91 
Q 1278 -91 853 498 
Q 428 1088 428 2181 
Q 428 3406 931 4078 
Q 1434 4750 2350 4750 
Q 2597 4750 2869 4703 
Q 3141 4656 3425 4563 
L 3425 3794 
L 3072 3794 
Q 3034 4109 2831 4275 
Q 2628 4441 2284 4441 
Q 1678 4441 1381 3981 
Q 1084 3522 1075 2569 
z
" transform="scale(0.015625)"/>
       </defs>
       <use xlink:href="#DejaVuSerif-17"/>
       <use xlink:href="#DejaVuSerif-19" transform="translate(63.625 0)"/>
       <use xlink:href="#DejaVuSerif-13" transform="translate(127.25 0)"/>
      </g>
     </g>
    </g>
    <g id="xtick_3">
     <g id="line2d_5">
      <path d="M 187.972165 441.961094 
L 187.972165 32.837812 
" clip-path="url(#p85db7338d5)" style="fill: none; stroke-dasharray: 0.8,1.32; stroke-dashoffset: 0; stroke: #d3d3d3; stroke-width: 0.8"/>
     </g>
     <g id="line2d_6">
      <g>
       <use xlink:href="#me2248fe9ca" x="187.972165" y="441.961094" style="stroke: #000000; stroke-width: 0.8"/>
      </g>
     </g>
     <g id="text_3">
      <!-- 480 -->
      <g transform="translate(174.610915 459.597812) scale(0.14 -0.14)">
       <defs>
        <path id="DejaVuSerif-1b" d="M 2981 1275 
Q 2981 1775 2732 2051 
Q 2484 2328 2034 2328 
Q 1584 2328 1336 2051 
Q 1088 1775 1088 1275 
Q 1088 772 1336 495 
Q 1584 219 2034 219 
Q 2484 219 2732 495 
Q 2981 772 2981 1275 
z
M 2853 3541 
Q 2853 3966 2637 4203 
Q 2422 4441 2034 4441 
Q 1650 4441 1433 4203 
Q 1216 3966 1216 3541 
Q 1216 3113 1433 2875 
Q 1650 2638 2034 2638 
Q 2422 2638 2637 2875 
Q 2853 3113 2853 3541 
z
M 2516 2484 
Q 3047 2413 3344 2092 
Q 3641 1772 3641 1275 
Q 3641 619 3225 264 
Q 2809 -91 2034 -91 
Q 1263 -91 845 264 
Q 428 619 428 1275 
Q 428 1772 725 2092 
Q 1022 2413 1556 2484 
Q 1084 2569 832 2842 
Q 581 3116 581 3541 
Q 581 4103 968 4426 
Q 1356 4750 2034 4750 
Q 2713 4750 3100 4426 
Q 3488 4103 3488 3541 
Q 3488 3116 3236 2842 
Q 2984 2569 2516 2484 
z
" transform="scale(0.015625)"/>
       </defs>
       <use xlink:href="#DejaVuSerif-17"/>
       <use xlink:href="#DejaVuSerif-1b" transform="translate(63.625 0)"/>
       <use xlink:href="#DejaVuSerif-13" transform="translate(127.25 0)"/>
      </g>
     </g>
    </g>
    <g id="xtick_4">
     <g id="line2d_7">
      <path d="M 242.886451 441.961094 
L 242.886451 32.837812 
" clip-path="url(#p85db7338d5)" style="fill: none; stroke-dasharray: 0.8,1.32; stroke-dashoffset: 0; stroke: #d3d3d3; stroke-width: 0.8"/>
     </g>
     <g id="line2d_8">
      <g>
       <use xlink:href="#me2248fe9ca" x="242.886451" y="441.961094" style="stroke: #000000; stroke-width: 0.8"/>
      </g>
     </g>
     <g id="text_4">
      <!-- 500 -->
      <g transform="translate(229.525201 459.597812) scale(0.14 -0.14)">
       <defs>
        <path id="DejaVuSerif-18" d="M 3219 4666 
L 3219 4153 
L 1081 4153 
L 1081 2816 
Q 1244 2928 1461 2984 
Q 1678 3041 1947 3041 
Q 2703 3041 3140 2622 
Q 3578 2203 3578 1478 
Q 3578 738 3136 323 
Q 2694 -91 1894 -91 
Q 1572 -91 1234 -12 
Q 897 66 544 225 
L 544 1131 
L 897 1131 
Q 925 688 1179 453 
Q 1434 219 1894 219 
Q 2388 219 2653 544 
Q 2919 869 2919 1478 
Q 2919 2084 2655 2407 
Q 2391 2731 1894 2731 
Q 1613 2731 1398 2631 
Q 1184 2531 1019 2322 
L 750 2322 
L 750 4666 
L 3219 4666 
z
" transform="scale(0.015625)"/>
       </defs>
       <use xlink:href="#DejaVuSerif-18"/>
       <use xlink:href="#DejaVuSerif-13" transform="translate(63.625 0)"/>
       <use xlink:href="#DejaVuSerif-13" transform="translate(127.25 0)"/>
      </g>
     </g>
    </g>
    <g id="xtick_5">
     <g id="line2d_9">
      <path d="M 297.800737 441.961094 
L 297.800737 32.837812 
" clip-path="url(#p85db7338d5)" style="fill: none; stroke-dasharray: 0.8,1.32; stroke-dashoffset: 0; stroke: #d3d3d3; stroke-width: 0.8"/>
     </g>
     <g id="line2d_10">
      <g>
       <use xlink:href="#me2248fe9ca" x="297.800737" y="441.961094" style="stroke: #000000; stroke-width: 0.8"/>
      </g>
     </g>
     <g id="text_5">
      <!-- 520 -->
      <g transform="translate(284.439487 459.597812) scale(0.14 -0.14)">
       <defs>
        <path id="DejaVuSerif-15" d="M 819 3553 
L 469 3553 
L 469 4384 
Q 803 4563 1142 4656 
Q 1481 4750 1806 4750 
Q 2534 4750 2956 4397 
Q 3378 4044 3378 3438 
Q 3378 2753 2422 1800 
Q 2347 1728 2309 1691 
L 1131 513 
L 3078 513 
L 3078 1088 
L 3444 1088 
L 3444 0 
L 434 0 
L 434 341 
L 1850 1753 
Q 2319 2222 2519 2614 
Q 2719 3006 2719 3438 
Q 2719 3909 2473 4175 
Q 2228 4441 1797 4441 
Q 1350 4441 1106 4219 
Q 863 3997 819 3553 
z
" transform="scale(0.015625)"/>
       </defs>
       <use xlink:href="#DejaVuSerif-18"/>
       <use xlink:href="#DejaVuSerif-15" transform="translate(63.625 0)"/>
       <use xlink:href="#DejaVuSerif-13" transform="translate(127.25 0)"/>
      </g>
     </g>
    </g>
    <g id="xtick_6">
     <g id="line2d_11">
      <path d="M 352.715022 441.961094 
L 352.715022 32.837812 
" clip-path="url(#p85db7338d5)" style="fill: none; stroke-dasharray: 0.8,1.32; stroke-dashoffset: 0; stroke: #d3d3d3; stroke-width: 0.8"/>
     </g>
     <g id="line2d_12">
      <g>
       <use xlink:href="#me2248fe9ca" x="352.715022" y="441.961094" style="stroke: #000000; stroke-width: 0.8"/>
      </g>
     </g>
     <g id="text_6">
      <!-- 540 -->
      <g transform="translate(339.353772 459.597812) scale(0.14 -0.14)">
       <use xlink:href="#DejaVuSerif-18"/>
       <use xlink:href="#DejaVuSerif-17" transform="translate(63.625 0)"/>
       <use xlink:href="#DejaVuSerif-13" transform="translate(127.25 0)"/>
      </g>
     </g>
    </g>
    <g id="xtick_7">
     <g id="line2d_13">
      <path d="M 407.629308 441.961094 
L 407.629308 32.837812 
" clip-path="url(#p85db7338d5)" style="fill: none; stroke-dasharray: 0.8,1.32; stroke-dashoffset: 0; stroke: #d3d3d3; stroke-width: 0.8"/>
     </g>
     <g id="line2d_14">
      <g>
       <use xlink:href="#me2248fe9ca" x="407.629308" y="441.961094" style="stroke: #000000; stroke-width: 0.8"/>
      </g>
     </g>
     <g id="text_7">
      <!-- 560 -->
      <g transform="translate(394.268058 459.597812) scale(0.14 -0.14)">
       <use xlink:href="#DejaVuSerif-18"/>
       <use xlink:href="#DejaVuSerif-19" transform="translate(63.625 0)"/>
       <use xlink:href="#DejaVuSerif-13" transform="translate(127.25 0)"/>
      </g>
     </g>
    </g>
    <g id="xtick_8">
     <g id="line2d_15">
      <path d="M 462.543594 441.961094 
L 462.543594 32.837812 
" clip-path="url(#p85db7338d5)" style="fill: none; stroke-dasharray: 0.8,1.32; stroke-dashoffset: 0; stroke: #d3d3d3; stroke-width: 0.8"/>
     </g>
     <g id="line2d_16">
      <g>
       <use xlink:href="#me2248fe9ca" x="462.543594" y="441.961094" style="stroke: #000000; stroke-width: 0.8"/>
      </g>
     </g>
     <g id="text_8">
      <!-- 580 -->
      <g transform="translate(449.182344 459.597812) scale(0.14 -0.14)">
       <use xlink:href="#DejaVuSerif-18"/>
       <use xlink:href="#DejaVuSerif-1b" transform="translate(63.625 0)"/>
       <use xlink:href="#DejaVuSerif-13" transform="translate(127.25 0)"/>
      </g>
     </g>
    </g>
    <g id="text_9">
     <!-- Position X -->
     <g transform="translate(230.479687 477.598906) scale(0.14 -0.14)">
      <defs>
       <path id="DejaVuSerif-Bold-33" d="M 300 0 
L 300 378 
L 897 378 
L 897 4288 
L 300 4288 
L 300 4666 
L 2956 4666 
Q 3734 4666 4193 4295 
Q 4653 3925 4653 3303 
Q 4653 2678 4192 2304 
Q 3731 1931 2956 1931 
L 2100 1931 
L 2100 378 
L 2853 378 
L 2853 0 
L 300 0 
z
M 2100 2309 
L 2450 2309 
Q 2856 2309 3098 2579 
Q 3341 2850 3341 3303 
Q 3341 3753 3100 4020 
Q 2859 4288 2450 4288 
L 2100 4288 
L 2100 2309 
z
" transform="scale(0.015625)"/>
       <path id="DejaVuSerif-Bold-52" d="M 2138 263 
Q 2488 263 2630 563 
Q 2772 863 2772 1663 
Q 2772 2463 2631 2761 
Q 2491 3059 2138 3059 
Q 1784 3059 1640 2757 
Q 1497 2456 1497 1663 
Q 1497 869 1640 566 
Q 1784 263 2138 263 
z
M 2138 -91 
Q 1259 -91 761 376 
Q 263 844 263 1663 
Q 263 2484 761 2948 
Q 1259 3413 2138 3413 
Q 3019 3413 3516 2948 
Q 4013 2484 4013 1663 
Q 4013 844 3514 376 
Q 3016 -91 2138 -91 
z
" transform="scale(0.015625)"/>
       <path id="DejaVuSerif-Bold-56" d="M 300 97 
L 300 1025 
L 653 1025 
Q 697 653 931 458 
Q 1166 263 1569 263 
Q 1906 263 2086 380 
Q 2266 497 2266 716 
Q 2266 916 2152 1025 
Q 2038 1134 1709 1216 
L 1253 1331 
Q 738 1459 506 1698 
Q 275 1938 275 2344 
Q 275 2884 650 3148 
Q 1025 3413 1806 3413 
Q 2100 3413 2433 3364 
Q 2766 3316 3169 3213 
L 3169 2375 
L 2816 2375 
Q 2788 2716 2573 2887 
Q 2359 3059 1959 3059 
Q 1622 3059 1448 2951 
Q 1275 2844 1275 2638 
Q 1275 2469 1375 2372 
Q 1475 2275 1734 2209 
L 2188 2094 
Q 2841 1928 3091 1684 
Q 3341 1441 3341 1006 
Q 3341 444 2939 176 
Q 2538 -91 1691 -91 
Q 1381 -91 1034 -44 
Q 688 3 300 97 
z
" transform="scale(0.015625)"/>
       <path id="DejaVuSerif-Bold-4c" d="M 588 4263 
Q 588 4516 763 4689 
Q 938 4863 1191 4863 
Q 1438 4863 1611 4689 
Q 1784 4516 1784 4263 
Q 1784 4016 1611 3842 
Q 1438 3669 1191 3669 
Q 938 3669 763 3841 
Q 588 4013 588 4263 
z
M 1797 378 
L 2272 378 
L 2272 0 
L 219 0 
L 219 378 
L 691 378 
L 691 2944 
L 219 2944 
L 219 3322 
L 1797 3322 
L 1797 378 
z
" transform="scale(0.015625)"/>
       <path id="DejaVuSerif-Bold-57" d="M 634 2944 
L 153 2944 
L 153 3322 
L 634 3322 
L 634 4353 
L 1741 4353 
L 1741 3322 
L 2663 3322 
L 2663 2944 
L 1741 2944 
L 1741 909 
Q 1741 475 1809 369 
Q 1878 263 2059 263 
Q 2259 263 2356 397 
Q 2453 531 2459 813 
L 2925 813 
Q 2897 313 2651 111 
Q 2406 -91 1806 -91 
Q 1122 -91 878 123 
Q 634 338 634 909 
L 634 2944 
z
" transform="scale(0.015625)"/>
       <path id="DejaVuSerif-Bold-51" d="M 219 0 
L 219 378 
L 691 378 
L 691 2944 
L 219 2944 
L 219 3322 
L 1797 3322 
L 1797 2853 
Q 1997 3150 2253 3281 
Q 2509 3413 2900 3413 
Q 3459 3413 3745 3083 
Q 4031 2753 4031 2113 
L 4031 378 
L 4506 378 
L 4506 0 
L 2522 0 
L 2522 378 
L 2925 378 
L 2925 2144 
Q 2925 2566 2817 2730 
Q 2709 2894 2444 2894 
Q 2109 2894 1953 2648 
Q 1797 2403 1797 1869 
L 1797 378 
L 2203 378 
L 2203 0 
L 219 0 
z
" transform="scale(0.015625)"/>
       <path id="DejaVuSerif-Bold-3" transform="scale(0.015625)"/>
       <path id="DejaVuSerif-Bold-3b" d="M 2169 1797 
L 1197 378 
L 1772 378 
L 1772 0 
L 116 0 
L 116 378 
L 691 378 
L 1919 2163 
L 459 4288 
L 31 4288 
L 31 4666 
L 2350 4666 
L 2350 4288 
L 1838 4288 
L 2741 2975 
L 3634 4288 
L 3091 4288 
L 3091 4666 
L 4716 4666 
L 4716 4288 
L 4141 4288 
L 2988 2613 
L 4519 378 
L 4959 378 
L 4959 0 
L 2631 0 
L 2631 378 
L 3150 378 
L 2169 1797 
z
" transform="scale(0.015625)"/>
      </defs>
      <use xlink:href="#DejaVuSerif-Bold-33"/>
      <use xlink:href="#DejaVuSerif-Bold-52" transform="translate(72.515625 0)"/>
      <use xlink:href="#DejaVuSerif-Bold-56" transform="translate(139.21875 0)"/>
      <use xlink:href="#DejaVuSerif-Bold-4c" transform="translate(195.515625 0)"/>
      <use xlink:href="#DejaVuSerif-Bold-57" transform="translate(233.5 0)"/>
      <use xlink:href="#DejaVuSerif-Bold-4c" transform="translate(279.6875 0)"/>
      <use xlink:href="#DejaVuSerif-Bold-52" transform="translate(317.671875 0)"/>
      <use xlink:href="#DejaVuSerif-Bold-51" transform="translate(384.375 0)"/>
      <use xlink:href="#DejaVuSerif-Bold-3" transform="translate(457.078125 0)"/>
      <use xlink:href="#DejaVuSerif-Bold-3b" transform="translate(491.890625 0)"/>
     </g>
    </g>
   </g>
   <g id="matplotlib.axis_2">
    <g id="ytick_1">
     <g id="line2d_17">
      <path d="M 58.923594 429.599453 
L 481.763594 429.599453 
" clip-path="url(#p85db7338d5)" style="fill: none; stroke-dasharray: 0.8,1.32; stroke-dashoffset: 0; stroke: #d3d3d3; stroke-width: 0.8"/>
     </g>
     <g id="line2d_18">
      <defs>
       <path id="mad8f69917c" d="M 0 0 
L -3.5 0 
" style="stroke: #000000; stroke-width: 0.8"/>
      </defs>
      <g>
       <use xlink:href="#mad8f69917c" x="58.923594" y="429.599453" style="stroke: #000000; stroke-width: 0.8"/>
      </g>
     </g>
     <g id="text_10">
      <!-- 440 -->
      <g transform="translate(25.201094 434.917812) scale(0.14 -0.14)">
       <use xlink:href="#DejaVuSerif-17"/>
       <use xlink:href="#DejaVuSerif-17" transform="translate(63.625 0)"/>
       <use xlink:href="#DejaVuSerif-13" transform="translate(127.25 0)"/>
      </g>
     </g>
    </g>
    <g id="ytick_2">
     <g id="line2d_19">
      <path d="M 58.923594 374.685167 
L 481.763594 374.685167 
" clip-path="url(#p85db7338d5)" style="fill: none; stroke-dasharray: 0.8,1.32; stroke-dashoffset: 0; stroke: #d3d3d3; stroke-width: 0.8"/>
     </g>
     <g id="line2d_20">
      <g>
       <use xlink:href="#mad8f69917c" x="58.923594" y="374.685167" style="stroke: #000000; stroke-width: 0.8"/>
      </g>
     </g>
     <g id="text_11">
      <!-- 460 -->
      <g transform="translate(25.201094 380.003527) scale(0.14 -0.14)">
       <use xlink:href="#DejaVuSerif-17"/>
       <use xlink:href="#DejaVuSerif-19" transform="translate(63.625 0)"/>
       <use xlink:href="#DejaVuSerif-13" transform="translate(127.25 0)"/>
      </g>
     </g>
    </g>
    <g id="ytick_3">
     <g id="line2d_21">
      <path d="M 58.923594 319.770882 
L 481.763594 319.770882 
" clip-path="url(#p85db7338d5)" style="fill: none; stroke-dasharray: 0.8,1.32; stroke-dashoffset: 0; stroke: #d3d3d3; stroke-width: 0.8"/>
     </g>
     <g id="line2d_22">
      <g>
       <use xlink:href="#mad8f69917c" x="58.923594" y="319.770882" style="stroke: #000000; stroke-width: 0.8"/>
      </g>
     </g>
     <g id="text_12">
      <!-- 480 -->
      <g transform="translate(25.201094 325.089241) scale(0.14 -0.14)">
       <use xlink:href="#DejaVuSerif-17"/>
       <use xlink:href="#DejaVuSerif-1b" transform="translate(63.625 0)"/>
       <use xlink:href="#DejaVuSerif-13" transform="translate(127.25 0)"/>
      </g>
     </g>
    </g>
    <g id="ytick_4">
     <g id="line2d_23">
      <path d="M 58.923594 264.856596 
L 481.763594 264.856596 
" clip-path="url(#p85db7338d5)" style="fill: none; stroke-dasharray: 0.8,1.32; stroke-dashoffset: 0; stroke: #d3d3d3; stroke-width: 0.8"/>
     </g>
     <g id="line2d_24">
      <g>
       <use xlink:href="#mad8f69917c" x="58.923594" y="264.856596" style="stroke: #000000; stroke-width: 0.8"/>
      </g>
     </g>
     <g id="text_13">
      <!-- 500 -->
      <g transform="translate(25.201094 270.174955) scale(0.14 -0.14)">
       <use xlink:href="#DejaVuSerif-18"/>
       <use xlink:href="#DejaVuSerif-13" transform="translate(63.625 0)"/>
       <use xlink:href="#DejaVuSerif-13" transform="translate(127.25 0)"/>
      </g>
     </g>
    </g>
    <g id="ytick_5">
     <g id="line2d_25">
      <path d="M 58.923594 209.94231 
L 481.763594 209.94231 
" clip-path="url(#p85db7338d5)" style="fill: none; stroke-dasharray: 0.8,1.32; stroke-dashoffset: 0; stroke: #d3d3d3; stroke-width: 0.8"/>
     </g>
     <g id="line2d_26">
      <g>
       <use xlink:href="#mad8f69917c" x="58.923594" y="209.94231" style="stroke: #000000; stroke-width: 0.8"/>
      </g>
     </g>
     <g id="text_14">
      <!-- 520 -->
      <g transform="translate(25.201094 215.26067) scale(0.14 -0.14)">
       <use xlink:href="#DejaVuSerif-18"/>
       <use xlink:href="#DejaVuSerif-15" transform="translate(63.625 0)"/>
       <use xlink:href="#DejaVuSerif-13" transform="translate(127.25 0)"/>
      </g>
     </g>
    </g>
    <g id="ytick_6">
     <g id="line2d_27">
      <path d="M 58.923594 155.028025 
L 481.763594 155.028025 
" clip-path="url(#p85db7338d5)" style="fill: none; stroke-dasharray: 0.8,1.32; stroke-dashoffset: 0; stroke: #d3d3d3; stroke-width: 0.8"/>
     </g>
     <g id="line2d_28">
      <g>
       <use xlink:href="#mad8f69917c" x="58.923594" y="155.028025" style="stroke: #000000; stroke-width: 0.8"/>
      </g>
     </g>
     <g id="text_15">
      <!-- 540 -->
      <g transform="translate(25.201094 160.346384) scale(0.14 -0.14)">
       <use xlink:href="#DejaVuSerif-18"/>
       <use xlink:href="#DejaVuSerif-17" transform="translate(63.625 0)"/>
       <use xlink:href="#DejaVuSerif-13" transform="translate(127.25 0)"/>
      </g>
     </g>
    </g>
    <g id="ytick_7">
     <g id="line2d_29">
      <path d="M 58.923594 100.113739 
L 481.763594 100.113739 
" clip-path="url(#p85db7338d5)" style="fill: none; stroke-dasharray: 0.8,1.32; stroke-dashoffset: 0; stroke: #d3d3d3; stroke-width: 0.8"/>
     </g>
     <g id="line2d_30">
      <g>
       <use xlink:href="#mad8f69917c" x="58.923594" y="100.113739" style="stroke: #000000; stroke-width: 0.8"/>
      </g>
     </g>
     <g id="text_16">
      <!-- 560 -->
      <g transform="translate(25.201094 105.432098) scale(0.14 -0.14)">
       <use xlink:href="#DejaVuSerif-18"/>
       <use xlink:href="#DejaVuSerif-19" transform="translate(63.625 0)"/>
       <use xlink:href="#DejaVuSerif-13" transform="translate(127.25 0)"/>
      </g>
     </g>
    </g>
    <g id="ytick_8">
     <g id="line2d_31">
      <path d="M 58.923594 45.199453 
L 481.763594 45.199453 
" clip-path="url(#p85db7338d5)" style="fill: none; stroke-dasharray: 0.8,1.32; stroke-dashoffset: 0; stroke: #d3d3d3; stroke-width: 0.8"/>
     </g>
     <g id="line2d_32">
      <g>
       <use xlink:href="#mad8f69917c" x="58.923594" y="45.199453" style="stroke: #000000; stroke-width: 0.8"/>
      </g>
     </g>
     <g id="text_17">
      <!-- 580 -->
      <g transform="translate(25.201094 50.517813) scale(0.14 -0.14)">
       <use xlink:href="#DejaVuSerif-18"/>
       <use xlink:href="#DejaVuSerif-1b" transform="translate(63.625 0)"/>
       <use xlink:href="#DejaVuSerif-13" transform="translate(127.25 0)"/>
      </g>
     </g>
    </g>
    <g id="text_18">
     <!-- Position Y -->
     <g transform="translate(17.837813 276.829141) rotate(-90) scale(0.14 -0.14)">
      <defs>
       <path id="DejaVuSerif-Bold-3c" d="M 1100 0 
L 1100 378 
L 1728 378 
L 1728 1931 
L 341 4288 
L -56 4288 
L -56 4666 
L 2181 4666 
L 2181 4288 
L 1663 4288 
L 2713 2509 
L 3756 4288 
L 3291 4288 
L 3291 4666 
L 4628 4666 
L 4628 4288 
L 4231 4288 
L 2938 2094 
L 2938 378 
L 3566 378 
L 3566 0 
L 1100 0 
z
" transform="scale(0.015625)"/>
      </defs>
      <use xlink:href="#DejaVuSerif-Bold-33"/>
      <use xlink:href="#DejaVuSerif-Bold-52" transform="translate(72.515625 0)"/>
      <use xlink:href="#DejaVuSerif-Bold-56" transform="translate(139.21875 0)"/>
      <use xlink:href="#DejaVuSerif-Bold-4c" transform="translate(195.515625 0)"/>
      <use xlink:href="#DejaVuSerif-Bold-57" transform="translate(233.5 0)"/>
      <use xlink:href="#DejaVuSerif-Bold-4c" transform="translate(279.6875 0)"/>
      <use xlink:href="#DejaVuSerif-Bold-52" transform="translate(317.671875 0)"/>
      <use xlink:href="#DejaVuSerif-Bold-51" transform="translate(384.375 0)"/>
      <use xlink:href="#DejaVuSerif-Bold-3" transform="translate(457.078125 0)"/>
      <use xlink:href="#DejaVuSerif-Bold-3c" transform="translate(491.890625 0)"/>
     </g>
    </g>
   </g>
   <g id="line2d_33">
    <path d="M 78.143594 429.599453 
L 462.543594 45.199453 
" clip-path="url(#p85db7338d5)" style="fill: none; stroke-dasharray: 7.4,3.2; stroke-dashoffset: 0; stroke: #888888; stroke-width: 2"/>
   </g>
   <g id="line2d_34">
    <path d="M 187.972165 177.021196 
L 187.977876 178.395426 
L 188.017909 179.769656 
L 188.09056 181.143886 
L 188.197863 182.510703 
L 188.339185 183.876421 
L 188.514636 185.238432 
L 188.723612 186.595859 
L 188.966196 187.947491 
L 189.243705 189.292342 
L 189.553587 190.62978 
L 189.899931 191.959529 
L 190.276369 193.279943 
L 190.691328 194.587727 
L 191.121664 195.892655 
L 191.570891 197.191488 
L 192.045158 198.47931 
L 192.561572 199.752415 
L 193.102615 201.014346 
L 193.687479 202.257605 
L 194.293733 203.489333 
L 194.940513 204.700193 
L 195.613296 205.8965 
L 196.320674 207.073039 
L 197.051583 208.236123 
L 197.807588 209.382185 
L 198.608129 210.49818 
L 199.426599 211.600557 
L 200.262257 212.690496 
L 201.118453 213.763411 
L 201.998647 214.817326 
L 202.895671 215.858391 
L 203.806974 216.885398 
L 204.750951 217.883328 
L 205.710962 218.864783 
L 206.688491 219.828996 
L 207.699573 220.758091 
L 208.72323 221.672935 
L 209.765174 222.567105 
L 210.831527 223.431071 
L 211.910016 224.279716 
L 213.002838 225.11046 
L 214.109251 225.924289 
L 215.238261 226.705171 
L 216.378419 227.471884 
L 217.534008 228.213666 
L 218.71785 228.910254 
L 219.91251 229.587347 
L 221.117989 230.244588 
L 222.334725 230.882226 
L 223.569253 231.483702 
L 224.820612 232.049429 
L 226.078176 232.601153 
L 227.347081 233.126106 
L 228.625952 233.626704 
L 229.921325 234.083866 
L 231.224716 234.516316 
L 232.539419 234.910902 
L 233.861013 235.285116 
L 235.194222 235.615837 
L 236.532978 235.921435 
L 237.88052 236.184475 
L 239.233608 236.421265 
L 240.593313 236.615909 
L 241.956203 236.784743 
L 243.324008 236.912034 
L 244.694037 237.012033 
L 246.066537 237.071148 
L 247.440767 237.103328 
L 248.814942 237.093937 
L 250.189145 237.058243 
L 251.560162 236.981171 
L 252.930164 236.877685 
L 254.296404 236.732958 
L 255.659239 236.561873 
L 257.015897 236.349492 
L 258.368298 236.11023 
L 259.712929 235.829728 
L 261.052014 235.523169 
L 262.380885 235.176193 
L 263.702617 234.800799 
L 265.015261 234.396575 
L 266.32406 233.978787 
L 267.620257 233.524289 
L 268.904702 233.036513 
L 270.175995 232.516694 
L 271.431803 231.959232 
L 272.680059 231.386998 
L 273.919942 230.794747 
L 275.148594 230.180064 
L 276.353523 229.520763 
L 277.547085 228.842435 
L 278.731888 228.146396 
L 279.903896 227.430863 
L 281.052154 226.678702 
L 282.172131 225.885575 
L 283.281674 225.076687 
L 284.358818 224.224692 
L 285.418114 223.349441 
L 286.465797 222.461257 
L 287.490744 221.547346 
L 288.50059 220.616 
L 289.4955 219.669442 
L 290.473414 218.704324 
L 291.433013 217.720919 
L 292.375754 216.722962 
L 293.302158 215.707569 
L 294.209232 214.677569 
L 295.097306 213.629695 
L 295.964952 212.563644 
L 296.819858 211.488285 
L 297.645055 210.390274 
L 298.43939 209.272081 
L 299.218623 208.143867 
L 299.95788 206.989954 
L 300.667811 205.818385 
L 301.363575 204.636767 
L 302.039131 203.444577 
L 302.68852 202.237918 
L 303.292989 201.00858 
L 303.883043 199.771635 
" clip-path="url(#p85db7338d5)" style="fill: none; stroke: #0072b2; stroke-width: 2.5; stroke-linecap: square"/>
   </g>
   <g id="line2d_35">
    <path d="M 275.807565 319.770882 
L 274.433335 319.765171 
L 273.060643 319.725138 
L 271.690641 319.652486 
L 270.321903 319.545184 
L 268.956074 319.403862 
L 267.594585 319.228411 
L 266.237378 319.019435 
L 264.886349 318.776851 
L 263.541746 318.499341 
L 262.204308 318.18946 
L 260.876041 317.843116 
L 259.555902 317.466678 
L 258.246965 317.051718 
L 256.942998 316.621383 
L 255.645456 316.172156 
L 254.356892 315.697889 
L 253.085269 315.180651 
L 251.823586 314.639004 
L 250.582029 314.05403 
L 249.350686 313.446211 
L 248.140238 312.798415 
L 246.944781 312.123628 
L 245.769094 311.414932 
L 244.606366 310.68383 
L 243.460305 309.927496 
L 242.345078 309.126571 
L 241.242702 308.307387 
L 240.153971 307.470548 
L 239.081989 306.612183 
L 238.029008 305.730782 
L 236.990304 304.83318 
L 235.963956 303.920971 
L 234.96663 302.976501 
L 233.985257 302.016736 
L 233.020138 301.039976 
L 232.089204 300.030706 
L 231.171998 299.008422 
L 230.275248 297.9684 
L 229.406641 296.904024 
L 228.553548 295.827759 
L 227.7194 294.736942 
L 226.90244 293.633219 
L 226.11755 292.506955 
L 225.347844 291.369982 
L 224.601586 290.217166 
L 223.901209 289.035905 
L 223.219586 287.843249 
L 222.558006 286.639556 
L 221.912077 285.419799 
L 221.306674 284.187523 
L 220.738229 282.937591 
L 220.183869 281.681564 
L 219.657488 280.413182 
L 219.155901 279.13475 
L 218.698301 277.840173 
L 218.265521 276.537276 
L 217.865745 275.222656 
L 217.483569 273.903834 
L 217.144638 272.573893 
L 216.831078 271.236895 
L 216.560542 269.890781 
L 216.315762 268.539779 
L 216.112716 267.181392 
L 215.936085 265.81971 
L 215.800666 264.452619 
L 215.692622 263.08259 
L 215.625709 261.711188 
L 215.58532 260.336986 
L 215.586171 258.962783 
L 215.613655 257.588608 
L 215.682188 256.217481 
L 215.777739 254.847479 
L 215.913872 253.480827 
L 216.077187 252.117113 
L 216.281852 250.758451 
L 216.513041 249.405171 
L 216.784812 248.059634 
L 217.083546 246.719698 
L 217.422806 245.389152 
L 217.790348 244.066322 
L 218.196054 242.754475 
L 218.630948 241.45232 
L 219.099504 240.161422 
L 219.601586 238.882825 
L 220.134501 237.616969 
L 220.706132 236.368547 
L 221.296899 235.128418 
L 221.903373 233.896004 
L 222.530988 232.674353 
L 223.206599 231.478595 
L 223.953653 230.326356 
L 224.744858 229.20388 
L 225.565524 228.101641 
L 226.41244 227.020379 
L 227.283188 225.957403 
L 228.167857 224.907167 
L 229.089511 223.888232 
L 230.043235 222.90016 
L 231.016453 221.930923 
L 232.031379 221.005068 
L 233.069644 220.105297 
L 234.128281 219.230238 
L 235.220417 218.396365 
L 236.324194 217.578142 
L 237.443072 216.781335 
L 238.577492 216.006495 
L 239.730582 215.261308 
L 240.895863 214.533694 
L 242.073253 213.825766 
L 243.276342 213.163967 
L 244.492419 212.526137 
L 245.717557 211.904398 
L 246.951399 211.299517 
L 248.200561 210.728134 
L 249.467022 210.195355 
L 250.742763 209.68641 
L 252.024106 209.191193 
L 253.314591 208.719644 
L 254.619767 208.293097 
L 255.933261 207.890054 
" clip-path="url(#p85db7338d5)" style="fill: none; stroke: #d95f02; stroke-width: 2.5; stroke-linecap: square"/>
   </g>
   <g id="patch_3">
    <path d="M 58.923594 441.961094 
L 58.923594 32.837812 
" style="fill: none; stroke: #000000; stroke-width: 1.5; stroke-linejoin: miter; stroke-linecap: square"/>
   </g>
   <g id="patch_4">
    <path d="M 481.763594 441.961094 
L 481.763594 32.837812 
" style="fill: none; stroke: #000000; stroke-width: 1.5; stroke-linejoin: miter; stroke-linecap: square"/>
   </g>
   <g id="patch_5">
    <path d="M 58.923594 441.961094 
L 481.763594 441.961094 
" style="fill: none; stroke: #000000; stroke-width: 1.5; stroke-linejoin: miter; stroke-linecap: square"/>
   </g>
   <g id="patch_6">
    <path d="M 58.923594 32.837812 
L 481.763594 32.837812 
" style="fill: none; stroke: #000000; stroke-width: 1.5; stroke-linejoin: miter; stroke-linecap: square"/>
   </g>
   <g id="text_19">
    <!-- 4. Independent Reflection (Classical HOM Breaking) -->
    <g transform="translate(83.371406 17.837812) scale(0.14 -0.14)">
     <defs>
      <path id="DejaVuSerif-11" d="M 603 325 
Q 603 500 722 622 
Q 841 744 1019 744 
Q 1191 744 1312 622 
Q 1434 500 1434 325 
Q 1434 153 1312 31 
Q 1191 -91 1019 -91 
Q 841 -91 722 29 
Q 603 150 603 325 
z
" transform="scale(0.015625)"/>
      <path id="DejaVuSerif-3" transform="scale(0.015625)"/>
      <path id="DejaVuSerif-2c" d="M 1581 331 
L 2175 331 
L 2175 0 
L 353 0 
L 353 331 
L 947 331 
L 947 4331 
L 353 4331 
L 353 4666 
L 2175 4666 
L 2175 4331 
L 1581 4331 
L 1581 331 
z
" transform="scale(0.015625)"/>
      <path id="DejaVuSerif-51" d="M 263 0 
L 263 331 
L 781 331 
L 781 2988 
L 231 2988 
L 231 3322 
L 1356 3322 
L 1356 2731 
Q 1516 3069 1770 3241 
Q 2025 3413 2363 3413 
Q 2913 3413 3172 3097 
Q 3431 2781 3431 2113 
L 3431 331 
L 3944 331 
L 3944 0 
L 2356 0 
L 2356 331 
L 2853 331 
L 2853 1931 
Q 2853 2541 2703 2767 
Q 2553 2994 2175 2994 
Q 1775 2994 1565 2701 
Q 1356 2409 1356 1850 
L 1356 331 
L 1856 331 
L 1856 0 
L 263 0 
z
" transform="scale(0.015625)"/>
      <path id="DejaVuSerif-47" d="M 3359 331 
L 3909 331 
L 3909 0 
L 2784 0 
L 2784 519 
Q 2616 206 2355 57 
Q 2094 -91 1709 -91 
Q 1097 -91 708 395 
Q 319 881 319 1663 
Q 319 2444 706 2928 
Q 1094 3413 1709 3413 
Q 2094 3413 2355 3264 
Q 2616 3116 2784 2803 
L 2784 4531 
L 2241 4531 
L 2241 4863 
L 3359 4863 
L 3359 331 
z
M 2784 1497 
L 2784 1825 
Q 2784 2422 2554 2737 
Q 2325 3053 1888 3053 
Q 1444 3053 1217 2703 
Q 991 2353 991 1663 
Q 991 975 1217 622 
Q 1444 269 1888 269 
Q 2325 269 2554 583 
Q 2784 897 2784 1497 
z
" transform="scale(0.015625)"/>
      <path id="DejaVuSerif-48" d="M 3469 1600 
L 991 1600 
L 991 1575 
Q 991 903 1244 561 
Q 1497 219 1991 219 
Q 2369 219 2611 417 
Q 2853 616 2950 1006 
L 3413 1006 
Q 3275 459 2904 184 
Q 2534 -91 1931 -91 
Q 1203 -91 761 389 
Q 319 869 319 1663 
Q 319 2450 753 2931 
Q 1188 3413 1894 3413 
Q 2647 3413 3050 2948 
Q 3453 2484 3469 1600 
z
M 2791 1931 
Q 2772 2513 2545 2808 
Q 2319 3103 1894 3103 
Q 1497 3103 1269 2806 
Q 1041 2509 991 1931 
L 2791 1931 
z
" transform="scale(0.015625)"/>
      <path id="DejaVuSerif-53" d="M 1313 1825 
L 1313 1497 
Q 1313 897 1542 583 
Q 1772 269 2209 269 
Q 2650 269 2876 622 
Q 3103 975 3103 1663 
Q 3103 2353 2876 2703 
Q 2650 3053 2209 3053 
Q 1772 3053 1542 2737 
Q 1313 2422 1313 1825 
z
M 738 2988 
L 184 2988 
L 184 3322 
L 1313 3322 
L 1313 2803 
Q 1481 3116 1742 3264 
Q 2003 3413 2388 3413 
Q 3000 3413 3387 2928 
Q 3775 2444 3775 1663 
Q 3775 881 3387 395 
Q 3000 -91 2388 -91 
Q 2003 -91 1742 57 
Q 1481 206 1313 519 
L 1313 -997 
L 1856 -997 
L 1856 -1331 
L 184 -1331 
L 184 -997 
L 738 -997 
L 738 2988 
z
" transform="scale(0.015625)"/>
      <path id="DejaVuSerif-57" d="M 691 2988 
L 184 2988 
L 184 3322 
L 691 3322 
L 691 4353 
L 1269 4353 
L 1269 3322 
L 2350 3322 
L 2350 2988 
L 1269 2988 
L 1269 878 
Q 1269 456 1350 337 
Q 1431 219 1650 219 
Q 1875 219 1978 351 
Q 2081 484 2088 781 
L 2522 781 
Q 2497 328 2275 118 
Q 2053 -91 1600 -91 
Q 1103 -91 897 129 
Q 691 350 691 878 
L 691 2988 
z
" transform="scale(0.015625)"/>
      <path id="DejaVuSerif-35" d="M 3066 2316 
Q 3284 2256 3442 2114 
Q 3600 1972 3725 1716 
L 4403 331 
L 4972 331 
L 4972 0 
L 3872 0 
L 3144 1484 
Q 2934 1916 2759 2042 
Q 2584 2169 2278 2169 
L 1581 2169 
L 1581 331 
L 2241 331 
L 2241 0 
L 353 0 
L 353 331 
L 947 331 
L 947 4331 
L 353 4331 
L 353 4666 
L 2719 4666 
Q 3400 4666 3770 4341 
Q 4141 4016 4141 3419 
Q 4141 2938 3870 2661 
Q 3600 2384 3066 2316 
z
M 1581 2503 
L 2503 2503 
Q 2975 2503 3200 2726 
Q 3425 2950 3425 3419 
Q 3425 3888 3200 4109 
Q 2975 4331 2503 4331 
L 1581 4331 
L 1581 2503 
z
" transform="scale(0.015625)"/>
      <path id="DejaVuSerif-cf1" d="M 2291 4863 
L 3531 4863 
L 3531 331 
L 4078 331 
L 4078 0 
L 2406 0 
L 2406 331 
L 2956 331 
L 2956 4531 
L 2284 4531 
Q 1775 4531 1565 4328 
Q 1356 4125 1356 3634 
L 1356 3322 
L 2278 3322 
L 2278 2988 
L 1356 2988 
L 1356 331 
L 1900 331 
L 1900 0 
L 231 0 
L 231 331 
L 781 331 
L 781 2988 
L 231 2988 
L 231 3322 
L 781 3322 
L 781 3622 
Q 781 4250 1154 4556 
Q 1528 4863 2291 4863 
z
" transform="scale(0.015625)"/>
      <path id="DejaVuSerif-46" d="M 3291 997 
Q 3169 466 2822 187 
Q 2475 -91 1925 -91 
Q 1200 -91 759 389 
Q 319 869 319 1663 
Q 319 2459 759 2936 
Q 1200 3413 1925 3413 
Q 2241 3413 2553 3339 
Q 2866 3266 3181 3116 
L 3181 2266 
L 2847 2266 
Q 2781 2703 2561 2903 
Q 2341 3103 1931 3103 
Q 1466 3103 1228 2742 
Q 991 2381 991 1663 
Q 991 944 1227 581 
Q 1463 219 1931 219 
Q 2303 219 2525 412 
Q 2747 606 2828 997 
L 3291 997 
z
" transform="scale(0.015625)"/>
      <path id="DejaVuSerif-4c" d="M 622 4353 
Q 622 4497 726 4603 
Q 831 4709 978 4709 
Q 1122 4709 1226 4603 
Q 1331 4497 1331 4353 
Q 1331 4206 1228 4103 
Q 1125 4000 978 4000 
Q 831 4000 726 4103 
Q 622 4206 622 4353 
z
M 1356 331 
L 1900 331 
L 1900 0 
L 231 0 
L 231 331 
L 781 331 
L 781 2988 
L 231 2988 
L 231 3322 
L 1356 3322 
L 1356 331 
z
" transform="scale(0.015625)"/>
      <path id="DejaVuSerif-52" d="M 1925 219 
Q 2388 219 2623 584 
Q 2859 950 2859 1663 
Q 2859 2375 2623 2739 
Q 2388 3103 1925 3103 
Q 1463 3103 1227 2739 
Q 991 2375 991 1663 
Q 991 950 1228 584 
Q 1466 219 1925 219 
z
M 1925 -91 
Q 1200 -91 759 389 
Q 319 869 319 1663 
Q 319 2456 758 2934 
Q 1197 3413 1925 3413 
Q 2653 3413 3092 2934 
Q 3531 2456 3531 1663 
Q 3531 869 3092 389 
Q 2653 -91 1925 -91 
z
" transform="scale(0.015625)"/>
      <path id="DejaVuSerif-b" d="M 2041 -997 
Q 1281 -656 893 83 
Q 506 822 506 1931 
Q 506 3044 893 3783 
Q 1281 4522 2041 4863 
L 2041 4556 
Q 1559 4225 1350 3623 
Q 1141 3022 1141 1931 
Q 1141 844 1350 242 
Q 1559 -359 2041 -691 
L 2041 -997 
z
" transform="scale(0.015625)"/>
      <path id="DejaVuSerif-26" d="M 4513 1234 
Q 4306 581 3820 245 
Q 3334 -91 2591 -91 
Q 2134 -91 1743 65 
Q 1353 222 1050 525 
Q 700 875 529 1320 
Q 359 1766 359 2328 
Q 359 3416 987 4083 
Q 1616 4750 2644 4750 
Q 3025 4750 3456 4650 
Q 3888 4550 4384 4347 
L 4384 3272 
L 4031 3272 
Q 3916 3859 3567 4137 
Q 3219 4416 2591 4416 
Q 1844 4416 1459 3886 
Q 1075 3356 1075 2328 
Q 1075 1303 1459 773 
Q 1844 244 2591 244 
Q 3113 244 3450 492 
Q 3788 741 3938 1234 
L 4513 1234 
z
" transform="scale(0.015625)"/>
      <path id="DejaVuSerif-4f" d="M 1313 331 
L 1856 331 
L 1856 0 
L 184 0 
L 184 331 
L 738 331 
L 738 4531 
L 184 4531 
L 184 4863 
L 1313 4863 
L 1313 331 
z
" transform="scale(0.015625)"/>
      <path id="DejaVuSerif-44" d="M 2547 1044 
L 2547 1747 
L 1806 1747 
Q 1378 1747 1168 1562 
Q 959 1378 959 997 
Q 959 650 1171 447 
Q 1384 244 1747 244 
Q 2106 244 2326 466 
Q 2547 688 2547 1044 
z
M 3122 2075 
L 3122 331 
L 3634 331 
L 3634 0 
L 2547 0 
L 2547 359 
Q 2356 128 2106 18 
Q 1856 -91 1522 -91 
Q 969 -91 644 203 
Q 319 497 319 997 
Q 319 1513 691 1797 
Q 1063 2081 1741 2081 
L 2547 2081 
L 2547 2309 
Q 2547 2688 2317 2895 
Q 2088 3103 1672 3103 
Q 1328 3103 1125 2947 
Q 922 2791 872 2484 
L 575 2484 
L 575 3156 
Q 875 3284 1158 3348 
Q 1441 3413 1709 3413 
Q 2400 3413 2761 3070 
Q 3122 2728 3122 2075 
z
" transform="scale(0.015625)"/>
      <path id="DejaVuSerif-56" d="M 359 184 
L 359 959 
L 691 959 
Q 703 588 923 403 
Q 1144 219 1575 219 
Q 1963 219 2166 364 
Q 2369 509 2369 788 
Q 2369 1006 2220 1140 
Q 2072 1275 1594 1428 
L 1178 1569 
Q 750 1706 558 1912 
Q 366 2119 366 2438 
Q 366 2894 700 3153 
Q 1034 3413 1625 3413 
Q 1888 3413 2178 3344 
Q 2469 3275 2778 3144 
L 2778 2419 
L 2447 2419 
Q 2434 2741 2221 2922 
Q 2009 3103 1644 3103 
Q 1281 3103 1095 2975 
Q 909 2847 909 2591 
Q 909 2381 1050 2254 
Q 1191 2128 1613 1997 
L 2069 1856 
Q 2541 1709 2748 1489 
Q 2956 1269 2956 922 
Q 2956 450 2595 179 
Q 2234 -91 1600 -91 
Q 1278 -91 972 -22 
Q 666 47 359 184 
z
" transform="scale(0.015625)"/>
      <path id="DejaVuSerif-2b" d="M 353 0 
L 353 331 
L 947 331 
L 947 4331 
L 353 4331 
L 353 4666 
L 2175 4666 
L 2175 4331 
L 1581 4331 
L 1581 2719 
L 4000 2719 
L 4000 4331 
L 3406 4331 
L 3406 4666 
L 5228 4666 
L 5228 4331 
L 4634 4331 
L 4634 331 
L 5228 331 
L 5228 0 
L 3406 0 
L 3406 331 
L 4000 331 
L 4000 2338 
L 1581 2338 
L 1581 331 
L 2175 331 
L 2175 0 
L 353 0 
z
" transform="scale(0.015625)"/>
      <path id="DejaVuSerif-32" d="M 2625 244 
Q 3391 244 3781 770 
Q 4172 1297 4172 2328 
Q 4172 3363 3781 3889 
Q 3391 4416 2625 4416 
Q 1856 4416 1465 3889 
Q 1075 3363 1075 2328 
Q 1075 1297 1465 770 
Q 1856 244 2625 244 
z
M 2625 -91 
Q 2150 -91 1751 65 
Q 1353 222 1050 525 
Q 700 875 529 1319 
Q 359 1763 359 2328 
Q 359 2894 529 3339 
Q 700 3784 1050 4134 
Q 1356 4441 1750 4595 
Q 2144 4750 2625 4750 
Q 3641 4750 4266 4084 
Q 4891 3419 4891 2328 
Q 4891 1769 4719 1320 
Q 4547 872 4197 525 
Q 3891 219 3497 64 
Q 3103 -91 2625 -91 
z
" transform="scale(0.015625)"/>
      <path id="DejaVuSerif-30" d="M 353 0 
L 353 331 
L 947 331 
L 947 4331 
L 319 4331 
L 319 4666 
L 1678 4666 
L 3316 1344 
L 4953 4666 
L 6228 4666 
L 6228 4331 
L 5606 4331 
L 5606 331 
L 6203 331 
L 6203 0 
L 4378 0 
L 4378 331 
L 4972 331 
L 4972 3938 
L 3372 684 
L 2931 684 
L 1331 3938 
L 1331 331 
L 1925 331 
L 1925 0 
L 353 0 
z
" transform="scale(0.015625)"/>
      <path id="DejaVuSerif-25" d="M 1581 331 
L 2516 331 
Q 3078 331 3337 575 
Q 3597 819 3597 1350 
Q 3597 1878 3339 2120 
Q 3081 2363 2516 2363 
L 1581 2363 
L 1581 331 
z
M 1581 2694 
L 2375 2694 
Q 2888 2694 3123 2891 
Q 3359 3088 3359 3513 
Q 3359 3941 3123 4136 
Q 2888 4331 2375 4331 
L 1581 4331 
L 1581 2694 
z
M 353 0 
L 353 331 
L 947 331 
L 947 4331 
L 353 4331 
L 353 4666 
L 2656 4666 
Q 3363 4666 3720 4377 
Q 4078 4088 4078 3513 
Q 4078 3097 3829 2850 
Q 3581 2603 3103 2547 
Q 3697 2472 4005 2167 
Q 4313 1863 4313 1350 
Q 4313 656 3875 328 
Q 3438 0 2509 0 
L 353 0 
z
" transform="scale(0.015625)"/>
      <path id="DejaVuSerif-55" d="M 3059 3328 
L 3059 2497 
L 2728 2497 
Q 2713 2744 2591 2866 
Q 2469 2988 2234 2988 
Q 1809 2988 1582 2694 
Q 1356 2400 1356 1850 
L 1356 331 
L 2022 331 
L 2022 0 
L 263 0 
L 263 331 
L 781 331 
L 781 2994 
L 231 2994 
L 231 3322 
L 1356 3322 
L 1356 2731 
Q 1525 3078 1790 3245 
Q 2056 3413 2438 3413 
Q 2578 3413 2733 3391 
Q 2888 3369 3059 3328 
z
" transform="scale(0.015625)"/>
      <path id="DejaVuSerif-4e" d="M 1831 0 
L 219 0 
L 219 331 
L 738 331 
L 738 4531 
L 184 4531 
L 184 4863 
L 1313 4863 
L 1313 1697 
L 2713 2988 
L 2234 2988 
L 2234 3322 
L 3738 3322 
L 3738 2988 
L 3169 2988 
L 2181 2075 
L 3444 331 
L 3922 331 
L 3922 0 
L 2284 0 
L 2284 331 
L 2759 331 
L 1766 1697 
L 1313 1275 
L 1313 331 
L 1831 331 
L 1831 0 
z
" transform="scale(0.015625)"/>
      <path id="DejaVuSerif-4a" d="M 3359 2988 
L 3359 72 
Q 3359 -644 2965 -1033 
Q 2572 -1422 1844 -1422 
Q 1516 -1422 1216 -1362 
Q 916 -1303 641 -1184 
L 641 -488 
L 941 -488 
Q 997 -813 1206 -963 
Q 1416 -1113 1806 -1113 
Q 2313 -1113 2548 -827 
Q 2784 -541 2784 72 
L 2784 519 
Q 2616 206 2355 57 
Q 2094 -91 1709 -91 
Q 1097 -91 708 395 
Q 319 881 319 1663 
Q 319 2444 706 2928 
Q 1094 3413 1709 3413 
Q 2094 3413 2355 3264 
Q 2616 3116 2784 2803 
L 2784 3322 
L 3909 3322 
L 3909 2988 
L 3359 2988 
z
M 2784 1825 
Q 2784 2422 2554 2737 
Q 2325 3053 1888 3053 
Q 1444 3053 1217 2703 
Q 991 2353 991 1663 
Q 991 975 1217 622 
Q 1444 269 1888 269 
Q 2325 269 2554 583 
Q 2784 897 2784 1497 
L 2784 1825 
z
" transform="scale(0.015625)"/>
      <path id="DejaVuSerif-c" d="M 453 -997 
L 453 -691 
Q 934 -359 1145 242 
Q 1356 844 1356 1931 
Q 1356 3022 1145 3623 
Q 934 4225 453 4556 
L 453 4863 
Q 1216 4522 1603 3783 
Q 1991 3044 1991 1931 
Q 1991 822 1603 83 
Q 1216 -656 453 -997 
z
" transform="scale(0.015625)"/>
     </defs>
     <use xlink:href="#DejaVuSerif-17"/>
     <use xlink:href="#DejaVuSerif-11" transform="translate(63.625 0)"/>
     <use xlink:href="#DejaVuSerif-3" transform="translate(95.40625 0)"/>
     <use xlink:href="#DejaVuSerif-2c" transform="translate(127.1875 0)"/>
     <use xlink:href="#DejaVuSerif-51" transform="translate(166.6875 0)"/>
     <use xlink:href="#DejaVuSerif-47" transform="translate(231.09375 0)"/>
     <use xlink:href="#DejaVuSerif-48" transform="translate(295.109375 0)"/>
     <use xlink:href="#DejaVuSerif-53" transform="translate(354.296875 0)"/>
     <use xlink:href="#DejaVuSerif-48" transform="translate(418.3125 0)"/>
     <use xlink:href="#DejaVuSerif-51" transform="translate(477.5 0)"/>
     <use xlink:href="#DejaVuSerif-47" transform="translate(541.90625 0)"/>
     <use xlink:href="#DejaVuSerif-48" transform="translate(605.921875 0)"/>
     <use xlink:href="#DejaVuSerif-51" transform="translate(665.109375 0)"/>
     <use xlink:href="#DejaVuSerif-57" transform="translate(729.515625 0)"/>
     <use xlink:href="#DejaVuSerif-3" transform="translate(769.703125 0)"/>
     <use xlink:href="#DejaVuSerif-35" transform="translate(801.484375 0)"/>
     <use xlink:href="#DejaVuSerif-48" transform="translate(876.78125 0)"/>
     <use xlink:href="#DejaVuSerif-cf1" transform="translate(935.96875 0)"/>
     <use xlink:href="#DejaVuSerif-48" transform="translate(1002.671875 0)"/>
     <use xlink:href="#DejaVuSerif-46" transform="translate(1061.859375 0)"/>
     <use xlink:href="#DejaVuSerif-57" transform="translate(1117.859375 0)"/>
     <use xlink:href="#DejaVuSerif-4c" transform="translate(1158.046875 0)"/>
     <use xlink:href="#DejaVuSerif-52" transform="translate(1190.03125 0)"/>
     <use xlink:href="#DejaVuSerif-51" transform="translate(1250.234375 0)"/>
     <use xlink:href="#DejaVuSerif-3" transform="translate(1314.640625 0)"/>
     <use xlink:href="#DejaVuSerif-b" transform="translate(1346.421875 0)"/>
     <use xlink:href="#DejaVuSerif-26" transform="translate(1385.4375 0)"/>
     <use xlink:href="#DejaVuSerif-4f" transform="translate(1461.953125 0)"/>
     <use xlink:href="#DejaVuSerif-44" transform="translate(1493.9375 0)"/>
     <use xlink:href="#DejaVuSerif-56" transform="translate(1553.5625 0)"/>
     <use xlink:href="#DejaVuSerif-56" transform="translate(1604.875 0)"/>
     <use xlink:href="#DejaVuSerif-4c" transform="translate(1656.1875 0)"/>
     <use xlink:href="#DejaVuSerif-46" transform="translate(1688.171875 0)"/>
     <use xlink:href="#DejaVuSerif-44" transform="translate(1744.171875 0)"/>
     <use xlink:href="#DejaVuSerif-4f" transform="translate(1803.796875 0)"/>
     <use xlink:href="#DejaVuSerif-3" transform="translate(1835.78125 0)"/>
     <use xlink:href="#DejaVuSerif-2b" transform="translate(1867.5625 0)"/>
     <use xlink:href="#DejaVuSerif-32" transform="translate(1954.765625 0)"/>
     <use xlink:href="#DejaVuSerif-30" transform="translate(2036.75 0)"/>
     <use xlink:href="#DejaVuSerif-3" transform="translate(2139.140625 0)"/>
     <use xlink:href="#DejaVuSerif-25" transform="translate(2170.921875 0)"/>
     <use xlink:href="#DejaVuSerif-55" transform="translate(2244.40625 0)"/>
     <use xlink:href="#DejaVuSerif-48" transform="translate(2292.203125 0)"/>
     <use xlink:href="#DejaVuSerif-44" transform="translate(2351.390625 0)"/>
     <use xlink:href="#DejaVuSerif-4e" transform="translate(2411.015625 0)"/>
     <use xlink:href="#DejaVuSerif-4c" transform="translate(2471.609375 0)"/>
     <use xlink:href="#DejaVuSerif-51" transform="translate(2503.59375 0)"/>
     <use xlink:href="#DejaVuSerif-4a" transform="translate(2568 0)"/>
     <use xlink:href="#DejaVuSerif-c" transform="translate(2632.015625 0)"/>
    </g>
   </g>
   <g id="PathCollection_1">
    <defs>
     <path id="madb3ebf822" d="M -3.061862 6.123724 
L 0 3.061862 
L 3.061862 6.123724 
L 6.123724 3.061862 
L 3.061862 0 
L 6.123724 -3.061862 
L 3.061862 -6.123724 
L 0 -3.061862 
L -3.061862 -6.123724 
L -6.123724 -3.061862 
L -3.061862 0 
L -6.123724 3.061862 
z
" style="stroke: #000000"/>
    </defs>
    <g clip-path="url(#p85db7338d5)">
     <use xlink:href="#madb3ebf822" x="187.972165" y="177.021196" style="fill: #0072b2; stroke: #000000"/>
    </g>
   </g>
   <g id="PathCollection_2">
    <defs>
     <path id="mcfc424372c" d="M -3.061862 6.123724 
L 0 3.061862 
L 3.061862 6.123724 
L 6.123724 3.061862 
L 3.061862 0 
L 6.123724 -3.061862 
L 3.061862 -6.123724 
L 0 -3.061862 
L -3.061862 -6.123724 
L -6.123724 -3.061862 
L -3.061862 0 
L -6.123724 3.061862 
z
" style="stroke: #000000"/>
    </defs>
    <g clip-path="url(#p85db7338d5)">
     <use xlink:href="#mcfc424372c" x="275.807565" y="319.770882" style="fill: #d95f02; stroke: #000000"/>
    </g>
   </g>
   <g id="legend_1">
    <g id="patch_7">
     <path d="M 68.723594 107.041094 
L 341.474219 107.041094 
Q 344.274219 107.041094 344.274219 104.241094 
L 344.274219 42.637812 
Q 344.274219 39.837812 341.474219 39.837812 
L 68.723594 39.837812 
Q 65.923594 39.837812 65.923594 42.637812 
L 65.923594 104.241094 
Q 65.923594 107.041094 68.723594 107.041094 
z
" style="fill: #ffffff; opacity: 0.8; stroke: #000000; stroke-linejoin: miter"/>
    </g>
    <g id="line2d_36">
     <path d="M 71.523594 51.175625 
L 85.523594 51.175625 
L 99.523594 51.175625 
" style="fill: none; stroke-dasharray: 7.4,3.2; stroke-dashoffset: 0; stroke: #888888; stroke-width: 2"/>
    </g>
    <g id="text_20">
     <!-- Beam Splitter -->
     <g transform="translate(110.723594 56.075625) scale(0.14 -0.14)">
      <defs>
       <path id="DejaVuSerif-50" d="M 3316 2675 
Q 3481 3041 3739 3227 
Q 3997 3413 4341 3413 
Q 4863 3413 5119 3089 
Q 5375 2766 5375 2113 
L 5375 331 
L 5894 331 
L 5894 0 
L 4300 0 
L 4300 331 
L 4800 331 
L 4800 2047 
Q 4800 2556 4650 2772 
Q 4500 2988 4153 2988 
Q 3769 2988 3567 2697 
Q 3366 2406 3366 1850 
L 3366 331 
L 3866 331 
L 3866 0 
L 2291 0 
L 2291 331 
L 2791 331 
L 2791 2069 
Q 2791 2566 2641 2777 
Q 2491 2988 2144 2988 
Q 1759 2988 1557 2697 
Q 1356 2406 1356 1850 
L 1356 331 
L 1856 331 
L 1856 0 
L 263 0 
L 263 331 
L 781 331 
L 781 2994 
L 231 2994 
L 231 3322 
L 1356 3322 
L 1356 2731 
Q 1516 3063 1762 3238 
Q 2009 3413 2322 3413 
Q 2709 3413 2968 3220 
Q 3228 3028 3316 2675 
z
" transform="scale(0.015625)"/>
       <path id="DejaVuSerif-36" d="M 594 225 
L 594 1288 
L 953 1284 
Q 969 753 1261 498 
Q 1553 244 2150 244 
Q 2706 244 2998 464 
Q 3291 684 3291 1106 
Q 3291 1444 3114 1625 
Q 2938 1806 2369 1978 
L 1753 2163 
Q 1084 2366 811 2669 
Q 538 2972 538 3500 
Q 538 4094 959 4422 
Q 1381 4750 2144 4750 
Q 2469 4750 2856 4679 
Q 3244 4609 3681 4475 
L 3681 3481 
L 3328 3481 
Q 3275 3975 2998 4195 
Q 2722 4416 2156 4416 
Q 1663 4416 1405 4214 
Q 1147 4013 1147 3628 
Q 1147 3294 1340 3103 
Q 1534 2913 2163 2725 
L 2741 2553 
Q 3375 2363 3645 2067 
Q 3916 1772 3916 1275 
Q 3916 597 3481 253 
Q 3047 -91 2188 -91 
Q 1803 -91 1404 -12 
Q 1006 66 594 225 
z
" transform="scale(0.015625)"/>
      </defs>
      <use xlink:href="#DejaVuSerif-25"/>
      <use xlink:href="#DejaVuSerif-48" transform="translate(73.484375 0)"/>
      <use xlink:href="#DejaVuSerif-44" transform="translate(132.671875 0)"/>
      <use xlink:href="#DejaVuSerif-50" transform="translate(192.296875 0)"/>
      <use xlink:href="#DejaVuSerif-3" transform="translate(287.125 0)"/>
      <use xlink:href="#DejaVuSerif-36" transform="translate(318.90625 0)"/>
      <use xlink:href="#DejaVuSerif-53" transform="translate(387.40625 0)"/>
      <use xlink:href="#DejaVuSerif-4f" transform="translate(451.421875 0)"/>
      <use xlink:href="#DejaVuSerif-4c" transform="translate(483.40625 0)"/>
      <use xlink:href="#DejaVuSerif-57" transform="translate(515.390625 0)"/>
      <use xlink:href="#DejaVuSerif-57" transform="translate(555.578125 0)"/>
      <use xlink:href="#DejaVuSerif-48" transform="translate(595.765625 0)"/>
      <use xlink:href="#DejaVuSerif-55" transform="translate(654.953125 0)"/>
     </g>
    </g>
    <g id="line2d_37">
     <path d="M 71.523594 72.176719 
L 85.523594 72.176719 
L 99.523594 72.176719 
" style="fill: none; stroke: #0072b2; stroke-width: 2.5; stroke-linecap: square"/>
    </g>
    <g id="text_21">
     <!-- Photon 1 (Origin: Left/Top) -->
     <g transform="translate(110.723594 77.076719) scale(0.14 -0.14)">
      <defs>
       <path id="DejaVuSerif-33" d="M 1581 2375 
L 2406 2375 
Q 2872 2375 3115 2626 
Q 3359 2878 3359 3353 
Q 3359 3831 3115 4081 
Q 2872 4331 2406 4331 
L 1581 4331 
L 1581 2375 
z
M 353 0 
L 353 331 
L 947 331 
L 947 4331 
L 353 4331 
L 353 4666 
L 2559 4666 
Q 3259 4666 3668 4311 
Q 4078 3956 4078 3353 
Q 4078 2753 3668 2397 
Q 3259 2041 2559 2041 
L 1581 2041 
L 1581 331 
L 2303 331 
L 2303 0 
L 353 0 
z
" transform="scale(0.015625)"/>
       <path id="DejaVuSerif-4b" d="M 263 0 
L 263 331 
L 781 331 
L 781 4531 
L 231 4531 
L 231 4863 
L 1356 4863 
L 1356 2731 
Q 1516 3069 1770 3241 
Q 2025 3413 2363 3413 
Q 2913 3413 3172 3097 
Q 3431 2781 3431 2113 
L 3431 331 
L 3944 331 
L 3944 0 
L 2356 0 
L 2356 331 
L 2853 331 
L 2853 1931 
Q 2853 2541 2704 2764 
Q 2556 2988 2175 2988 
Q 1775 2988 1565 2697 
Q 1356 2406 1356 1850 
L 1356 331 
L 1856 331 
L 1856 0 
L 263 0 
z
" transform="scale(0.015625)"/>
       <path id="DejaVuSerif-14" d="M 909 0 
L 909 331 
L 1722 331 
L 1722 4213 
L 781 3603 
L 781 4013 
L 1919 4750 
L 2350 4750 
L 2350 331 
L 3163 331 
L 3163 0 
L 909 0 
z
" transform="scale(0.015625)"/>
       <path id="DejaVuSerif-1d" d="M 666 325 
Q 666 500 786 622 
Q 906 744 1081 744 
Q 1256 744 1376 622 
Q 1497 500 1497 325 
Q 1497 150 1378 29 
Q 1259 -91 1081 -91 
Q 903 -91 784 29 
Q 666 150 666 325 
z
M 666 2363 
Q 666 2538 786 2658 
Q 906 2778 1081 2778 
Q 1259 2778 1378 2659 
Q 1497 2541 1497 2363 
Q 1497 2184 1378 2065 
Q 1259 1947 1081 1947 
Q 906 1947 786 2067 
Q 666 2188 666 2363 
z
" transform="scale(0.015625)"/>
       <path id="DejaVuSerif-2f" d="M 353 0 
L 353 331 
L 947 331 
L 947 4331 
L 353 4331 
L 353 4666 
L 2175 4666 
L 2175 4331 
L 1581 4331 
L 1581 384 
L 3713 384 
L 3713 1166 
L 4097 1166 
L 4097 0 
L 353 0 
z
" transform="scale(0.015625)"/>
       <path id="DejaVuSerif-49" d="M 2753 4078 
L 2450 4078 
Q 2447 4313 2317 4434 
Q 2188 4556 1941 4556 
Q 1619 4556 1487 4379 
Q 1356 4203 1356 3750 
L 1356 3322 
L 2284 3322 
L 2284 2988 
L 1356 2988 
L 1356 331 
L 2094 331 
L 2094 0 
L 231 0 
L 231 331 
L 781 331 
L 781 2988 
L 231 2988 
L 231 3322 
L 781 3322 
L 781 3738 
Q 781 4294 1070 4578 
Q 1359 4863 1919 4863 
Q 2128 4863 2337 4825 
Q 2547 4788 2753 4709 
L 2753 4078 
z
" transform="scale(0.015625)"/>
       <path id="DejaVuSerif-12" d="M 1656 4666 
L 2156 4666 
L 500 -594 
L 0 -594 
L 1656 4666 
z
" transform="scale(0.015625)"/>
       <path id="DejaVuSerif-37" d="M 1222 0 
L 1222 331 
L 1819 331 
L 1819 4294 
L 447 4294 
L 447 3566 
L 63 3566 
L 63 4666 
L 4206 4666 
L 4206 3566 
L 3822 3566 
L 3822 4294 
L 2450 4294 
L 2450 331 
L 3047 331 
L 3047 0 
L 1222 0 
z
" transform="scale(0.015625)"/>
      </defs>
      <use xlink:href="#DejaVuSerif-33"/>
      <use xlink:href="#DejaVuSerif-4b" transform="translate(67.28125 0)"/>
      <use xlink:href="#DejaVuSerif-52" transform="translate(131.6875 0)"/>
      <use xlink:href="#DejaVuSerif-57" transform="translate(191.890625 0)"/>
      <use xlink:href="#DejaVuSerif-52" transform="translate(232.078125 0)"/>
      <use xlink:href="#DejaVuSerif-51" transform="translate(292.28125 0)"/>
      <use xlink:href="#DejaVuSerif-3" transform="translate(356.6875 0)"/>
      <use xlink:href="#DejaVuSerif-14" transform="translate(388.46875 0)"/>
      <use xlink:href="#DejaVuSerif-3" transform="translate(452.09375 0)"/>
      <use xlink:href="#DejaVuSerif-b" transform="translate(483.875 0)"/>
      <use xlink:href="#DejaVuSerif-32" transform="translate(522.890625 0)"/>
      <use xlink:href="#DejaVuSerif-55" transform="translate(604.875 0)"/>
      <use xlink:href="#DejaVuSerif-4c" transform="translate(652.671875 0)"/>
      <use xlink:href="#DejaVuSerif-4a" transform="translate(684.65625 0)"/>
      <use xlink:href="#DejaVuSerif-4c" transform="translate(748.671875 0)"/>
      <use xlink:href="#DejaVuSerif-51" transform="translate(780.65625 0)"/>
      <use xlink:href="#DejaVuSerif-1d" transform="translate(845.0625 0)"/>
      <use xlink:href="#DejaVuSerif-3" transform="translate(878.75 0)"/>
      <use xlink:href="#DejaVuSerif-2f" transform="translate(910.53125 0)"/>
      <use xlink:href="#DejaVuSerif-48" transform="translate(976.9375 0)"/>
      <use xlink:href="#DejaVuSerif-49" transform="translate(1036.125 0)"/>
      <use xlink:href="#DejaVuSerif-57" transform="translate(1073.140625 0)"/>
      <use xlink:href="#DejaVuSerif-12" transform="translate(1113.328125 0)"/>
      <use xlink:href="#DejaVuSerif-37" transform="translate(1147.015625 0)"/>
      <use xlink:href="#DejaVuSerif-52" transform="translate(1205.953125 0)"/>
      <use xlink:href="#DejaVuSerif-53" transform="translate(1266.15625 0)"/>
      <use xlink:href="#DejaVuSerif-c" transform="translate(1330.171875 0)"/>
     </g>
    </g>
    <g id="line2d_38">
     <path d="M 71.523594 93.177812 
L 85.523594 93.177812 
L 99.523594 93.177812 
" style="fill: none; stroke: #d95f02; stroke-width: 2.5; stroke-linecap: square"/>
    </g>
    <g id="text_22">
     <!-- Photon 2 (Origin: Right/Bottom) -->
     <g transform="translate(110.723594 98.077812) scale(0.14 -0.14)">
      <use xlink:href="#DejaVuSerif-33"/>
      <use xlink:href="#DejaVuSerif-4b" transform="translate(67.28125 0)"/>
      <use xlink:href="#DejaVuSerif-52" transform="translate(131.6875 0)"/>
      <use xlink:href="#DejaVuSerif-57" transform="translate(191.890625 0)"/>
      <use xlink:href="#DejaVuSerif-52" transform="translate(232.078125 0)"/>
      <use xlink:href="#DejaVuSerif-51" transform="translate(292.28125 0)"/>
      <use xlink:href="#DejaVuSerif-3" transform="translate(356.6875 0)"/>
      <use xlink:href="#DejaVuSerif-15" transform="translate(388.46875 0)"/>
      <use xlink:href="#DejaVuSerif-3" transform="translate(452.09375 0)"/>
      <use xlink:href="#DejaVuSerif-b" transform="translate(483.875 0)"/>
      <use xlink:href="#DejaVuSerif-32" transform="translate(522.890625 0)"/>
      <use xlink:href="#DejaVuSerif-55" transform="translate(604.875 0)"/>
      <use xlink:href="#DejaVuSerif-4c" transform="translate(652.671875 0)"/>
      <use xlink:href="#DejaVuSerif-4a" transform="translate(684.65625 0)"/>
      <use xlink:href="#DejaVuSerif-4c" transform="translate(748.671875 0)"/>
      <use xlink:href="#DejaVuSerif-51" transform="translate(780.65625 0)"/>
      <use xlink:href="#DejaVuSerif-1d" transform="translate(845.0625 0)"/>
      <use xlink:href="#DejaVuSerif-3" transform="translate(878.75 0)"/>
      <use xlink:href="#DejaVuSerif-35" transform="translate(910.53125 0)"/>
      <use xlink:href="#DejaVuSerif-4c" transform="translate(985.828125 0)"/>
      <use xlink:href="#DejaVuSerif-4a" transform="translate(1017.8125 0)"/>
      <use xlink:href="#DejaVuSerif-4b" transform="translate(1081.828125 0)"/>
      <use xlink:href="#DejaVuSerif-57" transform="translate(1146.234375 0)"/>
      <use xlink:href="#DejaVuSerif-12" transform="translate(1186.421875 0)"/>
      <use xlink:href="#DejaVuSerif-25" transform="translate(1220.109375 0)"/>
      <use xlink:href="#DejaVuSerif-52" transform="translate(1293.59375 0)"/>
      <use xlink:href="#DejaVuSerif-57" transform="translate(1353.796875 0)"/>
      <use xlink:href="#DejaVuSerif-57" transform="translate(1393.984375 0)"/>
      <use xlink:href="#DejaVuSerif-52" transform="translate(1434.171875 0)"/>
      <use xlink:href="#DejaVuSerif-50" transform="translate(1494.375 0)"/>
      <use xlink:href="#DejaVuSerif-c" transform="translate(1589.203125 0)"/>
     </g>
    </g>
   </g>
   <g id="Quiver_1">
    <path d="M 302.446164 199.101065 
L 308.313227 186.529291 
L 304.768898 186.62503 
L 315.785239 174.267951 
L 313.390172 190.648452 
L 311.186985 187.870432 
L 305.319922 200.442206 
L 302.446164 199.101065 
" clip-path="url(#p85db7338d5)"/>
   </g>
   <g id="Quiver_2">
    <path d="M 255.490847 206.367373 
L 268.876593 202.478148 
L 266.469084 199.875202 
L 283.023131 200.019099 
L 269.12357 209.011284 
L 269.761422 205.523509 
L 256.375676 209.412734 
L 255.490847 206.367373 
" clip-path="url(#p85db7338d5)"/>
   </g>
  </g>
 </g>
 <defs>
  <clipPath id="p85db7338d5">
   <rect x="58.923594" y="32.837812" width="422.84" height="409.123281"/>
  </clipPath>
 </defs>
</svg>
