<?xml version="1.0" encoding="utf-8" standalone="no"?>
<!DOCTYPE svg PUBLIC "-//W3C//DTD SVG 1.1//EN"
  "http://www.w3.org/Graphics/SVG/1.1/DTD/svg11.dtd">
<svg xmlns:xlink="http://www.w3.org/1999/xlink" width="488.963594pt" height="488.162187pt" viewBox="0 0 488.963594 488.162187" xmlns="http://www.w3.org/2000/svg" version="1.1">
 <metadata>
  <rdf:RDF xmlns:dc="http://purl.org/dc/elements/1.1/" xmlns:cc="http://creativecommons.org/ns#" xmlns:rdf="http://www.w3.org/1999/02/22-rdf-syntax-ns#">
   <cc:Work>
    <dc:type rdf:resource="http://purl.org/dc/dcmitype/StillImage"/>
    <dc:date>2026-06-17T18:37:22.174132</dc:date>
    <dc:format>image/svg+xml</dc:format>
    <dc:creator>
     <cc:Agent>
      <dc:title>Matplotlib v3.11.0, https://matplotlib.org/</dc:title>
     </cc:Agent>
    </dc:creator>
   </cc:Work>
  </rdf:RDF>
 </metadata>
 <defs>
  <style type="text/css">*{stroke-linejoin: round; stroke-linecap: butt}</style>
 </defs>
 <g id="figure_1">
  <g id="patch_1">
   <path d="M 0 488.162187 
L 488.963594 488.162187 
L 488.963594 0 
L 0 0 
z
" style="fill: #ffffff"/>
  </g>
  <g id="axes_1">
   <g id="patch_2">
    <path d="M 58.923594 441.961094 
L 481.763594 441.961094 
L 481.763594 32.837812 
L 58.923594 32.837812 
z
" style="fill: #ffffff"/>
   </g>
   <g id="matplotlib.axis_1">
    <g id="xtick_1">
     <g id="line2d_1">
      <path d="M 78.143594 441.961094 
L 78.143594 32.837812 
" clip-path="url(#p12e43866b4)" style="fill: none; stroke-dasharray: 0.8,1.32; stroke-dashoffset: 0; stroke: #d3d3d3; stroke-width: 0.8"/>
     </g>
     <g id="line2d_2">
      <defs>
       <path id="m98835207c8" d="M 0 0 
L 0 3.5 
" style="stroke: #000000; stroke-width: 0.8"/>
      </defs>
      <g>
       <use xlink:href="#m98835207c8" x="78.143594" y="441.961094" style="stroke: #000000; stroke-width: 0.8"/>
      </g>
     </g>
     <g id="text_1">
      <!-- 440 -->
      <g transform="translate(64.782344 459.597812) scale(0.14 -0.14)">
       <defs>
        <path id="DejaVuSerif-17" d="M 2234 1581 
L 2234 4063 
L 641 1581 
L 2234 1581 
z
M 3609 0 
L 1484 0 
L 1484 331 
L 2234 331 
L 2234 1247 
L 197 1247 
L 197 1588 
L 2241 4750 
L 2859 4750 
L 2859 1581 
L 3750 1581 
L 3750 1247 
L 2859 1247 
L 2859 331 
L 3609 331 
L 3609 0 
z
" transform="scale(0.015625)"/>
        <path id="DejaVuSerif-13" d="M 2034 219 
Q 2513 219 2750 744 
Q 2988 1269 2988 2328 
Q 2988 3391 2750 3916 
Q 2513 4441 2034 4441 
Q 1556 4441 1318 3916 
Q 1081 3391 1081 2328 
Q 1081 1269 1318 744 
Q 1556 219 2034 219 
z
M 2034 -91 
Q 1275 -91 848 546 
Q 422 1184 422 2328 
Q 422 3475 848 4112 
Q 1275 4750 2034 4750 
Q 2797 4750 3222 4112 
Q 3647 3475 3647 2328 
Q 3647 1184 3222 546 
Q 2797 -91 2034 -91 
z
" transform="scale(0.015625)"/>
       </defs>
       <use xlink:href="#DejaVuSerif-17"/>
       <use xlink:href="#DejaVuSerif-17" transform="translate(63.625 0)"/>
       <use xlink:href="#DejaVuSerif-13" transform="translate(127.25 0)"/>
      </g>
     </g>
    </g>
    <g id="xtick_2">
     <g id="line2d_3">
      <path d="M 133.057879 441.961094 
L 133.057879 32.837812 
" clip-path="url(#p12e43866b4)" style="fill: none; stroke-dasharray: 0.8,1.32; stroke-dashoffset: 0; stroke: #d3d3d3; stroke-width: 0.8"/>
     </g>
     <g id="line2d_4">
      <g>
       <use xlink:href="#m98835207c8" x="133.057879" y="441.961094" style="stroke: #000000; stroke-width: 0.8"/>
      </g>
     </g>
     <g id="text_2">
      <!-- 460 -->
      <g transform="translate(119.696629 459.597812) scale(0.14 -0.14)">
       <defs>
        <path id="DejaVuSerif-19" d="M 2094 219 
Q 2534 219 2771 542 
Q 3009 866 3009 1472 
Q 3009 2078 2771 2401 
Q 2534 2725 2094 2725 
Q 1647 2725 1412 2412 
Q 1178 2100 1178 1509 
Q 1178 888 1415 553 
Q 1653 219 2094 219 
z
M 1075 2569 
Q 1288 2803 1556 2918 
Q 1825 3034 2163 3034 
Q 2859 3034 3264 2615 
Q 3669 2197 3669 1472 
Q 3669 763 3233 336 
Q 2797 -91 2069 -91 
Q 1278 -91 853 498 
Q 428 1088 428 2181 
Q 428 3406 931 4078 
Q 1434 4750 2350 4750 
Q 2597 4750 2869 4703 
Q 3141 4656 3425 4563 
L 3425 3794 
L 3072 3794 
Q 3034 4109 2831 4275 
Q 2628 4441 2284 4441 
Q 1678 4441 1381 3981 
Q 1084 3522 1075 2569 
z
" transform="scale(0.015625)"/>
       </defs>
       <use xlink:href="#DejaVuSerif-17"/>
       <use xlink:href="#DejaVuSerif-19" transform="translate(63.625 0)"/>
       <use xlink:href="#DejaVuSerif-13" transform="translate(127.25 0)"/>
      </g>
     </g>
    </g>
    <g id="xtick_3">
     <g id="line2d_5">
      <path d="M 187.972165 441.961094 
L 187.972165 32.837812 
" clip-path="url(#p12e43866b4)" style="fill: none; stroke-dasharray: 0.8,1.32; stroke-dashoffset: 0; stroke: #d3d3d3; stroke-width: 0.8"/>
     </g>
     <g id="line2d_6">
      <g>
       <use xlink:href="#m98835207c8" x="187.972165" y="441.961094" style="stroke: #000000; stroke-width: 0.8"/>
      </g>
     </g>
     <g id="text_3">
      <!-- 480 -->
      <g transform="translate(174.610915 459.597812) scale(0.14 -0.14)">
       <defs>
        <path id="DejaVuSerif-1b" d="M 2981 1275 
Q 2981 1775 2732 2051 
Q 2484 2328 2034 2328 
Q 1584 2328 1336 2051 
Q 1088 1775 1088 1275 
Q 1088 772 1336 495 
Q 1584 219 2034 219 
Q 2484 219 2732 495 
Q 2981 772 2981 1275 
z
M 2853 3541 
Q 2853 3966 2637 4203 
Q 2422 4441 2034 4441 
Q 1650 4441 1433 4203 
Q 1216 3966 1216 3541 
Q 1216 3113 1433 2875 
Q 1650 2638 2034 2638 
Q 2422 2638 2637 2875 
Q 2853 3113 2853 3541 
z
M 2516 2484 
Q 3047 2413 3344 2092 
Q 3641 1772 3641 1275 
Q 3641 619 3225 264 
Q 2809 -91 2034 -91 
Q 1263 -91 845 264 
Q 428 619 428 1275 
Q 428 1772 725 2092 
Q 1022 2413 1556 2484 
Q 1084 2569 832 2842 
Q 581 3116 581 3541 
Q 581 4103 968 4426 
Q 1356 4750 2034 4750 
Q 2713 4750 3100 4426 
Q 3488 4103 3488 3541 
Q 3488 3116 3236 2842 
Q 2984 2569 2516 2484 
z
" transform="scale(0.015625)"/>
       </defs>
       <use xlink:href="#DejaVuSerif-17"/>
       <use xlink:href="#DejaVuSerif-1b" transform="translate(63.625 0)"/>
       <use xlink:href="#DejaVuSerif-13" transform="translate(127.25 0)"/>
      </g>
     </g>
    </g>
    <g id="xtick_4">
     <g id="line2d_7">
      <path d="M 242.886451 441.961094 
L 242.886451 32.837812 
" clip-path="url(#p12e43866b4)" style="fill: none; stroke-dasharray: 0.8,1.32; stroke-dashoffset: 0; stroke: #d3d3d3; stroke-width: 0.8"/>
     </g>
     <g id="line2d_8">
      <g>
       <use xlink:href="#m98835207c8" x="242.886451" y="441.961094" style="stroke: #000000; stroke-width: 0.8"/>
      </g>
     </g>
     <g id="text_4">
      <!-- 500 -->
      <g transform="translate(229.525201 459.597812) scale(0.14 -0.14)">
       <defs>
        <path id="DejaVuSerif-18" d="M 3219 4666 
L 3219 4153 
L 1081 4153 
L 1081 2816 
Q 1244 2928 1461 2984 
Q 1678 3041 1947 3041 
Q 2703 3041 3140 2622 
Q 3578 2203 3578 1478 
Q 3578 738 3136 323 
Q 2694 -91 1894 -91 
Q 1572 -91 1234 -12 
Q 897 66 544 225 
L 544 1131 
L 897 1131 
Q 925 688 1179 453 
Q 1434 219 1894 219 
Q 2388 219 2653 544 
Q 2919 869 2919 1478 
Q 2919 2084 2655 2407 
Q 2391 2731 1894 2731 
Q 1613 2731 1398 2631 
Q 1184 2531 1019 2322 
L 750 2322 
L 750 4666 
L 3219 4666 
z
" transform="scale(0.015625)"/>
       </defs>
       <use xlink:href="#DejaVuSerif-18"/>
       <use xlink:href="#DejaVuSerif-13" transform="translate(63.625 0)"/>
       <use xlink:href="#DejaVuSerif-13" transform="translate(127.25 0)"/>
      </g>
     </g>
    </g>
    <g id="xtick_5">
     <g id="line2d_9">
      <path d="M 297.800737 441.961094 
L 297.800737 32.837812 
" clip-path="url(#p12e43866b4)" style="fill: none; stroke-dasharray: 0.8,1.32; stroke-dashoffset: 0; stroke: #d3d3d3; stroke-width: 0.8"/>
     </g>
     <g id="line2d_10">
      <g>
       <use xlink:href="#m98835207c8" x="297.800737" y="441.961094" style="stroke: #000000; stroke-width: 0.8"/>
      </g>
     </g>
     <g id="text_5">
      <!-- 520 -->
      <g transform="translate(284.439487 459.597812) scale(0.14 -0.14)">
       <defs>
        <path id="DejaVuSerif-15" d="M 819 3553 
L 469 3553 
L 469 4384 
Q 803 4563 1142 4656 
Q 1481 4750 1806 4750 
Q 2534 4750 2956 4397 
Q 3378 4044 3378 3438 
Q 3378 2753 2422 1800 
Q 2347 1728 2309 1691 
L 1131 513 
L 3078 513 
L 3078 1088 
L 3444 1088 
L 3444 0 
L 434 0 
L 434 341 
L 1850 1753 
Q 2319 2222 2519 2614 
Q 2719 3006 2719 3438 
Q 2719 3909 2473 4175 
Q 2228 4441 1797 4441 
Q 1350 4441 1106 4219 
Q 863 3997 819 3553 
z
" transform="scale(0.015625)"/>
       </defs>
       <use xlink:href="#DejaVuSerif-18"/>
       <use xlink:href="#DejaVuSerif-15" transform="translate(63.625 0)"/>
       <use xlink:href="#DejaVuSerif-13" transform="translate(127.25 0)"/>
      </g>
     </g>
    </g>
    <g id="xtick_6">
     <g id="line2d_11">
      <path d="M 352.715022 441.961094 
L 352.715022 32.837812 
" clip-path="url(#p12e43866b4)" style="fill: none; stroke-dasharray: 0.8,1.32; stroke-dashoffset: 0; stroke: #d3d3d3; stroke-width: 0.8"/>
     </g>
     <g id="line2d_12">
      <g>
       <use xlink:href="#m98835207c8" x="352.715022" y="441.961094" style="stroke: #000000; stroke-width: 0.8"/>
      </g>
     </g>
     <g id="text_6">
      <!-- 540 -->
      <g transform="translate(339.353772 459.597812) scale(0.14 -0.14)">
       <use xlink:href="#DejaVuSerif-18"/>
       <use xlink:href="#DejaVuSerif-17" transform="translate(63.625 0)"/>
       <use xlink:href="#DejaVuSerif-13" transform="translate(127.25 0)"/>
      </g>
     </g>
    </g>
    <g id="xtick_7">
     <g id="line2d_13">
      <path d="M 407.629308 441.961094 
L 407.629308 32.837812 
" clip-path="url(#p12e43866b4)" style="fill: none; stroke-dasharray: 0.8,1.32; stroke-dashoffset: 0; stroke: #d3d3d3; stroke-width: 0.8"/>
     </g>
     <g id="line2d_14">
      <g>
       <use xlink:href="#m98835207c8" x="407.629308" y="441.961094" style="stroke: #000000; stroke-width: 0.8"/>
      </g>
     </g>
     <g id="text_7">
      <!-- 560 -->
      <g transform="translate(394.268058 459.597812) scale(0.14 -0.14)">
       <use xlink:href="#DejaVuSerif-18"/>
       <use xlink:href="#DejaVuSerif-19" transform="translate(63.625 0)"/>
       <use xlink:href="#DejaVuSerif-13" transform="translate(127.25 0)"/>
      </g>
     </g>
    </g>
    <g id="xtick_8">
     <g id="line2d_15">
      <path d="M 462.543594 441.961094 
L 462.543594 32.837812 
" clip-path="url(#p12e43866b4)" style="fill: none; stroke-dasharray: 0.8,1.32; stroke-dashoffset: 0; stroke: #d3d3d3; stroke-width: 0.8"/>
     </g>
     <g id="line2d_16">
      <g>
       <use xlink:href="#m98835207c8" x="462.543594" y="441.961094" style="stroke: #000000; stroke-width: 0.8"/>
      </g>
     </g>
     <g id="text_8">
      <!-- 580 -->
      <g transform="translate(449.182344 459.597812) scale(0.14 -0.14)">
       <use xlink:href="#DejaVuSerif-18"/>
       <use xlink:href="#DejaVuSerif-1b" transform="translate(63.625 0)"/>
       <use xlink:href="#DejaVuSerif-13" transform="translate(127.25 0)"/>
      </g>
     </g>
    </g>
    <g id="text_9">
     <!-- Position X -->
     <g transform="translate(230.479687 477.598906) scale(0.14 -0.14)">
      <defs>
       <path id="DejaVuSerif-Bold-33" d="M 300 0 
L 300 378 
L 897 378 
L 897 4288 
L 300 4288 
L 300 4666 
L 2956 4666 
Q 3734 4666 4193 4295 
Q 4653 3925 4653 3303 
Q 4653 2678 4192 2304 
Q 3731 1931 2956 1931 
L 2100 1931 
L 2100 378 
L 2853 378 
L 2853 0 
L 300 0 
z
M 2100 2309 
L 2450 2309 
Q 2856 2309 3098 2579 
Q 3341 2850 3341 3303 
Q 3341 3753 3100 4020 
Q 2859 4288 2450 4288 
L 2100 4288 
L 2100 2309 
z
" transform="scale(0.015625)"/>
       <path id="DejaVuSerif-Bold-52" d="M 2138 263 
Q 2488 263 2630 563 
Q 2772 863 2772 1663 
Q 2772 2463 2631 2761 
Q 2491 3059 2138 3059 
Q 1784 3059 1640 2757 
Q 1497 2456 1497 1663 
Q 1497 869 1640 566 
Q 1784 263 2138 263 
z
M 2138 -91 
Q 1259 -91 761 376 
Q 263 844 263 1663 
Q 263 2484 761 2948 
Q 1259 3413 2138 3413 
Q 3019 3413 3516 2948 
Q 4013 2484 4013 1663 
Q 4013 844 3514 376 
Q 3016 -91 2138 -91 
z
" transform="scale(0.015625)"/>
       <path id="DejaVuSerif-Bold-56" d="M 300 97 
L 300 1025 
L 653 1025 
Q 697 653 931 458 
Q 1166 263 1569 263 
Q 1906 263 2086 380 
Q 2266 497 2266 716 
Q 2266 916 2152 1025 
Q 2038 1134 1709 1216 
L 1253 1331 
Q 738 1459 506 1698 
Q 275 1938 275 2344 
Q 275 2884 650 3148 
Q 1025 3413 1806 3413 
Q 2100 3413 2433 3364 
Q 2766 3316 3169 3213 
L 3169 2375 
L 2816 2375 
Q 2788 2716 2573 2887 
Q 2359 3059 1959 3059 
Q 1622 3059 1448 2951 
Q 1275 2844 1275 2638 
Q 1275 2469 1375 2372 
Q 1475 2275 1734 2209 
L 2188 2094 
Q 2841 1928 3091 1684 
Q 3341 1441 3341 1006 
Q 3341 444 2939 176 
Q 2538 -91 1691 -91 
Q 1381 -91 1034 -44 
Q 688 3 300 97 
z
" transform="scale(0.015625)"/>
       <path id="DejaVuSerif-Bold-4c" d="M 588 4263 
Q 588 4516 763 4689 
Q 938 4863 1191 4863 
Q 1438 4863 1611 4689 
Q 1784 4516 1784 4263 
Q 1784 4016 1611 3842 
Q 1438 3669 1191 3669 
Q 938 3669 763 3841 
Q 588 4013 588 4263 
z
M 1797 378 
L 2272 378 
L 2272 0 
L 219 0 
L 219 378 
L 691 378 
L 691 2944 
L 219 2944 
L 219 3322 
L 1797 3322 
L 1797 378 
z
" transform="scale(0.015625)"/>
       <path id="DejaVuSerif-Bold-57" d="M 634 2944 
L 153 2944 
L 153 3322 
L 634 3322 
L 634 4353 
L 1741 4353 
L 1741 3322 
L 2663 3322 
L 2663 2944 
L 1741 2944 
L 1741 909 
Q 1741 475 1809 369 
Q 1878 263 2059 263 
Q 2259 263 2356 397 
Q 2453 531 2459 813 
L 2925 813 
Q 2897 313 2651 111 
Q 2406 -91 1806 -91 
Q 1122 -91 878 123 
Q 634 338 634 909 
L 634 2944 
z
" transform="scale(0.015625)"/>
       <path id="DejaVuSerif-Bold-51" d="M 219 0 
L 219 378 
L 691 378 
L 691 2944 
L 219 2944 
L 219 3322 
L 1797 3322 
L 1797 2853 
Q 1997 3150 2253 3281 
Q 2509 3413 2900 3413 
Q 3459 3413 3745 3083 
Q 4031 2753 4031 2113 
L 4031 378 
L 4506 378 
L 4506 0 
L 2522 0 
L 2522 378 
L 2925 378 
L 2925 2144 
Q 2925 2566 2817 2730 
Q 2709 2894 2444 2894 
Q 2109 2894 1953 2648 
Q 1797 2403 1797 1869 
L 1797 378 
L 2203 378 
L 2203 0 
L 219 0 
z
" transform="scale(0.015625)"/>
       <path id="DejaVuSerif-Bold-3" transform="scale(0.015625)"/>
       <path id="DejaVuSerif-Bold-3b" d="M 2169 1797 
L 1197 378 
L 1772 378 
L 1772 0 
L 116 0 
L 116 378 
L 691 378 
L 1919 2163 
L 459 4288 
L 31 4288 
L 31 4666 
L 2350 4666 
L 2350 4288 
L 1838 4288 
L 2741 2975 
L 3634 4288 
L 3091 4288 
L 3091 4666 
L 4716 4666 
L 4716 4288 
L 4141 4288 
L 2988 2613 
L 4519 378 
L 4959 378 
L 4959 0 
L 2631 0 
L 2631 378 
L 3150 378 
L 2169 1797 
z
" transform="scale(0.015625)"/>
      </defs>
      <use xlink:href="#DejaVuSerif-Bold-33"/>
      <use xlink:href="#DejaVuSerif-Bold-52" transform="translate(72.515625 0)"/>
      <use xlink:href="#DejaVuSerif-Bold-56" transform="translate(139.21875 0)"/>
      <use xlink:href="#DejaVuSerif-Bold-4c" transform="translate(195.515625 0)"/>
      <use xlink:href="#DejaVuSerif-Bold-57" transform="translate(233.5 0)"/>
      <use xlink:href="#DejaVuSerif-Bold-4c" transform="translate(279.6875 0)"/>
      <use xlink:href="#DejaVuSerif-Bold-52" transform="translate(317.671875 0)"/>
      <use xlink:href="#DejaVuSerif-Bold-51" transform="translate(384.375 0)"/>
      <use xlink:href="#DejaVuSerif-Bold-3" transform="translate(457.078125 0)"/>
      <use xlink:href="#DejaVuSerif-Bold-3b" transform="translate(491.890625 0)"/>
     </g>
    </g>
   </g>
   <g id="matplotlib.axis_2">
    <g id="ytick_1">
     <g id="line2d_17">
      <path d="M 58.923594 429.599453 
L 481.763594 429.599453 
" clip-path="url(#p12e43866b4)" style="fill: none; stroke-dasharray: 0.8,1.32; stroke-dashoffset: 0; stroke: #d3d3d3; stroke-width: 0.8"/>
     </g>
     <g id="line2d_18">
      <defs>
       <path id="mf613928df3" d="M 0 0 
L -3.5 0 
" style="stroke: #000000; stroke-width: 0.8"/>
      </defs>
      <g>
       <use xlink:href="#mf613928df3" x="58.923594" y="429.599453" style="stroke: #000000; stroke-width: 0.8"/>
      </g>
     </g>
     <g id="text_10">
      <!-- 440 -->
      <g transform="translate(25.201094 434.917812) scale(0.14 -0.14)">
       <use xlink:href="#DejaVuSerif-17"/>
       <use xlink:href="#DejaVuSerif-17" transform="translate(63.625 0)"/>
       <use xlink:href="#DejaVuSerif-13" transform="translate(127.25 0)"/>
      </g>
     </g>
    </g>
    <g id="ytick_2">
     <g id="line2d_19">
      <path d="M 58.923594 374.685167 
L 481.763594 374.685167 
" clip-path="url(#p12e43866b4)" style="fill: none; stroke-dasharray: 0.8,1.32; stroke-dashoffset: 0; stroke: #d3d3d3; stroke-width: 0.8"/>
     </g>
     <g id="line2d_20">
      <g>
       <use xlink:href="#mf613928df3" x="58.923594" y="374.685167" style="stroke: #000000; stroke-width: 0.8"/>
      </g>
     </g>
     <g id="text_11">
      <!-- 460 -->
      <g transform="translate(25.201094 380.003527) scale(0.14 -0.14)">
       <use xlink:href="#DejaVuSerif-17"/>
       <use xlink:href="#DejaVuSerif-19" transform="translate(63.625 0)"/>
       <use xlink:href="#DejaVuSerif-13" transform="translate(127.25 0)"/>
      </g>
     </g>
    </g>
    <g id="ytick_3">
     <g id="line2d_21">
      <path d="M 58.923594 319.770882 
L 481.763594 319.770882 
" clip-path="url(#p12e43866b4)" style="fill: none; stroke-dasharray: 0.8,1.32; stroke-dashoffset: 0; stroke: #d3d3d3; stroke-width: 0.8"/>
     </g>
     <g id="line2d_22">
      <g>
       <use xlink:href="#mf613928df3" x="58.923594" y="319.770882" style="stroke: #000000; stroke-width: 0.8"/>
      </g>
     </g>
     <g id="text_12">
      <!-- 480 -->
      <g transform="translate(25.201094 325.089241) scale(0.14 -0.14)">
       <use xlink:href="#DejaVuSerif-17"/>
       <use xlink:href="#DejaVuSerif-1b" transform="translate(63.625 0)"/>
       <use xlink:href="#DejaVuSerif-13" transform="translate(127.25 0)"/>
      </g>
     </g>
    </g>
    <g id="ytick_4">
     <g id="line2d_23">
      <path d="M 58.923594 264.856596 
L 481.763594 264.856596 
" clip-path="url(#p12e43866b4)" style="fill: none; stroke-dasharray: 0.8,1.32; stroke-dashoffset: 0; stroke: #d3d3d3; stroke-width: 0.8"/>
     </g>
     <g id="line2d_24">
      <g>
       <use xlink:href="#mf613928df3" x="58.923594" y="264.856596" style="stroke: #000000; stroke-width: 0.8"/>
      </g>
     </g>
     <g id="text_13">
      <!-- 500 -->
      <g transform="translate(25.201094 270.174955) scale(0.14 -0.14)">
       <use xlink:href="#DejaVuSerif-18"/>
       <use xlink:href="#DejaVuSerif-13" transform="translate(63.625 0)"/>
       <use xlink:href="#DejaVuSerif-13" transform="translate(127.25 0)"/>
      </g>
     </g>
    </g>
    <g id="ytick_5">
     <g id="line2d_25">
      <path d="M 58.923594 209.94231 
L 481.763594 209.94231 
" clip-path="url(#p12e43866b4)" style="fill: none; stroke-dasharray: 0.8,1.32; stroke-dashoffset: 0; stroke: #d3d3d3; stroke-width: 0.8"/>
     </g>
     <g id="line2d_26">
      <g>
       <use xlink:href="#mf613928df3" x="58.923594" y="209.94231" style="stroke: #000000; stroke-width: 0.8"/>
      </g>
     </g>
     <g id="text_14">
      <!-- 520 -->
      <g transform="translate(25.201094 215.26067) scale(0.14 -0.14)">
       <use xlink:href="#DejaVuSerif-18"/>
       <use xlink:href="#DejaVuSerif-15" transform="translate(63.625 0)"/>
       <use xlink:href="#DejaVuSerif-13" transform="translate(127.25 0)"/>
      </g>
     </g>
    </g>
    <g id="ytick_6">
     <g id="line2d_27">
      <path d="M 58.923594 155.028025 
L 481.763594 155.028025 
" clip-path="url(#p12e43866b4)" style="fill: none; stroke-dasharray: 0.8,1.32; stroke-dashoffset: 0; stroke: #d3d3d3; stroke-width: 0.8"/>
     </g>
     <g id="line2d_28">
      <g>
       <use xlink:href="#mf613928df3" x="58.923594" y="155.028025" style="stroke: #000000; stroke-width: 0.8"/>
      </g>
     </g>
     <g id="text_15">
      <!-- 540 -->
      <g transform="translate(25.201094 160.346384) scale(0.14 -0.14)">
       <use xlink:href="#DejaVuSerif-18"/>
       <use xlink:href="#DejaVuSerif-17" transform="translate(63.625 0)"/>
       <use xlink:href="#DejaVuSerif-13" transform="translate(127.25 0)"/>
      </g>
     </g>
    </g>
    <g id="ytick_7">
     <g id="line2d_29">
      <path d="M 58.923594 100.113739 
L 481.763594 100.113739 
" clip-path="url(#p12e43866b4)" style="fill: none; stroke-dasharray: 0.8,1.32; stroke-dashoffset: 0; stroke: #d3d3d3; stroke-width: 0.8"/>
     </g>
     <g id="line2d_30">
      <g>
       <use xlink:href="#mf613928df3" x="58.923594" y="100.113739" style="stroke: #000000; stroke-width: 0.8"/>
      </g>
     </g>
     <g id="text_16">
      <!-- 560 -->
      <g transform="translate(25.201094 105.432098) scale(0.14 -0.14)">
       <use xlink:href="#DejaVuSerif-18"/>
       <use xlink:href="#DejaVuSerif-19" transform="translate(63.625 0)"/>
       <use xlink:href="#DejaVuSerif-13" transform="translate(127.25 0)"/>
      </g>
     </g>
    </g>
    <g id="ytick_8">
     <g id="line2d_31">
      <path d="M 58.923594 45.199453 
L 481.763594 45.199453 
" clip-path="url(#p12e43866b4)" style="fill: none; stroke-dasharray: 0.8,1.32; stroke-dashoffset: 0; stroke: #d3d3d3; stroke-width: 0.8"/>
     </g>
     <g id="line2d_32">
      <g>
       <use xlink:href="#mf613928df3" x="58.923594" y="45.199453" style="stroke: #000000; stroke-width: 0.8"/>
      </g>
     </g>
     <g id="text_17">
      <!-- 580 -->
      <g transform="translate(25.201094 50.517813) scale(0.14 -0.14)">
       <use xlink:href="#DejaVuSerif-18"/>
       <use xlink:href="#DejaVuSerif-1b" transform="translate(63.625 0)"/>
       <use xlink:href="#DejaVuSerif-13" transform="translate(127.25 0)"/>
      </g>
     </g>
    </g>
    <g id="text_18">
     <!-- Position Y -->
     <g transform="translate(17.837813 276.829141) rotate(-90) scale(0.14 -0.14)">
      <defs>
       <path id="DejaVuSerif-Bold-3c" d="M 1100 0 
L 1100 378 
L 1728 378 
L 1728 1931 
L 341 4288 
L -56 4288 
L -56 4666 
L 2181 4666 
L 2181 4288 
L 1663 4288 
L 2713 2509 
L 3756 4288 
L 3291 4288 
L 3291 4666 
L 4628 4666 
L 4628 4288 
L 4231 4288 
L 2938 2094 
L 2938 378 
L 3566 378 
L 3566 0 
L 1100 0 
z
" transform="scale(0.015625)"/>
      </defs>
      <use xlink:href="#DejaVuSerif-Bold-33"/>
      <use xlink:href="#DejaVuSerif-Bold-52" transform="translate(72.515625 0)"/>
      <use xlink:href="#DejaVuSerif-Bold-56" transform="translate(139.21875 0)"/>
      <use xlink:href="#DejaVuSerif-Bold-4c" transform="translate(195.515625 0)"/>
      <use xlink:href="#DejaVuSerif-Bold-57" transform="translate(233.5 0)"/>
      <use xlink:href="#DejaVuSerif-Bold-4c" transform="translate(279.6875 0)"/>
      <use xlink:href="#DejaVuSerif-Bold-52" transform="translate(317.671875 0)"/>
      <use xlink:href="#DejaVuSerif-Bold-51" transform="translate(384.375 0)"/>
      <use xlink:href="#DejaVuSerif-Bold-3" transform="translate(457.078125 0)"/>
      <use xlink:href="#DejaVuSerif-Bold-3c" transform="translate(491.890625 0)"/>
     </g>
    </g>
   </g>
   <g id="line2d_33">
    <path d="M 78.143594 429.599453 
L 462.543594 45.199453 
" clip-path="url(#p12e43866b4)" style="fill: none; stroke-dasharray: 7.4,3.2; stroke-dashoffset: 0; stroke: #888888; stroke-width: 2"/>
   </g>
   <g id="line2d_34">
    <path d="M 275.835022 319.743425 
L 275.831508 318.369195 
L 275.804929 316.995239 
L 275.751278 315.625238 
L 275.662591 314.255291 
L 275.539995 312.88949 
L 275.383352 311.525502 
L 275.193349 310.165412 
L 274.969299 308.810979 
L 274.711201 307.462339 
L 274.420101 306.120838 
L 274.093553 304.787189 
L 273.735759 303.461751 
L 273.339772 302.147048 
L 272.918964 300.840637 
L 272.482395 299.538592 
L 272.020786 298.245415 
L 271.51703 296.968081 
L 270.988699 295.700632 
L 270.417344 294.452376 
L 269.829102 293.211862 
L 269.216094 291.9831 
L 268.582218 290.764991 
L 267.910177 289.567695 
L 267.207439 288.387971 
L 266.487293 287.218654 
L 265.734583 286.070259 
L 264.959742 284.936471 
L 264.158323 283.821519 
L 263.3454 282.715271 
L 262.498923 281.634009 
L 261.611124 280.586464 
L 260.705862 279.5538 
L 259.761611 278.556941 
L 258.789436 277.586771 
L 257.802544 276.632058 
L 256.779079 275.716171 
L 255.734115 274.825571 
L 254.670617 273.956717 
L 253.570025 273.135199 
L 252.453288 272.335592 
L 251.318265 271.562729 
L 250.160562 270.824296 
L 248.988471 270.108049 
L 247.806908 269.409045 
L 246.614966 268.726955 
L 245.398972 268.08789 
L 244.169304 267.47738 
L 242.931288 266.882027 
L 241.684871 266.305784 
L 240.437191 265.771605 
L 239.172104 265.278063 
L 237.897268 264.810084 
L 236.615157 264.36374 
L 235.32577 263.937798 
L 234.02205 263.556061 
L 232.711932 263.199173 
L 231.390859 262.885283 
L 230.06424 262.596461 
L 228.729356 262.349704 
L 227.38953 262.129278 
L 226.044789 261.932575 
L 224.699279 261.750644 
L 223.348497 261.609899 
L 221.995217 261.496391 
L 220.639026 261.423025 
L 219.281545 261.377446 
L 217.924146 261.371406 
L 216.56672 261.394031 
L 215.209266 261.455946 
L 213.854751 261.546802 
L 212.503008 261.67607 
L 211.153956 261.835487 
L 209.810478 262.032464 
L 208.470158 262.257338 
L 207.135109 262.504535 
L 205.804316 262.777267 
L 204.481404 263.084375 
L 203.166866 263.426436 
L 201.861086 263.799716 
L 200.566757 264.211216 
L 199.281817 264.650887 
L 198.011265 265.130508 
L 196.748292 265.630009 
L 195.501353 266.168608 
L 194.264574 266.729777 
L 193.048057 267.334768 
L 191.842524 267.960681 
L 190.64704 268.60521 
L 189.468195 269.279832 
L 188.316752 269.999868 
L 187.202267 270.776631 
L 186.103157 271.574672 
L 185.034306 272.413433 
L 183.985992 273.276741 
L 182.948222 274.153475 
L 181.931594 275.054398 
L 180.930396 275.972895 
L 179.944575 276.907481 
L 178.975448 277.859283 
L 178.024387 278.829811 
L 177.090076 279.815989 
L 176.173666 280.818586 
L 175.274884 281.837082 
L 174.39307 282.870568 
L 173.535199 283.923577 
L 172.690261 284.987075 
L 171.868002 286.068172 
L 171.086462 287.179088 
L 170.322522 288.302415 
L 169.595539 289.449684 
L 168.907188 290.620622 
L 168.235257 291.801663 
L 167.581008 292.99237 
L 166.947023 294.193729 
L 166.357298 295.417577 
L 165.791681 296.652187 
L 165.243142 297.895172 
L 164.713878 299.146257 
L 164.218222 300.411042 
L 163.760566 301.690079 
" clip-path="url(#p12e43866b4)" style="fill: none; stroke: #0072b2; stroke-width: 2.5; stroke-linecap: square"/>
   </g>
   <g id="line2d_35">
    <path d="M 133.085337 231.908025 
L 134.459567 231.911539 
L 135.833522 231.938118 
L 137.203524 231.991769 
L 138.57347 232.080455 
L 139.939271 232.203052 
L 141.303259 232.359695 
L 142.663349 232.549698 
L 144.017782 232.773748 
L 145.366422 233.031845 
L 146.707923 233.322946 
L 148.041572 233.649494 
L 149.36701 234.007288 
L 150.681713 234.403275 
L 151.988124 234.824083 
L 153.290169 235.260652 
L 154.583346 235.722261 
L 155.86068 236.226017 
L 157.128129 236.754348 
L 158.376385 237.325703 
L 159.616899 237.913945 
L 160.845661 238.526953 
L 162.06377 239.160829 
L 163.261066 239.83287 
L 164.44079 240.535608 
L 165.610107 241.255754 
L 166.758502 242.008464 
L 167.89229 242.783305 
L 169.007242 243.584724 
L 170.11349 244.397647 
L 171.194753 245.244124 
L 172.242298 246.131923 
L 173.274961 247.037185 
L 174.27182 247.981436 
L 175.24199 248.953611 
L 176.196703 249.940503 
L 177.112591 250.963968 
L 178.00319 252.008932 
L 178.872044 253.07243 
L 179.693562 254.173022 
L 180.493169 255.289759 
L 181.266033 256.424782 
L 182.004465 257.582485 
L 182.720712 258.754575 
L 183.419716 259.936139 
L 184.101806 261.128081 
L 184.740871 262.344075 
L 185.351381 263.573743 
L 185.946734 264.811758 
L 186.522977 266.058175 
L 187.06888 267.318348 
L 187.573487 268.595765 
L 188.052779 269.88323 
L 188.512632 271.177834 
L 188.950518 272.479632 
L 189.344281 273.796093 
L 189.713278 275.118978 
L 190.038754 276.45312 
L 190.339136 277.793303 
L 190.596958 279.142383 
L 190.83309 280.495635 
L 191.051703 281.851744 
L 191.250273 283.21068 
L 191.406148 284.575163 
L 191.536459 285.942144 
L 191.624789 287.312146 
L 191.68643 288.684261 
L 191.706611 290.058464 
L 191.700516 291.432639 
L 191.652246 292.806869 
L 191.578167 294.177365 
L 191.46205 295.545719 
L 191.320179 296.91152 
L 191.136683 298.2729 
L 190.927268 299.630079 
L 190.675815 300.980861 
L 190.401299 302.327029 
L 190.090484 303.66562 
L 189.754683 304.997154 
L 189.378712 306.318309 
L 188.9749 307.63153 
L 188.532291 308.931735 
L 188.059644 310.221013 
L 187.565854 311.502822 
L 187.058117 312.779305 
L 186.519957 314.043047 
L 185.941874 315.289876 
L 185.338311 316.5238 
L 184.70158 317.741607 
L 184.045904 318.94887 
L 183.346405 320.130927 
L 182.621921 321.298432 
L 181.874208 322.450479 
L 181.113481 323.595003 
L 180.326339 324.720855 
L 179.494772 325.814583 
L 178.645715 326.894637 
L 177.762501 327.94707 
L 176.847629 328.972155 
L 175.921637 329.98741 
L 174.969149 330.976471 
L 173.997495 331.948207 
L 173.013514 332.906791 
L 172.003146 333.83756 
L 170.97861 334.752982 
L 169.940181 335.652642 
L 168.870643 336.51562 
L 167.787541 337.360614 
L 166.686015 338.181775 
L 165.550882 338.956121 
L 164.403503 339.711412 
L 163.238496 340.43974 
L 162.056466 341.139897 
L 160.857221 341.811087 
L 159.645674 342.459488 
L 158.422788 343.086005 
L 157.17843 343.667849 
L 155.922431 344.225476 
L 154.651055 344.745075 
L 153.371635 345.246662 
L 152.077113 345.707942 
" clip-path="url(#p12e43866b4)" style="fill: none; stroke: #d95f02; stroke-width: 2.5; stroke-linecap: square"/>
   </g>
   <g id="patch_3">
    <path d="M 58.923594 441.961094 
L 58.923594 32.837812 
" style="fill: none; stroke: #000000; stroke-width: 1.5; stroke-linejoin: miter; stroke-linecap: square"/>
   </g>
   <g id="patch_4">
    <path d="M 481.763594 441.961094 
L 481.763594 32.837812 
" style="fill: none; stroke: #000000; stroke-width: 1.5; stroke-linejoin: miter; stroke-linecap: square"/>
   </g>
   <g id="patch_5">
    <path d="M 58.923594 441.961094 
L 481.763594 441.961094 
" style="fill: none; stroke: #000000; stroke-width: 1.5; stroke-linejoin: miter; stroke-linecap: square"/>
   </g>
   <g id="patch_6">
    <path d="M 58.923594 32.837812 
L 481.763594 32.837812 
" style="fill: none; stroke: #000000; stroke-width: 1.5; stroke-linejoin: miter; stroke-linecap: square"/>
   </g>
   <g id="text_19">
    <!-- 3. Independent Transmission (Classical HOM Breaking) -->
    <g transform="translate(71.981094 17.837812) scale(0.14 -0.14)">
     <defs>
      <path id="DejaVuSerif-16" d="M 622 4469 
Q 988 4606 1323 4678 
Q 1659 4750 1953 4750 
Q 2638 4750 3022 4454 
Q 3406 4159 3406 3634 
Q 3406 3213 3140 2930 
Q 2875 2647 2388 2547 
Q 2963 2466 3280 2130 
Q 3597 1794 3597 1259 
Q 3597 606 3158 257 
Q 2719 -91 1894 -91 
Q 1528 -91 1179 -12 
Q 831 66 488 225 
L 488 1131 
L 838 1131 
Q 869 681 1141 450 
Q 1413 219 1906 219 
Q 2384 219 2661 495 
Q 2938 772 2938 1253 
Q 2938 1803 2653 2086 
Q 2369 2369 1819 2369 
L 1522 2369 
L 1522 2688 
L 1678 2688 
Q 2225 2688 2498 2914 
Q 2772 3141 2772 3597 
Q 2772 4006 2547 4223 
Q 2322 4441 1900 4441 
Q 1478 4441 1245 4241 
Q 1013 4041 972 3647 
L 622 3647 
L 622 4469 
z
" transform="scale(0.015625)"/>
      <path id="DejaVuSerif-11" d="M 603 325 
Q 603 500 722 622 
Q 841 744 1019 744 
Q 1191 744 1312 622 
Q 1434 500 1434 325 
Q 1434 153 1312 31 
Q 1191 -91 1019 -91 
Q 841 -91 722 29 
Q 603 150 603 325 
z
" transform="scale(0.015625)"/>
      <path id="DejaVuSerif-3" transform="scale(0.015625)"/>
      <path id="DejaVuSerif-2c" d="M 1581 331 
L 2175 331 
L 2175 0 
L 353 0 
L 353 331 
L 947 331 
L 947 4331 
L 353 4331 
L 353 4666 
L 2175 4666 
L 2175 4331 
L 1581 4331 
L 1581 331 
z
" transform="scale(0.015625)"/>
      <path id="DejaVuSerif-51" d="M 263 0 
L 263 331 
L 781 331 
L 781 2988 
L 231 2988 
L 231 3322 
L 1356 3322 
L 1356 2731 
Q 1516 3069 1770 3241 
Q 2025 3413 2363 3413 
Q 2913 3413 3172 3097 
Q 3431 2781 3431 2113 
L 3431 331 
L 3944 331 
L 3944 0 
L 2356 0 
L 2356 331 
L 2853 331 
L 2853 1931 
Q 2853 2541 2703 2767 
Q 2553 2994 2175 2994 
Q 1775 2994 1565 2701 
Q 1356 2409 1356 1850 
L 1356 331 
L 1856 331 
L 1856 0 
L 263 0 
z
" transform="scale(0.015625)"/>
      <path id="DejaVuSerif-47" d="M 3359 331 
L 3909 331 
L 3909 0 
L 2784 0 
L 2784 519 
Q 2616 206 2355 57 
Q 2094 -91 1709 -91 
Q 1097 -91 708 395 
Q 319 881 319 1663 
Q 319 2444 706 2928 
Q 1094 3413 1709 3413 
Q 2094 3413 2355 3264 
Q 2616 3116 2784 2803 
L 2784 4531 
L 2241 4531 
L 2241 4863 
L 3359 4863 
L 3359 331 
z
M 2784 1497 
L 2784 1825 
Q 2784 2422 2554 2737 
Q 2325 3053 1888 3053 
Q 1444 3053 1217 2703 
Q 991 2353 991 1663 
Q 991 975 1217 622 
Q 1444 269 1888 269 
Q 2325 269 2554 583 
Q 2784 897 2784 1497 
z
" transform="scale(0.015625)"/>
      <path id="DejaVuSerif-48" d="M 3469 1600 
L 991 1600 
L 991 1575 
Q 991 903 1244 561 
Q 1497 219 1991 219 
Q 2369 219 2611 417 
Q 2853 616 2950 1006 
L 3413 1006 
Q 3275 459 2904 184 
Q 2534 -91 1931 -91 
Q 1203 -91 761 389 
Q 319 869 319 1663 
Q 319 2450 753 2931 
Q 1188 3413 1894 3413 
Q 2647 3413 3050 2948 
Q 3453 2484 3469 1600 
z
M 2791 1931 
Q 2772 2513 2545 2808 
Q 2319 3103 1894 3103 
Q 1497 3103 1269 2806 
Q 1041 2509 991 1931 
L 2791 1931 
z
" transform="scale(0.015625)"/>
      <path id="DejaVuSerif-53" d="M 1313 1825 
L 1313 1497 
Q 1313 897 1542 583 
Q 1772 269 2209 269 
Q 2650 269 2876 622 
Q 3103 975 3103 1663 
Q 3103 2353 2876 2703 
Q 2650 3053 2209 3053 
Q 1772 3053 1542 2737 
Q 1313 2422 1313 1825 
z
M 738 2988 
L 184 2988 
L 184 3322 
L 1313 3322 
L 1313 2803 
Q 1481 3116 1742 3264 
Q 2003 3413 2388 3413 
Q 3000 3413 3387 2928 
Q 3775 2444 3775 1663 
Q 3775 881 3387 395 
Q 3000 -91 2388 -91 
Q 2003 -91 1742 57 
Q 1481 206 1313 519 
L 1313 -997 
L 1856 -997 
L 1856 -1331 
L 184 -1331 
L 184 -997 
L 738 -997 
L 738 2988 
z
" transform="scale(0.015625)"/>
      <path id="DejaVuSerif-57" d="M 691 2988 
L 184 2988 
L 184 3322 
L 691 3322 
L 691 4353 
L 1269 4353 
L 1269 3322 
L 2350 3322 
L 2350 2988 
L 1269 2988 
L 1269 878 
Q 1269 456 1350 337 
Q 1431 219 1650 219 
Q 1875 219 1978 351 
Q 2081 484 2088 781 
L 2522 781 
Q 2497 328 2275 118 
Q 2053 -91 1600 -91 
Q 1103 -91 897 129 
Q 691 350 691 878 
L 691 2988 
z
" transform="scale(0.015625)"/>
      <path id="DejaVuSerif-37" d="M 1222 0 
L 1222 331 
L 1819 331 
L 1819 4294 
L 447 4294 
L 447 3566 
L 63 3566 
L 63 4666 
L 4206 4666 
L 4206 3566 
L 3822 3566 
L 3822 4294 
L 2450 4294 
L 2450 331 
L 3047 331 
L 3047 0 
L 1222 0 
z
" transform="scale(0.015625)"/>
      <path id="DejaVuSerif-55" d="M 3059 3328 
L 3059 2497 
L 2728 2497 
Q 2713 2744 2591 2866 
Q 2469 2988 2234 2988 
Q 1809 2988 1582 2694 
Q 1356 2400 1356 1850 
L 1356 331 
L 2022 331 
L 2022 0 
L 263 0 
L 263 331 
L 781 331 
L 781 2994 
L 231 2994 
L 231 3322 
L 1356 3322 
L 1356 2731 
Q 1525 3078 1790 3245 
Q 2056 3413 2438 3413 
Q 2578 3413 2733 3391 
Q 2888 3369 3059 3328 
z
" transform="scale(0.015625)"/>
      <path id="DejaVuSerif-44" d="M 2547 1044 
L 2547 1747 
L 1806 1747 
Q 1378 1747 1168 1562 
Q 959 1378 959 997 
Q 959 650 1171 447 
Q 1384 244 1747 244 
Q 2106 244 2326 466 
Q 2547 688 2547 1044 
z
M 3122 2075 
L 3122 331 
L 3634 331 
L 3634 0 
L 2547 0 
L 2547 359 
Q 2356 128 2106 18 
Q 1856 -91 1522 -91 
Q 969 -91 644 203 
Q 319 497 319 997 
Q 319 1513 691 1797 
Q 1063 2081 1741 2081 
L 2547 2081 
L 2547 2309 
Q 2547 2688 2317 2895 
Q 2088 3103 1672 3103 
Q 1328 3103 1125 2947 
Q 922 2791 872 2484 
L 575 2484 
L 575 3156 
Q 875 3284 1158 3348 
Q 1441 3413 1709 3413 
Q 2400 3413 2761 3070 
Q 3122 2728 3122 2075 
z
" transform="scale(0.015625)"/>
      <path id="DejaVuSerif-56" d="M 359 184 
L 359 959 
L 691 959 
Q 703 588 923 403 
Q 1144 219 1575 219 
Q 1963 219 2166 364 
Q 2369 509 2369 788 
Q 2369 1006 2220 1140 
Q 2072 1275 1594 1428 
L 1178 1569 
Q 750 1706 558 1912 
Q 366 2119 366 2438 
Q 366 2894 700 3153 
Q 1034 3413 1625 3413 
Q 1888 3413 2178 3344 
Q 2469 3275 2778 3144 
L 2778 2419 
L 2447 2419 
Q 2434 2741 2221 2922 
Q 2009 3103 1644 3103 
Q 1281 3103 1095 2975 
Q 909 2847 909 2591 
Q 909 2381 1050 2254 
Q 1191 2128 1613 1997 
L 2069 1856 
Q 2541 1709 2748 1489 
Q 2956 1269 2956 922 
Q 2956 450 2595 179 
Q 2234 -91 1600 -91 
Q 1278 -91 972 -22 
Q 666 47 359 184 
z
" transform="scale(0.015625)"/>
      <path id="DejaVuSerif-50" d="M 3316 2675 
Q 3481 3041 3739 3227 
Q 3997 3413 4341 3413 
Q 4863 3413 5119 3089 
Q 5375 2766 5375 2113 
L 5375 331 
L 5894 331 
L 5894 0 
L 4300 0 
L 4300 331 
L 4800 331 
L 4800 2047 
Q 4800 2556 4650 2772 
Q 4500 2988 4153 2988 
Q 3769 2988 3567 2697 
Q 3366 2406 3366 1850 
L 3366 331 
L 3866 331 
L 3866 0 
L 2291 0 
L 2291 331 
L 2791 331 
L 2791 2069 
Q 2791 2566 2641 2777 
Q 2491 2988 2144 2988 
Q 1759 2988 1557 2697 
Q 1356 2406 1356 1850 
L 1356 331 
L 1856 331 
L 1856 0 
L 263 0 
L 263 331 
L 781 331 
L 781 2994 
L 231 2994 
L 231 3322 
L 1356 3322 
L 1356 2731 
Q 1516 3063 1762 3238 
Q 2009 3413 2322 3413 
Q 2709 3413 2968 3220 
Q 3228 3028 3316 2675 
z
" transform="scale(0.015625)"/>
      <path id="DejaVuSerif-4c" d="M 622 4353 
Q 622 4497 726 4603 
Q 831 4709 978 4709 
Q 1122 4709 1226 4603 
Q 1331 4497 1331 4353 
Q 1331 4206 1228 4103 
Q 1125 4000 978 4000 
Q 831 4000 726 4103 
Q 622 4206 622 4353 
z
M 1356 331 
L 1900 331 
L 1900 0 
L 231 0 
L 231 331 
L 781 331 
L 781 2988 
L 231 2988 
L 231 3322 
L 1356 3322 
L 1356 331 
z
" transform="scale(0.015625)"/>
      <path id="DejaVuSerif-52" d="M 1925 219 
Q 2388 219 2623 584 
Q 2859 950 2859 1663 
Q 2859 2375 2623 2739 
Q 2388 3103 1925 3103 
Q 1463 3103 1227 2739 
Q 991 2375 991 1663 
Q 991 950 1228 584 
Q 1466 219 1925 219 
z
M 1925 -91 
Q 1200 -91 759 389 
Q 319 869 319 1663 
Q 319 2456 758 2934 
Q 1197 3413 1925 3413 
Q 2653 3413 3092 2934 
Q 3531 2456 3531 1663 
Q 3531 869 3092 389 
Q 2653 -91 1925 -91 
z
" transform="scale(0.015625)"/>
      <path id="DejaVuSerif-b" d="M 2041 -997 
Q 1281 -656 893 83 
Q 506 822 506 1931 
Q 506 3044 893 3783 
Q 1281 4522 2041 4863 
L 2041 4556 
Q 1559 4225 1350 3623 
Q 1141 3022 1141 1931 
Q 1141 844 1350 242 
Q 1559 -359 2041 -691 
L 2041 -997 
z
" transform="scale(0.015625)"/>
      <path id="DejaVuSerif-26" d="M 4513 1234 
Q 4306 581 3820 245 
Q 3334 -91 2591 -91 
Q 2134 -91 1743 65 
Q 1353 222 1050 525 
Q 700 875 529 1320 
Q 359 1766 359 2328 
Q 359 3416 987 4083 
Q 1616 4750 2644 4750 
Q 3025 4750 3456 4650 
Q 3888 4550 4384 4347 
L 4384 3272 
L 4031 3272 
Q 3916 3859 3567 4137 
Q 3219 4416 2591 4416 
Q 1844 4416 1459 3886 
Q 1075 3356 1075 2328 
Q 1075 1303 1459 773 
Q 1844 244 2591 244 
Q 3113 244 3450 492 
Q 3788 741 3938 1234 
L 4513 1234 
z
" transform="scale(0.015625)"/>
      <path id="DejaVuSerif-4f" d="M 1313 331 
L 1856 331 
L 1856 0 
L 184 0 
L 184 331 
L 738 331 
L 738 4531 
L 184 4531 
L 184 4863 
L 1313 4863 
L 1313 331 
z
" transform="scale(0.015625)"/>
      <path id="DejaVuSerif-46" d="M 3291 997 
Q 3169 466 2822 187 
Q 2475 -91 1925 -91 
Q 1200 -91 759 389 
Q 319 869 319 1663 
Q 319 2459 759 2936 
Q 1200 3413 1925 3413 
Q 2241 3413 2553 3339 
Q 2866 3266 3181 3116 
L 3181 2266 
L 2847 2266 
Q 2781 2703 2561 2903 
Q 2341 3103 1931 3103 
Q 1466 3103 1228 2742 
Q 991 2381 991 1663 
Q 991 944 1227 581 
Q 1463 219 1931 219 
Q 2303 219 2525 412 
Q 2747 606 2828 997 
L 3291 997 
z
" transform="scale(0.015625)"/>
      <path id="DejaVuSerif-2b" d="M 353 0 
L 353 331 
L 947 331 
L 947 4331 
L 353 4331 
L 353 4666 
L 2175 4666 
L 2175 4331 
L 1581 4331 
L 1581 2719 
L 4000 2719 
L 4000 4331 
L 3406 4331 
L 3406 4666 
L 5228 4666 
L 5228 4331 
L 4634 4331 
L 4634 331 
L 5228 331 
L 5228 0 
L 3406 0 
L 3406 331 
L 4000 331 
L 4000 2338 
L 1581 2338 
L 1581 331 
L 2175 331 
L 2175 0 
L 353 0 
z
" transform="scale(0.015625)"/>
      <path id="DejaVuSerif-32" d="M 2625 244 
Q 3391 244 3781 770 
Q 4172 1297 4172 2328 
Q 4172 3363 3781 3889 
Q 3391 4416 2625 4416 
Q 1856 4416 1465 3889 
Q 1075 3363 1075 2328 
Q 1075 1297 1465 770 
Q 1856 244 2625 244 
z
M 2625 -91 
Q 2150 -91 1751 65 
Q 1353 222 1050 525 
Q 700 875 529 1319 
Q 359 1763 359 2328 
Q 359 2894 529 3339 
Q 700 3784 1050 4134 
Q 1356 4441 1750 4595 
Q 2144 4750 2625 4750 
Q 3641 4750 4266 4084 
Q 4891 3419 4891 2328 
Q 4891 1769 4719 1320 
Q 4547 872 4197 525 
Q 3891 219 3497 64 
Q 3103 -91 2625 -91 
z
" transform="scale(0.015625)"/>
      <path id="DejaVuSerif-30" d="M 353 0 
L 353 331 
L 947 331 
L 947 4331 
L 319 4331 
L 319 4666 
L 1678 4666 
L 3316 1344 
L 4953 4666 
L 6228 4666 
L 6228 4331 
L 5606 4331 
L 5606 331 
L 6203 331 
L 6203 0 
L 4378 0 
L 4378 331 
L 4972 331 
L 4972 3938 
L 3372 684 
L 2931 684 
L 1331 3938 
L 1331 331 
L 1925 331 
L 1925 0 
L 353 0 
z
" transform="scale(0.015625)"/>
      <path id="DejaVuSerif-25" d="M 1581 331 
L 2516 331 
Q 3078 331 3337 575 
Q 3597 819 3597 1350 
Q 3597 1878 3339 2120 
Q 3081 2363 2516 2363 
L 1581 2363 
L 1581 331 
z
M 1581 2694 
L 2375 2694 
Q 2888 2694 3123 2891 
Q 3359 3088 3359 3513 
Q 3359 3941 3123 4136 
Q 2888 4331 2375 4331 
L 1581 4331 
L 1581 2694 
z
M 353 0 
L 353 331 
L 947 331 
L 947 4331 
L 353 4331 
L 353 4666 
L 2656 4666 
Q 3363 4666 3720 4377 
Q 4078 4088 4078 3513 
Q 4078 3097 3829 2850 
Q 3581 2603 3103 2547 
Q 3697 2472 4005 2167 
Q 4313 1863 4313 1350 
Q 4313 656 3875 328 
Q 3438 0 2509 0 
L 353 0 
z
" transform="scale(0.015625)"/>
      <path id="DejaVuSerif-4e" d="M 1831 0 
L 219 0 
L 219 331 
L 738 331 
L 738 4531 
L 184 4531 
L 184 4863 
L 1313 4863 
L 1313 1697 
L 2713 2988 
L 2234 2988 
L 2234 3322 
L 3738 3322 
L 3738 2988 
L 3169 2988 
L 2181 2075 
L 3444 331 
L 3922 331 
L 3922 0 
L 2284 0 
L 2284 331 
L 2759 331 
L 1766 1697 
L 1313 1275 
L 1313 331 
L 1831 331 
L 1831 0 
z
" transform="scale(0.015625)"/>
      <path id="DejaVuSerif-4a" d="M 3359 2988 
L 3359 72 
Q 3359 -644 2965 -1033 
Q 2572 -1422 1844 -1422 
Q 1516 -1422 1216 -1362 
Q 916 -1303 641 -1184 
L 641 -488 
L 941 -488 
Q 997 -813 1206 -963 
Q 1416 -1113 1806 -1113 
Q 2313 -1113 2548 -827 
Q 2784 -541 2784 72 
L 2784 519 
Q 2616 206 2355 57 
Q 2094 -91 1709 -91 
Q 1097 -91 708 395 
Q 319 881 319 1663 
Q 319 2444 706 2928 
Q 1094 3413 1709 3413 
Q 2094 3413 2355 3264 
Q 2616 3116 2784 2803 
L 2784 3322 
L 3909 3322 
L 3909 2988 
L 3359 2988 
z
M 2784 1825 
Q 2784 2422 2554 2737 
Q 2325 3053 1888 3053 
Q 1444 3053 1217 2703 
Q 991 2353 991 1663 
Q 991 975 1217 622 
Q 1444 269 1888 269 
Q 2325 269 2554 583 
Q 2784 897 2784 1497 
L 2784 1825 
z
" transform="scale(0.015625)"/>
      <path id="DejaVuSerif-c" d="M 453 -997 
L 453 -691 
Q 934 -359 1145 242 
Q 1356 844 1356 1931 
Q 1356 3022 1145 3623 
Q 934 4225 453 4556 
L 453 4863 
Q 1216 4522 1603 3783 
Q 1991 3044 1991 1931 
Q 1991 822 1603 83 
Q 1216 -656 453 -997 
z
" transform="scale(0.015625)"/>
     </defs>
     <use xlink:href="#DejaVuSerif-16"/>
     <use xlink:href="#DejaVuSerif-11" transform="translate(63.625 0)"/>
     <use xlink:href="#DejaVuSerif-3" transform="translate(95.40625 0)"/>
     <use xlink:href="#DejaVuSerif-2c" transform="translate(127.1875 0)"/>
     <use xlink:href="#DejaVuSerif-51" transform="translate(166.6875 0)"/>
     <use xlink:href="#DejaVuSerif-47" transform="translate(231.09375 0)"/>
     <use xlink:href="#DejaVuSerif-48" transform="translate(295.109375 0)"/>
     <use xlink:href="#DejaVuSerif-53" transform="translate(354.296875 0)"/>
     <use xlink:href="#DejaVuSerif-48" transform="translate(418.3125 0)"/>
     <use xlink:href="#DejaVuSerif-51" transform="translate(477.5 0)"/>
     <use xlink:href="#DejaVuSerif-47" transform="translate(541.90625 0)"/>
     <use xlink:href="#DejaVuSerif-48" transform="translate(605.921875 0)"/>
     <use xlink:href="#DejaVuSerif-51" transform="translate(665.109375 0)"/>
     <use xlink:href="#DejaVuSerif-57" transform="translate(729.515625 0)"/>
     <use xlink:href="#DejaVuSerif-3" transform="translate(769.703125 0)"/>
     <use xlink:href="#DejaVuSerif-37" transform="translate(801.484375 0)"/>
     <use xlink:href="#DejaVuSerif-55" transform="translate(868.1875 0)"/>
     <use xlink:href="#DejaVuSerif-44" transform="translate(915.984375 0)"/>
     <use xlink:href="#DejaVuSerif-51" transform="translate(975.609375 0)"/>
     <use xlink:href="#DejaVuSerif-56" transform="translate(1040.015625 0)"/>
     <use xlink:href="#DejaVuSerif-50" transform="translate(1091.328125 0)"/>
     <use xlink:href="#DejaVuSerif-4c" transform="translate(1186.15625 0)"/>
     <use xlink:href="#DejaVuSerif-56" transform="translate(1218.140625 0)"/>
     <use xlink:href="#DejaVuSerif-56" transform="translate(1269.453125 0)"/>
     <use xlink:href="#DejaVuSerif-4c" transform="translate(1320.765625 0)"/>
     <use xlink:href="#DejaVuSerif-52" transform="translate(1352.75 0)"/>
     <use xlink:href="#DejaVuSerif-51" transform="translate(1412.953125 0)"/>
     <use xlink:href="#DejaVuSerif-3" transform="translate(1477.359375 0)"/>
     <use xlink:href="#DejaVuSerif-b" transform="translate(1509.140625 0)"/>
     <use xlink:href="#DejaVuSerif-26" transform="translate(1548.15625 0)"/>
     <use xlink:href="#DejaVuSerif-4f" transform="translate(1624.671875 0)"/>
     <use xlink:href="#DejaVuSerif-44" transform="translate(1656.65625 0)"/>
     <use xlink:href="#DejaVuSerif-56" transform="translate(1716.28125 0)"/>
     <use xlink:href="#DejaVuSerif-56" transform="translate(1767.59375 0)"/>
     <use xlink:href="#DejaVuSerif-4c" transform="translate(1818.90625 0)"/>
     <use xlink:href="#DejaVuSerif-46" transform="translate(1850.890625 0)"/>
     <use xlink:href="#DejaVuSerif-44" transform="translate(1906.890625 0)"/>
     <use xlink:href="#DejaVuSerif-4f" transform="translate(1966.515625 0)"/>
     <use xlink:href="#DejaVuSerif-3" transform="translate(1998.5 0)"/>
     <use xlink:href="#DejaVuSerif-2b" transform="translate(2030.28125 0)"/>
     <use xlink:href="#DejaVuSerif-32" transform="translate(2117.484375 0)"/>
     <use xlink:href="#DejaVuSerif-30" transform="translate(2199.46875 0)"/>
     <use xlink:href="#DejaVuSerif-3" transform="translate(2301.859375 0)"/>
     <use xlink:href="#DejaVuSerif-25" transform="translate(2333.640625 0)"/>
     <use xlink:href="#DejaVuSerif-55" transform="translate(2407.125 0)"/>
     <use xlink:href="#DejaVuSerif-48" transform="translate(2454.921875 0)"/>
     <use xlink:href="#DejaVuSerif-44" transform="translate(2514.109375 0)"/>
     <use xlink:href="#DejaVuSerif-4e" transform="translate(2573.734375 0)"/>
     <use xlink:href="#DejaVuSerif-4c" transform="translate(2634.328125 0)"/>
     <use xlink:href="#DejaVuSerif-51" transform="translate(2666.3125 0)"/>
     <use xlink:href="#DejaVuSerif-4a" transform="translate(2730.71875 0)"/>
     <use xlink:href="#DejaVuSerif-c" transform="translate(2794.734375 0)"/>
    </g>
   </g>
   <g id="PathCollection_1">
    <defs>
     <path id="m4c65e6ad36" d="M -3.061862 6.123724 
L 0 3.061862 
L 3.061862 6.123724 
L 6.123724 3.061862 
L 3.061862 0 
L 6.123724 -3.061862 
L 3.061862 -6.123724 
L 0 -3.061862 
L -3.061862 -6.123724 
L -6.123724 -3.061862 
L -3.061862 0 
L -6.123724 3.061862 
z
" style="stroke: #000000"/>
    </defs>
    <g clip-path="url(#p12e43866b4)">
     <use xlink:href="#m4c65e6ad36" x="275.835022" y="319.743425" style="fill: #0072b2; stroke: #000000"/>
    </g>
   </g>
   <g id="PathCollection_2">
    <defs>
     <path id="me20332bb6a" d="M -3.061862 6.123724 
L 0 3.061862 
L 3.061862 6.123724 
L 6.123724 3.061862 
L 3.061862 0 
L 6.123724 -3.061862 
L 3.061862 -6.123724 
L 0 -3.061862 
L -3.061862 -6.123724 
L -6.123724 -3.061862 
L -3.061862 0 
L -6.123724 3.061862 
z
" style="stroke: #000000"/>
    </defs>
    <g clip-path="url(#p12e43866b4)">
     <use xlink:href="#me20332bb6a" x="133.085337" y="231.908025" style="fill: #d95f02; stroke: #000000"/>
    </g>
   </g>
   <g id="legend_1">
    <g id="patch_7">
     <path d="M 68.723594 107.041094 
L 341.474219 107.041094 
Q 344.274219 107.041094 344.274219 104.241094 
L 344.274219 42.637812 
Q 344.274219 39.837812 341.474219 39.837812 
L 68.723594 39.837812 
Q 65.923594 39.837812 65.923594 42.637812 
L 65.923594 104.241094 
Q 65.923594 107.041094 68.723594 107.041094 
z
" style="fill: #ffffff; opacity: 0.8; stroke: #000000; stroke-linejoin: miter"/>
    </g>
    <g id="line2d_36">
     <path d="M 71.523594 51.175625 
L 85.523594 51.175625 
L 99.523594 51.175625 
" style="fill: none; stroke-dasharray: 7.4,3.2; stroke-dashoffset: 0; stroke: #888888; stroke-width: 2"/>
    </g>
    <g id="text_20">
     <!-- Beam Splitter -->
     <g transform="translate(110.723594 56.075625) scale(0.14 -0.14)">
      <defs>
       <path id="DejaVuSerif-36" d="M 594 225 
L 594 1288 
L 953 1284 
Q 969 753 1261 498 
Q 1553 244 2150 244 
Q 2706 244 2998 464 
Q 3291 684 3291 1106 
Q 3291 1444 3114 1625 
Q 2938 1806 2369 1978 
L 1753 2163 
Q 1084 2366 811 2669 
Q 538 2972 538 3500 
Q 538 4094 959 4422 
Q 1381 4750 2144 4750 
Q 2469 4750 2856 4679 
Q 3244 4609 3681 4475 
L 3681 3481 
L 3328 3481 
Q 3275 3975 2998 4195 
Q 2722 4416 2156 4416 
Q 1663 4416 1405 4214 
Q 1147 4013 1147 3628 
Q 1147 3294 1340 3103 
Q 1534 2913 2163 2725 
L 2741 2553 
Q 3375 2363 3645 2067 
Q 3916 1772 3916 1275 
Q 3916 597 3481 253 
Q 3047 -91 2188 -91 
Q 1803 -91 1404 -12 
Q 1006 66 594 225 
z
" transform="scale(0.015625)"/>
      </defs>
      <use xlink:href="#DejaVuSerif-25"/>
      <use xlink:href="#DejaVuSerif-48" transform="translate(73.484375 0)"/>
      <use xlink:href="#DejaVuSerif-44" transform="translate(132.671875 0)"/>
      <use xlink:href="#DejaVuSerif-50" transform="translate(192.296875 0)"/>
      <use xlink:href="#DejaVuSerif-3" transform="translate(287.125 0)"/>
      <use xlink:href="#DejaVuSerif-36" transform="translate(318.90625 0)"/>
      <use xlink:href="#DejaVuSerif-53" transform="translate(387.40625 0)"/>
      <use xlink:href="#DejaVuSerif-4f" transform="translate(451.421875 0)"/>
      <use xlink:href="#DejaVuSerif-4c" transform="translate(483.40625 0)"/>
      <use xlink:href="#DejaVuSerif-57" transform="translate(515.390625 0)"/>
      <use xlink:href="#DejaVuSerif-57" transform="translate(555.578125 0)"/>
      <use xlink:href="#DejaVuSerif-48" transform="translate(595.765625 0)"/>
      <use xlink:href="#DejaVuSerif-55" transform="translate(654.953125 0)"/>
     </g>
    </g>
    <g id="line2d_37">
     <path d="M 71.523594 72.176719 
L 85.523594 72.176719 
L 99.523594 72.176719 
" style="fill: none; stroke: #0072b2; stroke-width: 2.5; stroke-linecap: square"/>
    </g>
    <g id="text_21">
     <!-- Photon 1 (Origin: Right/Bottom) -->
     <g transform="translate(110.723594 77.076719) scale(0.14 -0.14)">
      <defs>
       <path id="DejaVuSerif-33" d="M 1581 2375 
L 2406 2375 
Q 2872 2375 3115 2626 
Q 3359 2878 3359 3353 
Q 3359 3831 3115 4081 
Q 2872 4331 2406 4331 
L 1581 4331 
L 1581 2375 
z
M 353 0 
L 353 331 
L 947 331 
L 947 4331 
L 353 4331 
L 353 4666 
L 2559 4666 
Q 3259 4666 3668 4311 
Q 4078 3956 4078 3353 
Q 4078 2753 3668 2397 
Q 3259 2041 2559 2041 
L 1581 2041 
L 1581 331 
L 2303 331 
L 2303 0 
L 353 0 
z
" transform="scale(0.015625)"/>
       <path id="DejaVuSerif-4b" d="M 263 0 
L 263 331 
L 781 331 
L 781 4531 
L 231 4531 
L 231 4863 
L 1356 4863 
L 1356 2731 
Q 1516 3069 1770 3241 
Q 2025 3413 2363 3413 
Q 2913 3413 3172 3097 
Q 3431 2781 3431 2113 
L 3431 331 
L 3944 331 
L 3944 0 
L 2356 0 
L 2356 331 
L 2853 331 
L 2853 1931 
Q 2853 2541 2704 2764 
Q 2556 2988 2175 2988 
Q 1775 2988 1565 2697 
Q 1356 2406 1356 1850 
L 1356 331 
L 1856 331 
L 1856 0 
L 263 0 
z
" transform="scale(0.015625)"/>
       <path id="DejaVuSerif-14" d="M 909 0 
L 909 331 
L 1722 331 
L 1722 4213 
L 781 3603 
L 781 4013 
L 1919 4750 
L 2350 4750 
L 2350 331 
L 3163 331 
L 3163 0 
L 909 0 
z
" transform="scale(0.015625)"/>
       <path id="DejaVuSerif-1d" d="M 666 325 
Q 666 500 786 622 
Q 906 744 1081 744 
Q 1256 744 1376 622 
Q 1497 500 1497 325 
Q 1497 150 1378 29 
Q 1259 -91 1081 -91 
Q 903 -91 784 29 
Q 666 150 666 325 
z
M 666 2363 
Q 666 2538 786 2658 
Q 906 2778 1081 2778 
Q 1259 2778 1378 2659 
Q 1497 2541 1497 2363 
Q 1497 2184 1378 2065 
Q 1259 1947 1081 1947 
Q 906 1947 786 2067 
Q 666 2188 666 2363 
z
" transform="scale(0.015625)"/>
       <path id="DejaVuSerif-35" d="M 3066 2316 
Q 3284 2256 3442 2114 
Q 3600 1972 3725 1716 
L 4403 331 
L 4972 331 
L 4972 0 
L 3872 0 
L 3144 1484 
Q 2934 1916 2759 2042 
Q 2584 2169 2278 2169 
L 1581 2169 
L 1581 331 
L 2241 331 
L 2241 0 
L 353 0 
L 353 331 
L 947 331 
L 947 4331 
L 353 4331 
L 353 4666 
L 2719 4666 
Q 3400 4666 3770 4341 
Q 4141 4016 4141 3419 
Q 4141 2938 3870 2661 
Q 3600 2384 3066 2316 
z
M 1581 2503 
L 2503 2503 
Q 2975 2503 3200 2726 
Q 3425 2950 3425 3419 
Q 3425 3888 3200 4109 
Q 2975 4331 2503 4331 
L 1581 4331 
L 1581 2503 
z
" transform="scale(0.015625)"/>
       <path id="DejaVuSerif-12" d="M 1656 4666 
L 2156 4666 
L 500 -594 
L 0 -594 
L 1656 4666 
z
" transform="scale(0.015625)"/>
      </defs>
      <use xlink:href="#DejaVuSerif-33"/>
      <use xlink:href="#DejaVuSerif-4b" transform="translate(67.28125 0)"/>
      <use xlink:href="#DejaVuSerif-52" transform="translate(131.6875 0)"/>
      <use xlink:href="#DejaVuSerif-57" transform="translate(191.890625 0)"/>
      <use xlink:href="#DejaVuSerif-52" transform="translate(232.078125 0)"/>
      <use xlink:href="#DejaVuSerif-51" transform="translate(292.28125 0)"/>
      <use xlink:href="#DejaVuSerif-3" transform="translate(356.6875 0)"/>
      <use xlink:href="#DejaVuSerif-14" transform="translate(388.46875 0)"/>
      <use xlink:href="#DejaVuSerif-3" transform="translate(452.09375 0)"/>
      <use xlink:href="#DejaVuSerif-b" transform="translate(483.875 0)"/>
      <use xlink:href="#DejaVuSerif-32" transform="translate(522.890625 0)"/>
      <use xlink:href="#DejaVuSerif-55" transform="translate(604.875 0)"/>
      <use xlink:href="#DejaVuSerif-4c" transform="translate(652.671875 0)"/>
      <use xlink:href="#DejaVuSerif-4a" transform="translate(684.65625 0)"/>
      <use xlink:href="#DejaVuSerif-4c" transform="translate(748.671875 0)"/>
      <use xlink:href="#DejaVuSerif-51" transform="translate(780.65625 0)"/>
      <use xlink:href="#DejaVuSerif-1d" transform="translate(845.0625 0)"/>
      <use xlink:href="#DejaVuSerif-3" transform="translate(878.75 0)"/>
      <use xlink:href="#DejaVuSerif-35" transform="translate(910.53125 0)"/>
      <use xlink:href="#DejaVuSerif-4c" transform="translate(985.828125 0)"/>
      <use xlink:href="#DejaVuSerif-4a" transform="translate(1017.8125 0)"/>
      <use xlink:href="#DejaVuSerif-4b" transform="translate(1081.828125 0)"/>
      <use xlink:href="#DejaVuSerif-57" transform="translate(1146.234375 0)"/>
      <use xlink:href="#DejaVuSerif-12" transform="translate(1186.421875 0)"/>
      <use xlink:href="#DejaVuSerif-25" transform="translate(1220.109375 0)"/>
      <use xlink:href="#DejaVuSerif-52" transform="translate(1293.59375 0)"/>
      <use xlink:href="#DejaVuSerif-57" transform="translate(1353.796875 0)"/>
      <use xlink:href="#DejaVuSerif-57" transform="translate(1393.984375 0)"/>
      <use xlink:href="#DejaVuSerif-52" transform="translate(1434.171875 0)"/>
      <use xlink:href="#DejaVuSerif-50" transform="translate(1494.375 0)"/>
      <use xlink:href="#DejaVuSerif-c" transform="translate(1589.203125 0)"/>
     </g>
    </g>
    <g id="line2d_38">
     <path d="M 71.523594 93.177812 
L 85.523594 93.177812 
L 99.523594 93.177812 
" style="fill: none; stroke: #d95f02; stroke-width: 2.5; stroke-linecap: square"/>
    </g>
    <g id="text_22">
     <!-- Photon 2 (Origin: Left/Top) -->
     <g transform="translate(110.723594 98.077812) scale(0.14 -0.14)">
      <defs>
       <path id="DejaVuSerif-2f" d="M 353 0 
L 353 331 
L 947 331 
L 947 4331 
L 353 4331 
L 353 4666 
L 2175 4666 
L 2175 4331 
L 1581 4331 
L 1581 384 
L 3713 384 
L 3713 1166 
L 4097 1166 
L 4097 0 
L 353 0 
z
" transform="scale(0.015625)"/>
       <path id="DejaVuSerif-49" d="M 2753 4078 
L 2450 4078 
Q 2447 4313 2317 4434 
Q 2188 4556 1941 4556 
Q 1619 4556 1487 4379 
Q 1356 4203 1356 3750 
L 1356 3322 
L 2284 3322 
L 2284 2988 
L 1356 2988 
L 1356 331 
L 2094 331 
L 2094 0 
L 231 0 
L 231 331 
L 781 331 
L 781 2988 
L 231 2988 
L 231 3322 
L 781 3322 
L 781 3738 
Q 781 4294 1070 4578 
Q 1359 4863 1919 4863 
Q 2128 4863 2337 4825 
Q 2547 4788 2753 4709 
L 2753 4078 
z
" transform="scale(0.015625)"/>
      </defs>
      <use xlink:href="#DejaVuSerif-33"/>
      <use xlink:href="#DejaVuSerif-4b" transform="translate(67.28125 0)"/>
      <use xlink:href="#DejaVuSerif-52" transform="translate(131.6875 0)"/>
      <use xlink:href="#DejaVuSerif-57" transform="translate(191.890625 0)"/>
      <use xlink:href="#DejaVuSerif-52" transform="translate(232.078125 0)"/>
      <use xlink:href="#DejaVuSerif-51" transform="translate(292.28125 0)"/>
      <use xlink:href="#DejaVuSerif-3" transform="translate(356.6875 0)"/>
      <use xlink:href="#DejaVuSerif-15" transform="translate(388.46875 0)"/>
      <use xlink:href="#DejaVuSerif-3" transform="translate(452.09375 0)"/>
      <use xlink:href="#DejaVuSerif-b" transform="translate(483.875 0)"/>
      <use xlink:href="#DejaVuSerif-32" transform="translate(522.890625 0)"/>
      <use xlink:href="#DejaVuSerif-55" transform="translate(604.875 0)"/>
      <use xlink:href="#DejaVuSerif-4c" transform="translate(652.671875 0)"/>
      <use xlink:href="#DejaVuSerif-4a" transform="translate(684.65625 0)"/>
      <use xlink:href="#DejaVuSerif-4c" transform="translate(748.671875 0)"/>
      <use xlink:href="#DejaVuSerif-51" transform="translate(780.65625 0)"/>
      <use xlink:href="#DejaVuSerif-1d" transform="translate(845.0625 0)"/>
      <use xlink:href="#DejaVuSerif-3" transform="translate(878.75 0)"/>
      <use xlink:href="#DejaVuSerif-2f" transform="translate(910.53125 0)"/>
      <use xlink:href="#DejaVuSerif-48" transform="translate(976.9375 0)"/>
      <use xlink:href="#DejaVuSerif-49" transform="translate(1036.125 0)"/>
      <use xlink:href="#DejaVuSerif-57" transform="translate(1073.140625 0)"/>
      <use xlink:href="#DejaVuSerif-12" transform="translate(1113.328125 0)"/>
      <use xlink:href="#DejaVuSerif-37" transform="translate(1147.015625 0)"/>
      <use xlink:href="#DejaVuSerif-52" transform="translate(1205.953125 0)"/>
      <use xlink:href="#DejaVuSerif-53" transform="translate(1266.15625 0)"/>
      <use xlink:href="#DejaVuSerif-c" transform="translate(1330.171875 0)"/>
     </g>
    </g>
   </g>
   <g id="Quiver_1">
    <path d="M 165.257242 302.213765 
L 160.757306 315.074404 
L 164.274344 314.625102 
L 154.547451 328.020799 
L 155.29429 311.482982 
L 157.763955 314.027031 
L 162.263891 301.166392 
L 165.257242 302.213765 
" clip-path="url(#p12e43866b4)"/>
   </g>
   <g id="Quiver_2">
    <path d="M 152.584047 347.210375 
L 139.370467 351.66875 
L 141.886767 354.166682 
L 125.341639 354.728721 
L 138.845165 345.152086 
L 138.3566 348.663885 
L 151.570179 344.205509 
L 152.584047 347.210375 
" clip-path="url(#p12e43866b4)"/>
   </g>
  </g>
 </g>
 <defs>
  <clipPath id="p12e43866b4">
   <rect x="58.923594" y="32.837812" width="422.84" height="409.123281"/>
  </clipPath>
 </defs>
</svg>
