<?xml version="1.0" encoding="utf-8" standalone="no"?>
<!DOCTYPE svg PUBLIC "-//W3C//DTD SVG 1.1//EN"
  "http://www.w3.org/Graphics/SVG/1.1/DTD/svg11.dtd">
<svg xmlns:xlink="http://www.w3.org/1999/xlink" width="695.006302pt" height="415.996094pt" viewBox="0 0 695.006302 415.996094" xmlns="http://www.w3.org/2000/svg" version="1.1">
 <metadata>
  <rdf:RDF xmlns:dc="http://purl.org/dc/elements/1.1/" xmlns:cc="http://creativecommons.org/ns#" xmlns:rdf="http://www.w3.org/1999/02/22-rdf-syntax-ns#">
   <cc:Work>
    <dc:type rdf:resource="http://purl.org/dc/dcmitype/StillImage"/>
    <dc:date>2026-06-17T18:00:57.401067</dc:date>
    <dc:format>image/svg+xml</dc:format>
    <dc:creator>
     <cc:Agent>
      <dc:title>Matplotlib v3.11.0, https://matplotlib.org/</dc:title>
     </cc:Agent>
    </dc:creator>
   </cc:Work>
  </rdf:RDF>
 </metadata>
 <defs>
  <style type="text/css">*{stroke-linejoin: round; stroke-linecap: butt}</style>
 </defs>
 <g id="figure_1">
  <g id="patch_1">
   <path d="M 0 415.996094 
L 695.006302 415.996094 
L 695.006302 0 
L 0 0 
z
" style="fill: #ffffff"/>
  </g>
  <g id="axes_1">
   <g id="patch_2">
    <path d="M 52.842344 369.795 
L 655.616094 369.795 
L 655.616094 60.163437 
L 52.842344 60.163437 
z
" style="fill: #ffffff"/>
   </g>
   <g id="patch_3">
    <path d="M 253.766927 369.795 
L 354.229219 369.795 
L 354.229219 60.163437 
L 253.766927 60.163437 
z
" clip-path="url(#p0b2dcd1e7d)" style="fill: #e6e6e6; stroke: #e6e6e6; stroke-linejoin: miter"/>
   </g>
   <g id="matplotlib.axis_1">
    <g id="xtick_1">
     <g id="line2d_1">
      <path d="M 52.842344 369.795 
L 52.842344 60.163437 
" clip-path="url(#p0b2dcd1e7d)" style="fill: none; stroke-dasharray: 2.96,1.28; stroke-dashoffset: 0; stroke: #d3d3d3; stroke-width: 0.8"/>
     </g>
     <g id="line2d_2">
      <defs>
       <path id="m71a557356f" d="M 0 0 
L 0 3.5 
" style="stroke: #000000; stroke-width: 0.8"/>
      </defs>
      <g>
       <use xlink:href="#m71a557356f" x="52.842344" y="369.795" style="stroke: #000000; stroke-width: 0.8"/>
      </g>
     </g>
     <g id="text_1">
      <!-- 0 -->
      <g transform="translate(48.388594 387.431719) scale(0.14 -0.14)">
       <defs>
        <path id="DejaVuSerif-13" d="M 2034 219 
Q 2513 219 2750 744 
Q 2988 1269 2988 2328 
Q 2988 3391 2750 3916 
Q 2513 4441 2034 4441 
Q 1556 4441 1318 3916 
Q 1081 3391 1081 2328 
Q 1081 1269 1318 744 
Q 1556 219 2034 219 
z
M 2034 -91 
Q 1275 -91 848 546 
Q 422 1184 422 2328 
Q 422 3475 848 4112 
Q 1275 4750 2034 4750 
Q 2797 4750 3222 4112 
Q 3647 3475 3647 2328 
Q 3647 1184 3222 546 
Q 2797 -91 2034 -91 
z
" transform="scale(0.015625)"/>
       </defs>
       <use xlink:href="#DejaVuSerif-13"/>
      </g>
     </g>
    </g>
    <g id="xtick_2">
     <g id="line2d_3">
      <path d="M 153.304635 369.795 
L 153.304635 60.163437 
" clip-path="url(#p0b2dcd1e7d)" style="fill: none; stroke-dasharray: 2.96,1.28; stroke-dashoffset: 0; stroke: #d3d3d3; stroke-width: 0.8"/>
     </g>
     <g id="line2d_4">
      <g>
       <use xlink:href="#m71a557356f" x="153.304635" y="369.795" style="stroke: #000000; stroke-width: 0.8"/>
      </g>
     </g>
     <g id="text_2">
      <!-- 50 -->
      <g transform="translate(144.397135 387.431719) scale(0.14 -0.14)">
       <defs>
        <path id="DejaVuSerif-18" d="M 3219 4666 
L 3219 4153 
L 1081 4153 
L 1081 2816 
Q 1244 2928 1461 2984 
Q 1678 3041 1947 3041 
Q 2703 3041 3140 2622 
Q 3578 2203 3578 1478 
Q 3578 738 3136 323 
Q 2694 -91 1894 -91 
Q 1572 -91 1234 -12 
Q 897 66 544 225 
L 544 1131 
L 897 1131 
Q 925 688 1179 453 
Q 1434 219 1894 219 
Q 2388 219 2653 544 
Q 2919 869 2919 1478 
Q 2919 2084 2655 2407 
Q 2391 2731 1894 2731 
Q 1613 2731 1398 2631 
Q 1184 2531 1019 2322 
L 750 2322 
L 750 4666 
L 3219 4666 
z
" transform="scale(0.015625)"/>
       </defs>
       <use xlink:href="#DejaVuSerif-18"/>
       <use xlink:href="#DejaVuSerif-13" transform="translate(63.625 0)"/>
      </g>
     </g>
    </g>
    <g id="xtick_3">
     <g id="line2d_5">
      <path d="M 253.766927 369.795 
L 253.766927 60.163437 
" clip-path="url(#p0b2dcd1e7d)" style="fill: none; stroke-dasharray: 2.96,1.28; stroke-dashoffset: 0; stroke: #d3d3d3; stroke-width: 0.8"/>
     </g>
     <g id="line2d_6">
      <g>
       <use xlink:href="#m71a557356f" x="253.766927" y="369.795" style="stroke: #000000; stroke-width: 0.8"/>
      </g>
     </g>
     <g id="text_3">
      <!-- 100 -->
      <g transform="translate(240.405677 387.431719) scale(0.14 -0.14)">
       <defs>
        <path id="DejaVuSerif-14" d="M 909 0 
L 909 331 
L 1722 331 
L 1722 4213 
L 781 3603 
L 781 4013 
L 1919 4750 
L 2350 4750 
L 2350 331 
L 3163 331 
L 3163 0 
L 909 0 
z
" transform="scale(0.015625)"/>
       </defs>
       <use xlink:href="#DejaVuSerif-14"/>
       <use xlink:href="#DejaVuSerif-13" transform="translate(63.625 0)"/>
       <use xlink:href="#DejaVuSerif-13" transform="translate(127.25 0)"/>
      </g>
     </g>
    </g>
    <g id="xtick_4">
     <g id="line2d_7">
      <path d="M 354.229219 369.795 
L 354.229219 60.163437 
" clip-path="url(#p0b2dcd1e7d)" style="fill: none; stroke-dasharray: 2.96,1.28; stroke-dashoffset: 0; stroke: #d3d3d3; stroke-width: 0.8"/>
     </g>
     <g id="line2d_8">
      <g>
       <use xlink:href="#m71a557356f" x="354.229219" y="369.795" style="stroke: #000000; stroke-width: 0.8"/>
      </g>
     </g>
     <g id="text_4">
      <!-- 150 -->
      <g transform="translate(340.867969 387.431719) scale(0.14 -0.14)">
       <use xlink:href="#DejaVuSerif-14"/>
       <use xlink:href="#DejaVuSerif-18" transform="translate(63.625 0)"/>
       <use xlink:href="#DejaVuSerif-13" transform="translate(127.25 0)"/>
      </g>
     </g>
    </g>
    <g id="xtick_5">
     <g id="line2d_9">
      <path d="M 454.69151 369.795 
L 454.69151 60.163437 
" clip-path="url(#p0b2dcd1e7d)" style="fill: none; stroke-dasharray: 2.96,1.28; stroke-dashoffset: 0; stroke: #d3d3d3; stroke-width: 0.8"/>
     </g>
     <g id="line2d_10">
      <g>
       <use xlink:href="#m71a557356f" x="454.69151" y="369.795" style="stroke: #000000; stroke-width: 0.8"/>
      </g>
     </g>
     <g id="text_5">
      <!-- 200 -->
      <g transform="translate(441.33026 387.431719) scale(0.14 -0.14)">
       <defs>
        <path id="DejaVuSerif-15" d="M 819 3553 
L 469 3553 
L 469 4384 
Q 803 4563 1142 4656 
Q 1481 4750 1806 4750 
Q 2534 4750 2956 4397 
Q 3378 4044 3378 3438 
Q 3378 2753 2422 1800 
Q 2347 1728 2309 1691 
L 1131 513 
L 3078 513 
L 3078 1088 
L 3444 1088 
L 3444 0 
L 434 0 
L 434 341 
L 1850 1753 
Q 2319 2222 2519 2614 
Q 2719 3006 2719 3438 
Q 2719 3909 2473 4175 
Q 2228 4441 1797 4441 
Q 1350 4441 1106 4219 
Q 863 3997 819 3553 
z
" transform="scale(0.015625)"/>
       </defs>
       <use xlink:href="#DejaVuSerif-15"/>
       <use xlink:href="#DejaVuSerif-13" transform="translate(63.625 0)"/>
       <use xlink:href="#DejaVuSerif-13" transform="translate(127.25 0)"/>
      </g>
     </g>
    </g>
    <g id="xtick_6">
     <g id="line2d_11">
      <path d="M 555.153802 369.795 
L 555.153802 60.163437 
" clip-path="url(#p0b2dcd1e7d)" style="fill: none; stroke-dasharray: 2.96,1.28; stroke-dashoffset: 0; stroke: #d3d3d3; stroke-width: 0.8"/>
     </g>
     <g id="line2d_12">
      <g>
       <use xlink:href="#m71a557356f" x="555.153802" y="369.795" style="stroke: #000000; stroke-width: 0.8"/>
      </g>
     </g>
     <g id="text_6">
      <!-- 250 -->
      <g transform="translate(541.792552 387.431719) scale(0.14 -0.14)">
       <use xlink:href="#DejaVuSerif-15"/>
       <use xlink:href="#DejaVuSerif-18" transform="translate(63.625 0)"/>
       <use xlink:href="#DejaVuSerif-13" transform="translate(127.25 0)"/>
      </g>
     </g>
    </g>
    <g id="xtick_7">
     <g id="line2d_13">
      <path d="M 655.616094 369.795 
L 655.616094 60.163437 
" clip-path="url(#p0b2dcd1e7d)" style="fill: none; stroke-dasharray: 2.96,1.28; stroke-dashoffset: 0; stroke: #d3d3d3; stroke-width: 0.8"/>
     </g>
     <g id="line2d_14">
      <g>
       <use xlink:href="#m71a557356f" x="655.616094" y="369.795" style="stroke: #000000; stroke-width: 0.8"/>
      </g>
     </g>
     <g id="text_7">
      <!-- 300 -->
      <g transform="translate(642.254844 387.431719) scale(0.14 -0.14)">
       <defs>
        <path id="DejaVuSerif-16" d="M 622 4469 
Q 988 4606 1323 4678 
Q 1659 4750 1953 4750 
Q 2638 4750 3022 4454 
Q 3406 4159 3406 3634 
Q 3406 3213 3140 2930 
Q 2875 2647 2388 2547 
Q 2963 2466 3280 2130 
Q 3597 1794 3597 1259 
Q 3597 606 3158 257 
Q 2719 -91 1894 -91 
Q 1528 -91 1179 -12 
Q 831 66 488 225 
L 488 1131 
L 838 1131 
Q 869 681 1141 450 
Q 1413 219 1906 219 
Q 2384 219 2661 495 
Q 2938 772 2938 1253 
Q 2938 1803 2653 2086 
Q 2369 2369 1819 2369 
L 1522 2369 
L 1522 2688 
L 1678 2688 
Q 2225 2688 2498 2914 
Q 2772 3141 2772 3597 
Q 2772 4006 2547 4223 
Q 2322 4441 1900 4441 
Q 1478 4441 1245 4241 
Q 1013 4041 972 3647 
L 622 3647 
L 622 4469 
z
" transform="scale(0.015625)"/>
       </defs>
       <use xlink:href="#DejaVuSerif-16"/>
       <use xlink:href="#DejaVuSerif-13" transform="translate(63.625 0)"/>
       <use xlink:href="#DejaVuSerif-13" transform="translate(127.25 0)"/>
      </g>
     </g>
    </g>
    <g id="text_8">
     <!-- Time / Advance on HQPU Chip (Y-Axis) -->
     <g transform="translate(202.5075 405.432812) scale(0.14 -0.14)">
      <defs>
       <path id="DejaVuSerif-Bold-37" d="M 1159 0 
L 1159 378 
L 1778 378 
L 1778 4238 
L 500 4238 
L 500 3500 
L 72 3500 
L 72 4666 
L 4697 4666 
L 4697 3500 
L 4275 3500 
L 4275 4238 
L 2988 4238 
L 2988 378 
L 3609 378 
L 3609 0 
L 1159 0 
z
" transform="scale(0.015625)"/>
       <path id="DejaVuSerif-Bold-4c" d="M 588 4263 
Q 588 4516 763 4689 
Q 938 4863 1191 4863 
Q 1438 4863 1611 4689 
Q 1784 4516 1784 4263 
Q 1784 4016 1611 3842 
Q 1438 3669 1191 3669 
Q 938 3669 763 3841 
Q 588 4013 588 4263 
z
M 1797 378 
L 2272 378 
L 2272 0 
L 219 0 
L 219 378 
L 691 378 
L 691 2944 
L 219 2944 
L 219 3322 
L 1797 3322 
L 1797 378 
z
" transform="scale(0.015625)"/>
       <path id="DejaVuSerif-Bold-50" d="M 3884 2778 
Q 4116 3109 4384 3261 
Q 4653 3413 5013 3413 
Q 5584 3413 5867 3089 
Q 6150 2766 6150 2113 
L 6150 378 
L 6625 378 
L 6625 0 
L 4647 0 
L 4647 378 
L 5044 378 
L 5044 1947 
Q 5044 2569 4948 2731 
Q 4853 2894 4594 2894 
Q 4300 2894 4137 2667 
Q 3975 2441 3975 2022 
L 3975 378 
L 4372 378 
L 4372 0 
L 2472 0 
L 2472 378 
L 2869 378 
L 2869 1947 
Q 2869 2569 2772 2731 
Q 2675 2894 2419 2894 
Q 2122 2894 1959 2667 
Q 1797 2441 1797 2022 
L 1797 378 
L 2194 378 
L 2194 0 
L 219 0 
L 219 378 
L 691 378 
L 691 2944 
L 219 2944 
L 219 3322 
L 1797 3322 
L 1797 2853 
Q 1991 3144 2241 3278 
Q 2491 3413 2834 3413 
Q 3241 3413 3494 3258 
Q 3747 3103 3884 2778 
z
" transform="scale(0.015625)"/>
       <path id="DejaVuSerif-Bold-48" d="M 2566 1875 
Q 2566 2531 2444 2795 
Q 2322 3059 2028 3059 
Q 1744 3059 1620 2800 
Q 1497 2541 1497 1931 
L 1497 1875 
L 2566 1875 
z
M 3781 1503 
L 1497 1503 
L 1497 1478 
Q 1497 834 1690 548 
Q 1884 263 2316 263 
Q 2675 263 2897 453 
Q 3119 644 3181 1006 
L 3700 1006 
Q 3566 441 3166 175 
Q 2766 -91 2047 -91 
Q 1184 -91 723 364 
Q 263 819 263 1663 
Q 263 2488 734 2950 
Q 1206 3413 2047 3413 
Q 2872 3413 3312 2927 
Q 3753 2441 3781 1503 
z
" transform="scale(0.015625)"/>
       <path id="DejaVuSerif-Bold-3" transform="scale(0.015625)"/>
       <path id="DejaVuSerif-Bold-12" d="M 1644 4666 
L 2338 4666 
L 691 -594 
L 0 -594 
L 1644 4666 
z
" transform="scale(0.015625)"/>
       <path id="DejaVuSerif-Bold-24" d="M -50 0 
L -50 378 
L 331 378 
L 2088 4666 
L 2834 4666 
L 4594 378 
L 5038 378 
L 5038 0 
L 2853 0 
L 2853 378 
L 3309 378 
L 2925 1331 
L 1172 1331 
L 781 378 
L 1338 378 
L 1338 0 
L -50 0 
z
M 1325 1709 
L 2772 1709 
L 2053 3494 
L 1325 1709 
z
" transform="scale(0.015625)"/>
       <path id="DejaVuSerif-Bold-47" d="M 2747 1497 
L 2747 1825 
Q 2747 2406 2597 2665 
Q 2447 2925 2119 2925 
Q 1775 2925 1636 2651 
Q 1497 2378 1497 1663 
Q 1497 947 1637 672 
Q 1778 397 2119 397 
Q 2447 397 2597 656 
Q 2747 916 2747 1497 
z
M 3853 378 
L 4325 378 
L 4325 0 
L 2747 0 
L 2747 422 
Q 2606 163 2367 36 
Q 2128 -91 1778 -91 
Q 1072 -91 667 378 
Q 263 847 263 1663 
Q 263 2481 667 2947 
Q 1072 3413 1778 3413 
Q 2128 3413 2367 3286 
Q 2606 3159 2747 2900 
L 2747 4488 
L 2272 4488 
L 2272 4863 
L 3853 4863 
L 3853 378 
z
" transform="scale(0.015625)"/>
       <path id="DejaVuSerif-Bold-59" d="M 1428 0 
L 250 2944 
L -116 2944 
L -116 3322 
L 1791 3322 
L 1791 2944 
L 1388 2944 
L 2228 844 
L 3066 2944 
L 2631 2944 
L 2631 3322 
L 3878 3322 
L 3878 2944 
L 3494 2944 
L 2316 0 
L 1428 0 
z
" transform="scale(0.015625)"/>
       <path id="DejaVuSerif-Bold-44" d="M 3525 2041 
L 3525 378 
L 4000 378 
L 4000 0 
L 2419 0 
L 2419 422 
Q 2200 159 1931 34 
Q 1663 -91 1319 -91 
Q 809 -91 536 182 
Q 263 456 263 966 
Q 263 1525 655 1803 
Q 1047 2081 1838 2081 
L 2419 2081 
L 2419 2278 
Q 2419 2681 2228 2873 
Q 2038 3066 1638 3066 
Q 1306 3066 1126 2930 
Q 947 2794 872 2484 
L 519 2484 
L 519 3200 
Q 816 3306 1134 3359 
Q 1453 3413 1806 3413 
Q 2697 3413 3111 3081 
Q 3525 2750 3525 2041 
z
M 2419 1044 
L 2419 1709 
L 2003 1709 
Q 1694 1709 1528 1540 
Q 1363 1372 1363 1056 
Q 1363 741 1483 584 
Q 1603 428 1850 428 
Q 2106 428 2262 597 
Q 2419 766 2419 1044 
z
" transform="scale(0.015625)"/>
       <path id="DejaVuSerif-Bold-51" d="M 219 0 
L 219 378 
L 691 378 
L 691 2944 
L 219 2944 
L 219 3322 
L 1797 3322 
L 1797 2853 
Q 1997 3150 2253 3281 
Q 2509 3413 2900 3413 
Q 3459 3413 3745 3083 
Q 4031 2753 4031 2113 
L 4031 378 
L 4506 378 
L 4506 0 
L 2522 0 
L 2522 378 
L 2925 378 
L 2925 2144 
Q 2925 2566 2817 2730 
Q 2709 2894 2444 2894 
Q 2109 2894 1953 2648 
Q 1797 2403 1797 1869 
L 1797 378 
L 2203 378 
L 2203 0 
L 219 0 
z
" transform="scale(0.015625)"/>
       <path id="DejaVuSerif-Bold-46" d="M 3609 1038 
Q 3491 469 3123 189 
Q 2756 -91 2125 -91 
Q 1238 -91 750 368 
Q 263 828 263 1663 
Q 263 2488 744 2950 
Q 1225 3413 2081 3413 
Q 2428 3413 2781 3347 
Q 3134 3281 3500 3150 
L 3500 2228 
L 3150 2228 
Q 3100 2650 2903 2854 
Q 2706 3059 2350 3059 
Q 1888 3059 1692 2746 
Q 1497 2434 1497 1663 
Q 1497 909 1687 586 
Q 1878 263 2309 263 
Q 2644 263 2845 463 
Q 3047 663 3091 1038 
L 3609 1038 
z
" transform="scale(0.015625)"/>
       <path id="DejaVuSerif-Bold-52" d="M 2138 263 
Q 2488 263 2630 563 
Q 2772 863 2772 1663 
Q 2772 2463 2631 2761 
Q 2491 3059 2138 3059 
Q 1784 3059 1640 2757 
Q 1497 2456 1497 1663 
Q 1497 869 1640 566 
Q 1784 263 2138 263 
z
M 2138 -91 
Q 1259 -91 761 376 
Q 263 844 263 1663 
Q 263 2484 761 2948 
Q 1259 3413 2138 3413 
Q 3019 3413 3516 2948 
Q 4013 2484 4013 1663 
Q 4013 844 3514 376 
Q 3016 -91 2138 -91 
z
" transform="scale(0.015625)"/>
       <path id="DejaVuSerif-Bold-2b" d="M 300 0 
L 300 378 
L 897 378 
L 897 4288 
L 300 4288 
L 300 4666 
L 2700 4666 
L 2700 4288 
L 2100 4288 
L 2100 2719 
L 3956 2719 
L 3956 4288 
L 3359 4288 
L 3359 4666 
L 5759 4666 
L 5759 4288 
L 5159 4288 
L 5159 378 
L 5759 378 
L 5759 0 
L 3359 0 
L 3359 378 
L 3956 378 
L 3956 2291 
L 2100 2291 
L 2100 378 
L 2700 378 
L 2700 0 
L 300 0 
z
" transform="scale(0.015625)"/>
       <path id="DejaVuSerif-Bold-34" d="M 2766 -91 
Q 1584 -72 926 565 
Q 269 1203 269 2328 
Q 269 3459 939 4104 
Q 1609 4750 2784 4750 
Q 3963 4750 4631 4106 
Q 5300 3463 5300 2328 
Q 5300 1334 4786 715 
Q 4272 97 3322 -50 
Q 3488 -228 3725 -306 
Q 3963 -384 4341 -384 
L 4500 -384 
L 4500 -1153 
L 4409 -1153 
Q 3816 -1153 3419 -897 
Q 3022 -641 2766 -91 
z
M 2784 288 
Q 3381 288 3672 791 
Q 3963 1294 3963 2328 
Q 3963 3366 3672 3869 
Q 3381 4372 2784 4372 
Q 2191 4372 1898 3864 
Q 1606 3356 1606 2328 
Q 1606 1303 1898 795 
Q 2191 288 2784 288 
z
" transform="scale(0.015625)"/>
       <path id="DejaVuSerif-Bold-33" d="M 300 0 
L 300 378 
L 897 378 
L 897 4288 
L 300 4288 
L 300 4666 
L 2956 4666 
Q 3734 4666 4193 4295 
Q 4653 3925 4653 3303 
Q 4653 2678 4192 2304 
Q 3731 1931 2956 1931 
L 2100 1931 
L 2100 378 
L 2853 378 
L 2853 0 
L 300 0 
z
M 2100 2309 
L 2450 2309 
Q 2856 2309 3098 2579 
Q 3341 2850 3341 3303 
Q 3341 3753 3100 4020 
Q 2859 4288 2450 4288 
L 2100 4288 
L 2100 2309 
z
" transform="scale(0.015625)"/>
       <path id="DejaVuSerif-Bold-38" d="M 813 4288 
L 219 4288 
L 219 4666 
L 2619 4666 
L 2619 4288 
L 2022 4288 
L 2022 1953 
Q 2022 1081 2294 732 
Q 2566 384 3225 384 
Q 3869 384 4139 736 
Q 4409 1088 4409 1953 
L 4409 4288 
L 3816 4288 
L 3816 4666 
L 5441 4666 
L 5441 4288 
L 4844 4288 
L 4844 1888 
Q 4844 819 4381 364 
Q 3919 -91 2828 -91 
Q 1744 -91 1278 368 
Q 813 828 813 1894 
L 813 4288 
z
" transform="scale(0.015625)"/>
       <path id="DejaVuSerif-Bold-26" d="M 4769 1331 
Q 4584 609 4106 259 
Q 3628 -91 2822 -91 
Q 1641 -91 955 561 
Q 269 1213 269 2328 
Q 269 3447 955 4098 
Q 1641 4750 2822 4750 
Q 3238 4750 3688 4650 
Q 4138 4550 4641 4347 
L 4641 3200 
L 4244 3200 
Q 4122 3788 3800 4080 
Q 3478 4372 2950 4372 
Q 2269 4372 1937 3870 
Q 1606 3369 1606 2328 
Q 1606 1288 1937 788 
Q 2269 288 2956 288 
Q 3422 288 3717 547 
Q 4013 806 4147 1331 
L 4769 1331 
z
" transform="scale(0.015625)"/>
       <path id="DejaVuSerif-Bold-4b" d="M 219 0 
L 219 378 
L 691 378 
L 691 4488 
L 197 4488 
L 197 4863 
L 1797 4863 
L 1797 2853 
Q 1997 3150 2253 3281 
Q 2509 3413 2900 3413 
Q 3459 3413 3745 3083 
Q 4031 2753 4031 2113 
L 4031 378 
L 4506 378 
L 4506 0 
L 2522 0 
L 2522 378 
L 2925 378 
L 2925 2144 
Q 2925 2566 2817 2730 
Q 2709 2894 2444 2894 
Q 2109 2894 1953 2648 
Q 1797 2403 1797 1869 
L 1797 378 
L 2203 378 
L 2203 0 
L 219 0 
z
" transform="scale(0.015625)"/>
       <path id="DejaVuSerif-Bold-53" d="M 1728 1825 
L 1728 1497 
Q 1728 916 1876 656 
Q 2025 397 2356 397 
Q 2697 397 2836 672 
Q 2975 947 2975 1663 
Q 2975 2378 2836 2651 
Q 2697 2925 2356 2925 
Q 2025 2925 1876 2665 
Q 1728 2406 1728 1825 
z
M 622 2944 
L 147 2944 
L 147 3322 
L 1728 3322 
L 1728 2900 
Q 1869 3159 2106 3286 
Q 2344 3413 2694 3413 
Q 3403 3413 3811 2945 
Q 4219 2478 4219 1663 
Q 4219 847 3811 378 
Q 3403 -91 2694 -91 
Q 2344 -91 2106 36 
Q 1869 163 1728 422 
L 1728 -953 
L 2241 -953 
L 2241 -1331 
L 147 -1331 
L 147 -953 
L 622 -953 
L 622 2944 
z
" transform="scale(0.015625)"/>
       <path id="DejaVuSerif-Bold-b" d="M 2694 -997 
Q 1641 -606 1122 122 
Q 603 850 603 1931 
Q 603 3013 1115 3731 
Q 1628 4450 2694 4863 
L 2694 4488 
Q 2200 4188 1983 3598 
Q 1766 3009 1766 1931 
Q 1766 856 1983 267 
Q 2200 -322 2694 -622 
L 2694 -997 
z
" transform="scale(0.015625)"/>
       <path id="DejaVuSerif-Bold-3c" d="M 1100 0 
L 1100 378 
L 1728 378 
L 1728 1931 
L 341 4288 
L -56 4288 
L -56 4666 
L 2181 4666 
L 2181 4288 
L 1663 4288 
L 2713 2509 
L 3756 4288 
L 3291 4288 
L 3291 4666 
L 4628 4666 
L 4628 4288 
L 4231 4288 
L 2938 2094 
L 2938 378 
L 3566 378 
L 3566 0 
L 1100 0 
z
" transform="scale(0.015625)"/>
       <path id="DejaVuSerif-Bold-10" d="M 347 2138 
L 2309 2138 
L 2309 1294 
L 347 1294 
L 347 2138 
z
" transform="scale(0.015625)"/>
       <path id="DejaVuSerif-Bold-5b" d="M 2247 2119 
L 2834 2944 
L 2425 2944 
L 2425 3322 
L 3719 3322 
L 3719 2944 
L 3278 2944 
L 2431 1759 
L 3419 378 
L 3859 378 
L 3859 0 
L 1747 0 
L 1747 378 
L 2175 378 
L 1550 1253 
L 922 378 
L 1369 378 
L 1369 0 
L 0 0 
L 0 378 
L 475 378 
L 1356 1619 
L 403 2944 
L 31 2944 
L 31 3322 
L 2059 3322 
L 2059 2944 
L 1656 2944 
L 2247 2119 
z
" transform="scale(0.015625)"/>
       <path id="DejaVuSerif-Bold-56" d="M 300 97 
L 300 1025 
L 653 1025 
Q 697 653 931 458 
Q 1166 263 1569 263 
Q 1906 263 2086 380 
Q 2266 497 2266 716 
Q 2266 916 2152 1025 
Q 2038 1134 1709 1216 
L 1253 1331 
Q 738 1459 506 1698 
Q 275 1938 275 2344 
Q 275 2884 650 3148 
Q 1025 3413 1806 3413 
Q 2100 3413 2433 3364 
Q 2766 3316 3169 3213 
L 3169 2375 
L 2816 2375 
Q 2788 2716 2573 2887 
Q 2359 3059 1959 3059 
Q 1622 3059 1448 2951 
Q 1275 2844 1275 2638 
Q 1275 2469 1375 2372 
Q 1475 2275 1734 2209 
L 2188 2094 
Q 2841 1928 3091 1684 
Q 3341 1441 3341 1006 
Q 3341 444 2939 176 
Q 2538 -91 1691 -91 
Q 1381 -91 1034 -44 
Q 688 3 300 97 
z
" transform="scale(0.015625)"/>
       <path id="DejaVuSerif-Bold-c" d="M 325 -997 
L 325 -622 
Q 819 -322 1036 267 
Q 1253 856 1253 1931 
Q 1253 3009 1036 3598 
Q 819 4188 325 4488 
L 325 4863 
Q 1391 4450 1905 3731 
Q 2419 3013 2419 1931 
Q 2419 850 1898 122 
Q 1378 -606 325 -997 
z
" transform="scale(0.015625)"/>
      </defs>
      <use xlink:href="#DejaVuSerif-Bold-37"/>
      <use xlink:href="#DejaVuSerif-Bold-4c" transform="translate(74.421875 0)"/>
      <use xlink:href="#DejaVuSerif-Bold-50" transform="translate(112.40625 0)"/>
      <use xlink:href="#DejaVuSerif-Bold-48" transform="translate(218.21875 0)"/>
      <use xlink:href="#DejaVuSerif-Bold-3" transform="translate(281.84375 0)"/>
      <use xlink:href="#DejaVuSerif-Bold-12" transform="translate(316.65625 0)"/>
      <use xlink:href="#DejaVuSerif-Bold-3" transform="translate(353.1875 0)"/>
      <use xlink:href="#DejaVuSerif-Bold-24" transform="translate(388 0)"/>
      <use xlink:href="#DejaVuSerif-Bold-47" transform="translate(465.59375 0)"/>
      <use xlink:href="#DejaVuSerif-Bold-59" transform="translate(535.515625 0)"/>
      <use xlink:href="#DejaVuSerif-Bold-44" transform="translate(593.625 0)"/>
      <use xlink:href="#DejaVuSerif-Bold-51" transform="translate(658.421875 0)"/>
      <use xlink:href="#DejaVuSerif-Bold-46" transform="translate(731.125 0)"/>
      <use xlink:href="#DejaVuSerif-Bold-48" transform="translate(792.015625 0)"/>
      <use xlink:href="#DejaVuSerif-Bold-3" transform="translate(855.640625 0)"/>
      <use xlink:href="#DejaVuSerif-Bold-52" transform="translate(890.453125 0)"/>
      <use xlink:href="#DejaVuSerif-Bold-51" transform="translate(957.15625 0)"/>
      <use xlink:href="#DejaVuSerif-Bold-3" transform="translate(1029.859375 0)"/>
      <use xlink:href="#DejaVuSerif-Bold-2b" transform="translate(1064.671875 0)"/>
      <use xlink:href="#DejaVuSerif-Bold-34" transform="translate(1159.15625 0)"/>
      <use xlink:href="#DejaVuSerif-Bold-33" transform="translate(1246.265625 0)"/>
      <use xlink:href="#DejaVuSerif-Bold-38" transform="translate(1321.46875 0)"/>
      <use xlink:href="#DejaVuSerif-Bold-3" transform="translate(1408.671875 0)"/>
      <use xlink:href="#DejaVuSerif-Bold-26" transform="translate(1443.484375 0)"/>
      <use xlink:href="#DejaVuSerif-Bold-4b" transform="translate(1523.078125 0)"/>
      <use xlink:href="#DejaVuSerif-Bold-4c" transform="translate(1595.78125 0)"/>
      <use xlink:href="#DejaVuSerif-Bold-53" transform="translate(1633.765625 0)"/>
      <use xlink:href="#DejaVuSerif-Bold-3" transform="translate(1703.6875 0)"/>
      <use xlink:href="#DejaVuSerif-Bold-b" transform="translate(1738.5 0)"/>
      <use xlink:href="#DejaVuSerif-Bold-3c" transform="translate(1785.8125 0)"/>
      <use xlink:href="#DejaVuSerif-Bold-10" transform="translate(1847.140625 0)"/>
      <use xlink:href="#DejaVuSerif-Bold-24" transform="translate(1888.640625 0)"/>
      <use xlink:href="#DejaVuSerif-Bold-5b" transform="translate(1966.234375 0)"/>
      <use xlink:href="#DejaVuSerif-Bold-4c" transform="translate(2025.859375 0)"/>
      <use xlink:href="#DejaVuSerif-Bold-56" transform="translate(2063.84375 0)"/>
      <use xlink:href="#DejaVuSerif-Bold-c" transform="translate(2120.140625 0)"/>
     </g>
    </g>
   </g>
   <g id="matplotlib.axis_2">
    <g id="ytick_1">
     <g id="line2d_15">
      <path d="M 52.842344 340.067712 
L 655.616094 340.067712 
" clip-path="url(#p0b2dcd1e7d)" style="fill: none; stroke-dasharray: 2.96,1.28; stroke-dashoffset: 0; stroke: #d3d3d3; stroke-width: 0.8"/>
     </g>
     <g id="line2d_16">
      <defs>
       <path id="m754c27e7b2" d="M 0 0 
L -3.5 0 
" style="stroke: #000000; stroke-width: 0.8"/>
      </defs>
      <g>
       <use xlink:href="#m754c27e7b2" x="52.842344" y="340.067712" style="stroke: #000000; stroke-width: 0.8"/>
      </g>
     </g>
     <g id="text_9">
      <!-- −5 -->
      <g transform="translate(25.203281 345.386071) scale(0.14 -0.14)">
       <defs>
        <path id="DejaVuSerif-8cf" d="M 678 2259 
L 4684 2259 
L 4684 1753 
L 678 1753 
L 678 2259 
z
" transform="scale(0.015625)"/>
       </defs>
       <use xlink:href="#DejaVuSerif-8cf"/>
       <use xlink:href="#DejaVuSerif-18" transform="translate(83.796875 0)"/>
      </g>
     </g>
    </g>
    <g id="ytick_2">
     <g id="line2d_17">
      <path d="M 52.842344 291.998906 
L 655.616094 291.998906 
" clip-path="url(#p0b2dcd1e7d)" style="fill: none; stroke-dasharray: 2.96,1.28; stroke-dashoffset: 0; stroke: #d3d3d3; stroke-width: 0.8"/>
     </g>
     <g id="line2d_18">
      <g>
       <use xlink:href="#m754c27e7b2" x="52.842344" y="291.998906" style="stroke: #000000; stroke-width: 0.8"/>
      </g>
     </g>
     <g id="text_10">
      <!-- 0 -->
      <g transform="translate(36.934844 297.317265) scale(0.14 -0.14)">
       <use xlink:href="#DejaVuSerif-13"/>
      </g>
     </g>
    </g>
    <g id="ytick_3">
     <g id="line2d_19">
      <path d="M 52.842344 243.930099 
L 655.616094 243.930099 
" clip-path="url(#p0b2dcd1e7d)" style="fill: none; stroke-dasharray: 2.96,1.28; stroke-dashoffset: 0; stroke: #d3d3d3; stroke-width: 0.8"/>
     </g>
     <g id="line2d_20">
      <g>
       <use xlink:href="#m754c27e7b2" x="52.842344" y="243.930099" style="stroke: #000000; stroke-width: 0.8"/>
      </g>
     </g>
     <g id="text_11">
      <!-- 5 -->
      <g transform="translate(36.934844 249.248459) scale(0.14 -0.14)">
       <use xlink:href="#DejaVuSerif-18"/>
      </g>
     </g>
    </g>
    <g id="ytick_4">
     <g id="line2d_21">
      <path d="M 52.842344 195.861293 
L 655.616094 195.861293 
" clip-path="url(#p0b2dcd1e7d)" style="fill: none; stroke-dasharray: 2.96,1.28; stroke-dashoffset: 0; stroke: #d3d3d3; stroke-width: 0.8"/>
     </g>
     <g id="line2d_22">
      <g>
       <use xlink:href="#m754c27e7b2" x="52.842344" y="195.861293" style="stroke: #000000; stroke-width: 0.8"/>
      </g>
     </g>
     <g id="text_12">
      <!-- 10 -->
      <g transform="translate(28.027344 201.179652) scale(0.14 -0.14)">
       <use xlink:href="#DejaVuSerif-14"/>
       <use xlink:href="#DejaVuSerif-13" transform="translate(63.625 0)"/>
      </g>
     </g>
    </g>
    <g id="ytick_5">
     <g id="line2d_23">
      <path d="M 52.842344 147.792487 
L 655.616094 147.792487 
" clip-path="url(#p0b2dcd1e7d)" style="fill: none; stroke-dasharray: 2.96,1.28; stroke-dashoffset: 0; stroke: #d3d3d3; stroke-width: 0.8"/>
     </g>
     <g id="line2d_24">
      <g>
       <use xlink:href="#m754c27e7b2" x="52.842344" y="147.792487" style="stroke: #000000; stroke-width: 0.8"/>
      </g>
     </g>
     <g id="text_13">
      <!-- 15 -->
      <g transform="translate(28.027344 153.110846) scale(0.14 -0.14)">
       <use xlink:href="#DejaVuSerif-14"/>
       <use xlink:href="#DejaVuSerif-18" transform="translate(63.625 0)"/>
      </g>
     </g>
    </g>
    <g id="ytick_6">
     <g id="line2d_25">
      <path d="M 52.842344 99.723681 
L 655.616094 99.723681 
" clip-path="url(#p0b2dcd1e7d)" style="fill: none; stroke-dasharray: 2.96,1.28; stroke-dashoffset: 0; stroke: #d3d3d3; stroke-width: 0.8"/>
     </g>
     <g id="line2d_26">
      <g>
       <use xlink:href="#m754c27e7b2" x="52.842344" y="99.723681" style="stroke: #000000; stroke-width: 0.8"/>
      </g>
     </g>
     <g id="text_14">
      <!-- 20 -->
      <g transform="translate(28.027344 105.04204) scale(0.14 -0.14)">
       <use xlink:href="#DejaVuSerif-15"/>
       <use xlink:href="#DejaVuSerif-13" transform="translate(63.625 0)"/>
      </g>
     </g>
    </g>
    <g id="text_15">
     <!-- Pressure Amplitude (Medium Tension $\gamma$) -->
     <g transform="translate(17.84 372.829219) rotate(-90) scale(0.14 -0.14)">
      <defs>
       <path id="DejaVuSerif-Bold-55" d="M 3438 3359 
L 3438 2369 
L 3084 2369 
Q 3066 2634 2941 2764 
Q 2816 2894 2578 2894 
Q 2216 2894 2006 2575 
Q 1797 2256 1797 1691 
L 1797 378 
L 2400 378 
L 2400 0 
L 219 0 
L 219 378 
L 691 378 
L 691 2944 
L 184 2944 
L 184 3322 
L 1797 3322 
L 1797 2731 
Q 1959 3078 2226 3245 
Q 2494 3413 2881 3413 
Q 2978 3413 3117 3398 
Q 3256 3384 3438 3359 
z
" transform="scale(0.015625)"/>
       <path id="DejaVuSerif-Bold-58" d="M 3963 3322 
L 3963 378 
L 4434 378 
L 4434 0 
L 2853 0 
L 2853 469 
Q 2656 172 2400 40 
Q 2144 -91 1753 -91 
Q 1194 -91 908 239 
Q 622 569 622 1209 
L 622 2944 
L 147 2944 
L 147 3322 
L 1728 3322 
L 1728 1381 
Q 1728 763 1831 595 
Q 1934 428 2209 428 
Q 2544 428 2698 675 
Q 2853 922 2853 1459 
L 2853 2944 
L 2450 2944 
L 2450 3322 
L 3963 3322 
z
" transform="scale(0.015625)"/>
       <path id="DejaVuSerif-Bold-4f" d="M 1797 378 
L 2272 378 
L 2272 0 
L 219 0 
L 219 378 
L 691 378 
L 691 4488 
L 219 4488 
L 219 4863 
L 1797 4863 
L 1797 378 
z
" transform="scale(0.015625)"/>
       <path id="DejaVuSerif-Bold-57" d="M 634 2944 
L 153 2944 
L 153 3322 
L 634 3322 
L 634 4353 
L 1741 4353 
L 1741 3322 
L 2663 3322 
L 2663 2944 
L 1741 2944 
L 1741 909 
Q 1741 475 1809 369 
Q 1878 263 2059 263 
Q 2259 263 2356 397 
Q 2453 531 2459 813 
L 2925 813 
Q 2897 313 2651 111 
Q 2406 -91 1806 -91 
Q 1122 -91 878 123 
Q 634 338 634 909 
L 634 2944 
z
" transform="scale(0.015625)"/>
       <path id="DejaVuSerif-Bold-30" d="M 269 0 
L 269 378 
L 863 378 
L 863 4288 
L 269 4288 
L 269 4666 
L 2194 4666 
L 3525 1672 
L 4863 4666 
L 6784 4666 
L 6784 4288 
L 6188 4288 
L 6188 378 
L 6784 378 
L 6784 0 
L 4384 0 
L 4384 378 
L 4978 378 
L 4978 3938 
L 3531 684 
L 2741 684 
L 1300 3938 
L 1300 378 
L 1894 378 
L 1894 0 
L 269 0 
z
" transform="scale(0.015625)"/>
       <path id="Cmmi10-18" d="M 1888 -1253 
Q 1888 -1109 1952 -834 
Q 2016 -559 2108 -248 
Q 2200 63 2266 263 
Q 2291 581 2291 744 
Q 2291 1156 2209 1511 
Q 2128 1866 1903 2105 
Q 1678 2344 1275 2344 
Q 1063 2344 852 2253 
Q 641 2163 489 2000 
Q 338 1838 281 1631 
Q 269 1594 231 1594 
L 153 1594 
Q 103 1594 103 1650 
L 103 1672 
Q 175 1959 358 2226 
Q 541 2494 805 2661 
Q 1069 2828 1363 2828 
Q 1663 2828 1881 2625 
Q 2100 2422 2231 2109 
Q 2363 1797 2420 1478 
Q 2478 1159 2478 878 
Q 2800 1753 3200 2534 
L 3297 2741 
Q 3316 2759 3341 2759 
L 3419 2759 
Q 3469 2759 3469 2700 
Q 3469 2688 3456 2663 
L 3359 2463 
Q 3081 1909 2848 1340 
Q 2616 772 2450 244 
Q 2425 28 2354 -347 
Q 2284 -722 2184 -1045 
Q 2084 -1369 1984 -1381 
Q 1888 -1381 1888 -1253 
z
" transform="scale(0.015625)"/>
      </defs>
      <use xlink:href="#DejaVuSerif-Bold-33" transform="translate(0 0.015625)"/>
      <use xlink:href="#DejaVuSerif-Bold-55" transform="translate(75.195312 0.015625)"/>
      <use xlink:href="#DejaVuSerif-Bold-48" transform="translate(127.880859 0.015625)"/>
      <use xlink:href="#DejaVuSerif-Bold-56" transform="translate(191.503906 0.015625)"/>
      <use xlink:href="#DejaVuSerif-Bold-56" transform="translate(247.802734 0.015625)"/>
      <use xlink:href="#DejaVuSerif-Bold-58" transform="translate(304.101562 0.015625)"/>
      <use xlink:href="#DejaVuSerif-Bold-55" transform="translate(376.806641 0.015625)"/>
      <use xlink:href="#DejaVuSerif-Bold-48" transform="translate(429.492188 0.015625)"/>
      <use xlink:href="#DejaVuSerif-Bold-3" transform="translate(493.115234 0.015625)"/>
      <use xlink:href="#DejaVuSerif-Bold-24" transform="translate(527.929688 0.015625)"/>
      <use xlink:href="#DejaVuSerif-Bold-50" transform="translate(605.517578 0.015625)"/>
      <use xlink:href="#DejaVuSerif-Bold-53" transform="translate(711.328125 0.015625)"/>
      <use xlink:href="#DejaVuSerif-Bold-4f" transform="translate(781.25 0.015625)"/>
      <use xlink:href="#DejaVuSerif-Bold-4c" transform="translate(819.238281 0.015625)"/>
      <use xlink:href="#DejaVuSerif-Bold-57" transform="translate(857.226562 0.015625)"/>
      <use xlink:href="#DejaVuSerif-Bold-58" transform="translate(903.417969 0.015625)"/>
      <use xlink:href="#DejaVuSerif-Bold-47" transform="translate(976.123047 0.015625)"/>
      <use xlink:href="#DejaVuSerif-Bold-48" transform="translate(1046.044922 0.015625)"/>
      <use xlink:href="#DejaVuSerif-Bold-3" transform="translate(1109.667969 0.015625)"/>
      <use xlink:href="#DejaVuSerif-Bold-b" transform="translate(1144.482422 0.015625)"/>
      <use xlink:href="#DejaVuSerif-Bold-30" transform="translate(1191.796875 0.015625)"/>
      <use xlink:href="#DejaVuSerif-Bold-48" transform="translate(1302.490234 0.015625)"/>
      <use xlink:href="#DejaVuSerif-Bold-47" transform="translate(1366.113281 0.015625)"/>
      <use xlink:href="#DejaVuSerif-Bold-4c" transform="translate(1436.035156 0.015625)"/>
      <use xlink:href="#DejaVuSerif-Bold-58" transform="translate(1474.023438 0.015625)"/>
      <use xlink:href="#DejaVuSerif-Bold-50" transform="translate(1546.728516 0.015625)"/>
      <use xlink:href="#DejaVuSerif-Bold-3" transform="translate(1652.539062 0.015625)"/>
      <use xlink:href="#DejaVuSerif-Bold-37" transform="translate(1687.353516 0.015625)"/>
      <use xlink:href="#DejaVuSerif-Bold-48" transform="translate(1750.767578 0.015625)"/>
      <use xlink:href="#DejaVuSerif-Bold-51" transform="translate(1814.390625 0.015625)"/>
      <use xlink:href="#DejaVuSerif-Bold-56" transform="translate(1887.095703 0.015625)"/>
      <use xlink:href="#DejaVuSerif-Bold-4c" transform="translate(1943.394531 0.015625)"/>
      <use xlink:href="#DejaVuSerif-Bold-52" transform="translate(1981.382812 0.015625)"/>
      <use xlink:href="#DejaVuSerif-Bold-51" transform="translate(2048.082031 0.015625)"/>
      <use xlink:href="#DejaVuSerif-Bold-3" transform="translate(2120.787109 0.015625)"/>
      <use xlink:href="#Cmmi10-18" transform="translate(2155.601562 0.015625)"/>
      <use xlink:href="#DejaVuSerif-Bold-c" transform="translate(2207.310547 0.015625)"/>
     </g>
    </g>
   </g>
   <g id="line2d_27">
    <path d="M 53.244193 285.193324 
L 58.066383 284.546318 
L 62.486724 284.164652 
L 66.907065 283.995449 
L 71.729255 284.059862 
L 76.149595 284.343468 
L 80.971785 284.889529 
L 85.793975 285.666321 
L 91.018015 286.737294 
L 96.643903 288.112062 
L 103.475339 290.00405 
L 125.577043 296.345287 
L 131.60478 297.73736 
L 136.82882 298.711234 
L 141.65101 299.38612 
L 146.4732 299.821623 
L 150.89354 299.999478 
L 155.313881 299.960061 
L 159.734222 299.703374 
L 164.154563 299.238068 
L 168.976753 298.507422 
L 174.200792 297.47875 
L 179.82668 296.139553 
L 186.256267 294.390809 
L 199.919139 290.353991 
L 208.357971 288.005349 
L 214.385709 286.556555 
L 219.609748 285.521153 
L 224.431938 284.781855 
L 228.852279 284.307897 
L 233.27262 284.04448 
L 237.69296 283.995449 
L 242.113301 284.164652 
L 246.935491 284.592464 
L 251.355832 285.194285 
L 254.168776 285.674974 
L 254.972475 288.793678 
L 256.98172 298.123833 
L 257.38357 299.211149 
L 257.785419 299.794705 
L 258.187268 299.831237 
L 258.589117 299.319785 
L 258.990966 298.302649 
L 259.794665 295.101266 
L 261.402061 287.59388 
L 262.20576 285.254852 
L 262.607609 284.705906 
L 263.009458 284.592464 
L 263.411307 284.891452 
L 263.813156 285.557686 
L 264.616855 287.720782 
L 267.02795 295.527156 
L 267.831648 297.172071 
L 268.635346 298.119987 
L 269.037195 298.35937 
L 269.840894 298.468006 
L 270.644592 298.231507 
L 274.261235 296.60582 
L 275.466782 296.568326 
L 276.67233 296.805786 
L 278.681575 297.323007 
L 279.485274 297.314354 
L 280.288972 297.021135 
L 281.09267 296.346249 
L 281.896369 295.23682 
L 282.700067 293.714001 
L 285.513011 287.801538 
L 285.91486 287.372764 
L 286.31671 287.157416 
L 286.718559 287.173759 
L 287.120408 287.430446 
L 287.522257 287.92171 
L 288.325955 289.510864 
L 290.73705 295.596375 
L 291.1389 296.208772 
L 291.540749 296.590438 
L 291.942598 296.726953 
L 292.344447 296.617357 
L 292.746296 296.274145 
L 293.549995 295.005129 
L 294.755542 292.266168 
L 295.96109 289.586813 
L 296.764788 288.281264 
L 297.568486 287.496781 
L 298.372185 287.222789 
L 299.175883 287.366996 
L 299.979581 287.798653 
L 303.194375 290.006934 
L 303.998073 290.29727 
L 304.801771 290.410712 
L 305.60547 290.335725 
L 306.409168 290.073269 
L 307.614715 289.352237 
L 310.829509 286.882462 
L 311.633207 286.794977 
L 312.035056 286.943029 
L 312.436905 287.242978 
L 313.240604 288.332217 
L 314.044302 290.049235 
L 316.455397 296.311639 
L 316.857246 296.92692 
L 317.259095 297.266285 
L 317.660945 297.292243 
L 318.062794 296.990371 
L 318.464643 296.367399 
L 319.268341 294.304286 
L 321.277587 287.987083 
L 321.679436 287.245862 
L 322.081285 286.841123 
L 322.483135 286.796899 
L 322.884984 287.111269 
L 323.286833 287.753469 
L 324.090531 289.796393 
L 325.697928 294.671531 
L 326.501626 296.307793 
L 326.903475 296.762524 
L 327.305325 296.960568 
L 327.707174 296.911538 
L 328.109023 296.638507 
L 328.912721 295.560804 
L 330.118269 293.233313 
L 331.323816 290.929855 
L 332.127515 289.711792 
L 332.931213 288.821558 
L 333.734911 288.238002 
L 334.53861 287.904405 
L 335.744157 287.715014 
L 337.753403 287.760198 
L 339.762649 287.978431 
L 340.968196 288.310106 
L 341.771895 288.705231 
L 342.575593 289.294555 
L 343.379291 290.10884 
L 344.584839 291.727798 
L 346.594085 294.705179 
L 347.397783 295.493508 
L 347.799632 295.701165 
L 348.201481 295.759809 
L 348.60333 295.655019 
L 349.00518 295.383911 
L 349.808878 294.372543 
L 350.612576 292.879526 
L 352.219973 289.667569 
L 353.023671 288.646587 
L 353.42552 288.401436 
L 353.82737 288.353367 
L 354.229219 288.503342 
L 354.631068 288.838862 
L 361.462504 288.530261 
L 368.29394 288.452389 
L 374.723526 288.586982 
L 381.554962 288.937884 
L 389.591945 289.586813 
L 398.432627 290.519348 
L 428.973164 293.997607 
L 437.010147 294.598467 
L 444.243432 294.930142 
L 451.476717 295.044545 
L 458.710002 294.937833 
L 466.345136 294.599428 
L 474.38212 294.030293 
L 485.232047 293.013158 
L 512.95964 290.271313 
L 520.996623 289.739672 
L 528.631757 289.430109 
L 536.266891 289.33301 
L 543.500176 289.438761 
L 551.939009 289.790625 
L 561.18154 290.409751 
L 574.040713 291.531677 
L 594.93687 293.372712 
L 604.1794 293.955306 
L 612.618233 294.276406 
L 621.057065 294.369659 
L 629.897747 294.2168 
L 638.738429 293.831289 
L 648.784658 293.169862 
L 656.017943 292.597843 
L 656.017943 292.597843 
" clip-path="url(#p0b2dcd1e7d)" style="fill: none; stroke: #1f77b4; stroke-width: 2.5; stroke-linecap: square"/>
   </g>
   <g id="line2d_28">
    <path d="M 53.244193 285.193324 
L 58.066383 284.546318 
L 62.486724 284.164652 
L 66.907065 283.995449 
L 71.729255 284.059862 
L 76.149595 284.343468 
L 80.971785 284.889529 
L 85.793975 285.666321 
L 91.018015 286.737294 
L 96.643903 288.112062 
L 103.475339 290.00405 
L 125.577043 296.345287 
L 131.60478 297.73736 
L 136.82882 298.711234 
L 141.65101 299.38612 
L 146.4732 299.821623 
L 150.89354 299.999478 
L 155.313881 299.960061 
L 159.734222 299.703374 
L 164.154563 299.238068 
L 168.976753 298.507422 
L 174.200792 297.47875 
L 179.82668 296.139553 
L 186.256267 294.390809 
L 199.919139 290.353991 
L 208.357971 288.005349 
L 214.385709 286.556555 
L 219.609748 285.521153 
L 224.431938 284.781855 
L 228.852279 284.307897 
L 233.27262 284.04448 
L 237.69296 283.995449 
L 242.113301 284.164652 
L 246.935491 284.592464 
L 251.355832 285.194285 
L 254.168776 285.674974 
L 254.972475 288.787909 
L 256.98172 298.232468 
L 257.38357 299.377467 
L 257.785419 300.019667 
L 258.187268 300.109075 
L 258.589117 299.634155 
L 258.990966 298.623749 
L 259.794665 295.316615 
L 261.80391 285.480776 
L 262.20576 284.278094 
L 262.607609 283.536873 
L 263.009458 283.28307 
L 263.411307 283.510916 
L 263.813156 284.187725 
L 264.215005 285.255814 
L 265.018704 288.25723 
L 267.429799 298.334374 
L 268.233497 300.525351 
L 269.037195 301.882814 
L 269.439045 302.278901 
L 269.840894 302.516361 
L 270.644592 302.616344 
L 271.44829 302.401957 
L 273.055687 301.823208 
L 273.859385 301.765526 
L 274.663084 302.000102 
L 275.466782 302.575004 
L 276.27048 303.496003 
L 277.476028 305.376454 
L 278.681575 307.333816 
L 279.485274 308.172136 
L 279.887123 308.29327 
L 280.288972 308.134643 
L 280.690821 307.634727 
L 281.09267 306.736802 
L 281.49452 305.392798 
L 282.298218 301.25119 
L 283.101916 295.214709 
L 285.91486 271.02937 
L 286.31671 269.600765 
L 286.718559 269.238326 
L 287.120408 270.043959 
L 287.522257 272.051312 
L 287.924106 275.219047 
L 288.727805 284.460755 
L 290.73705 311.540798 
L 291.1389 315.047898 
L 291.540749 317.309055 
L 291.942598 318.206019 
L 292.344447 317.708026 
L 292.746296 315.874682 
L 293.148145 312.847308 
L 293.951844 304.079558 
L 295.96109 278.761718 
L 296.764788 271.896531 
L 297.166637 269.614224 
L 297.568486 268.103902 
L 297.970335 267.321342 
L 298.372185 267.193479 
L 298.774034 267.628021 
L 299.175883 268.523062 
L 299.979581 271.272598 
L 302.390676 281.006531 
L 303.194375 283.296529 
L 303.998073 284.79916 
L 304.399922 285.245238 
L 304.801771 285.489428 
L 305.20362 285.538458 
L 305.60547 285.397136 
L 306.007319 285.076036 
L 306.811017 283.940651 
L 307.614715 282.253436 
L 310.42766 275.441125 
L 310.829509 274.979664 
L 311.231358 274.824883 
L 311.633207 275.039269 
L 312.035056 275.676662 
L 312.436905 276.777437 
L 312.838755 278.366592 
L 313.642453 282.986966 
L 314.446151 289.199378 
L 316.053548 302.584618 
L 316.857246 306.991566 
L 317.259095 308.0212 
L 317.660945 308.114454 
L 318.062794 307.220374 
L 318.464643 305.35242 
L 319.268341 299.097707 
L 321.277587 279.211642 
L 321.679436 276.70245 
L 322.081285 275.22097 
L 322.483135 274.87872 
L 322.884984 275.707426 
L 323.286833 277.656135 
L 324.090531 284.327124 
L 326.501626 308.870095 
L 326.903475 311.095681 
L 327.305325 312.387771 
L 327.707174 312.717523 
L 328.109023 312.107049 
L 328.510872 310.624607 
L 328.912721 308.369218 
L 329.71642 302.049132 
L 331.323816 285.929738 
L 332.931213 270.485231 
L 334.53861 257.676817 
L 336.146006 245.056832 
L 336.949705 237.129325 
L 337.753403 226.678205 
L 338.557101 211.87109 
L 339.3608 189.288365 
L 339.762649 172.934395 
L 340.164498 150.781405 
L 340.566347 118.835838 
L 340.968196 74.237599 
L 341.370045 83.492767 
L 342.173744 110.508398 
L 342.977442 151.083277 
L 343.379291 176.938527 
L 344.18299 256.105928 
L 344.986688 302.545202 
L 345.790386 331.149987 
L 346.594085 348.357658 
L 346.995934 353.215492 
L 347.397783 355.656426 
L 347.799632 355.720838 
L 348.201481 353.482754 
L 348.60333 349.06427 
L 349.407029 334.528263 
L 350.612576 303.523883 
L 351.818124 272.320498 
L 352.621822 257.613366 
L 353.023671 253.146812 
L 353.42552 250.856814 
L 353.82737 250.786634 
L 354.229219 252.867052 
L 354.631068 256.916368 
L 357.042163 257.129794 
L 359.453258 257.590293 
L 361.864353 258.273831 
L 364.677297 259.323654 
L 367.490241 260.611898 
L 370.705035 262.339491 
L 374.321677 264.557386 
L 378.340169 267.297308 
L 383.162359 270.86882 
L 389.591945 275.920851 
L 402.852968 286.391199 
L 408.077007 290.206901 
L 412.899197 293.445777 
L 416.917689 295.891518 
L 420.93618 298.074803 
L 424.552823 299.79855 
L 428.169465 301.278108 
L 431.786108 302.506747 
L 435.40275 303.478698 
L 439.019393 304.192039 
L 442.234186 304.613122 
L 445.850829 304.851543 
L 449.467471 304.84962 
L 453.084114 304.619851 
L 457.102605 304.115129 
L 461.121097 303.373908 
L 465.541438 302.315433 
L 470.363628 300.918553 
L 475.989516 299.041947 
L 483.222801 296.384704 
L 498.09122 290.841409 
L 504.520807 288.721574 
L 509.744846 287.228557 
L 514.567036 286.073945 
L 519.389226 285.159676 
L 523.809567 284.546318 
L 528.229908 284.156961 
L 532.650249 283.991604 
L 537.07059 284.045441 
L 541.89278 284.344429 
L 546.71497 284.872224 
L 551.939009 285.674012 
L 557.966746 286.846891 
L 564.798182 288.410089 
L 578.059205 291.756639 
L 586.899886 293.888971 
L 593.329473 295.24355 
L 599.35721 296.294334 
L 604.983099 297.045169 
L 610.207138 297.523934 
L 615.833026 297.790235 
L 621.057065 297.804656 
L 626.281105 297.602767 
L 631.906993 297.158611 
L 637.532881 296.50776 
L 643.962468 295.555036 
L 652.80315 293.989916 
L 656.017943 293.379442 
L 656.017943 293.379442 
" clip-path="url(#p0b2dcd1e7d)" style="fill: none; stroke: #d62728; stroke-width: 2.5; stroke-linecap: square"/>
   </g>
   <g id="patch_4">
    <path d="M 52.842344 369.795 
L 52.842344 60.163438 
" style="fill: none; stroke: #000000; stroke-width: 1.5; stroke-linejoin: miter; stroke-linecap: square"/>
   </g>
   <g id="patch_5">
    <path d="M 52.842344 369.795 
L 655.616094 369.795 
" style="fill: none; stroke: #000000; stroke-width: 1.5; stroke-linejoin: miter; stroke-linecap: square"/>
   </g>
   <g id="text_16">
    <g id="patch_6">
     <path d="M 555.153802 296.07453 
L 687.806302 296.07453 
Q 693.806302 296.07453 693.806302 290.07453 
L 693.806302 261.268905 
Q 693.806302 255.268905 687.806302 255.268905 
L 555.153802 255.268905 
Q 549.153802 255.268905 549.153802 261.268905 
L 549.153802 290.07453 
Q 549.153802 296.07453 555.153802 296.07453 
z
" style="fill: #ffffff; stroke: #2ca02c; stroke-linejoin: miter"/>
    </g>
    <!-- ✓ Intact Frequency -->
    <g style="fill: #2ca02c" transform="translate(555.153802 271.587264) scale(0.12 -0.12)">
     <defs>
      <path id="LastResortHE-Regular-5a" d="M 6734 -747 
L 6734 4250 
Q 6734 4409 6659 4534 
Q 6584 4663 6456 4738 
Q 6328 4813 6172 4813 
L 1175 4813 
Q 1019 4813 891 4738 
Q 763 4663 688 4534 
Q 613 4406 613 4250 
L 613 -747 
Q 613 -903 688 -1031 
Q 763 -1159 891 -1234 
Q 1019 -1309 1175 -1309 
L 6172 -1309 
Q 6331 -1309 6456 -1234 
Q 6584 -1159 6659 -1031 
Q 6734 -903 6734 -747 
z
M 5144 4619 
L 5078 4619 
Q 5072 4672 5041 4672 
Q 4997 4672 4997 4628 
Q 4997 4597 5041 4553 
L 5069 4528 
Q 5141 4466 5141 4375 
Q 5141 4266 5041 4266 
L 4981 4266 
Q 4881 4266 4881 4381 
L 4944 4381 
L 4944 4369 
L 4959 4341 
L 4972 4334 
Q 4975 4331 4988 4331 
Q 5000 4331 5012 4342 
Q 5025 4353 5025 4366 
Q 5025 4394 4981 4447 
L 4956 4475 
Q 4881 4559 4881 4628 
Q 4881 4738 4981 4738 
L 5041 4738 
Q 5134 4738 5144 4619 
z
M 4728 4669 
L 4728 4266 
L 4613 4266 
L 4613 4669 
L 4513 4669 
L 4513 4738 
L 4825 4738 
L 4825 4669 
L 4728 4669 
z
M 4325 4266 
L 4325 4469 
L 4238 4469 
L 4238 4266 
L 4125 4266 
L 4125 4631 
Q 4125 4738 4225 4738 
L 4338 4738 
Q 4438 4738 4438 4628 
L 4438 4266 
L 4325 4266 
z
M 4022 4375 
Q 4022 4266 3916 4266 
L 3709 4266 
L 3709 4738 
L 3916 4738 
Q 4022 4738 4022 4603 
Q 4022 4528 3956 4503 
Q 4022 4481 4022 4375 
z
M 3603 4375 
Q 3603 4266 3497 4266 
L 3397 4266 
Q 3291 4266 3291 4375 
L 3291 4628 
Q 3291 4738 3397 4738 
L 3497 4738 
Q 3597 4738 3603 4619 
L 3541 4619 
Q 3538 4669 3497 4669 
L 3450 4669 
L 3419 4656 
L 3403 4625 
L 3403 4375 
L 3419 4344 
L 3447 4331 
Q 3491 4338 3491 4375 
L 3491 4469 
L 3441 4469 
L 3441 4534 
L 3603 4534 
L 3603 4375 
z
M 3159 4266 
L 2894 4509 
L 2894 4266 
L 2828 4266 
L 2828 4738 
L 2863 4738 
L 3128 4494 
L 3128 4738 
L 3194 4738 
L 3194 4266 
L 3159 4266 
z
M 2516 4628 
L 2516 4375 
Q 2516 4266 2413 4266 
L 2200 4266 
L 2200 4738 
L 2413 4738 
Q 2516 4738 2516 4628 
z
M 2619 4266 
L 2619 4738 
L 2722 4738 
L 2722 4266 
L 2619 4266 
z
M 2400 4625 
L 2388 4656 
L 2356 4669 
L 2316 4669 
L 2316 4331 
L 2356 4331 
L 2388 4344 
L 2400 4375 
L 2400 4625 
z
M 3909 4625 
L 3894 4656 
L 3866 4669 
L 3822 4669 
L 3822 4534 
L 3866 4534 
L 3894 4547 
L 3909 4578 
L 3909 4625 
z
M 4325 4625 
L 4309 4656 
L 4281 4669 
L 4253 4656 
L 4238 4625 
L 4238 4534 
L 4325 4534 
L 4325 4625 
z
M 3909 4425 
Q 3909 4469 3866 4469 
L 3822 4469 
L 3822 4331 
L 3866 4331 
L 3894 4344 
L 3909 4375 
L 3909 4425 
z
M 6122 3750 
L 6122 -247 
Q 6122 -372 6063 -472 
Q 6003 -575 5900 -636 
Q 5797 -697 5672 -697 
L 1672 -697 
Q 1553 -697 1447 -634 
Q 1344 -572 1283 -470 
Q 1222 -369 1222 -247 
L 1222 3750 
Q 1222 3872 1284 3978 
Q 1347 4078 1448 4139 
Q 1550 4200 1672 4200 
L 5672 4200 
Q 5800 4200 5900 4141 
Q 6000 4081 6061 3978 
Q 6122 3875 6122 3750 
z
M 5353 1747 
Q 5353 1884 4400 1919 
L 4075 2363 
Q 4228 2384 4259 2403 
L 4272 2434 
L 4272 2478 
L 4256 2513 
Q 4078 2541 3950 2541 
L 3734 2819 
Q 3775 2825 3806 2833 
Q 3838 2841 3859 2844 
Q 3884 2850 3898 2853 
Q 3913 2856 3919 2859 
L 3934 2891 
L 3934 2938 
L 3919 2969 
Q 3731 2997 3609 2997 
L 3397 3297 
Q 3300 3391 3084 3391 
Q 3572 2309 3572 2006 
Q 3572 1972 3491 1947 
Q 3406 1922 3279 1905 
Q 3153 1888 3013 1878 
Q 2869 1866 2748 1858 
Q 2628 1850 2566 1847 
L 2256 2297 
L 1991 2344 
L 2181 1784 
Q 2075 1781 2050 1747 
Q 2075 1716 2181 1713 
L 1991 1159 
L 2256 1200 
L 2566 1653 
Q 2878 1634 3103 1618 
Q 3328 1603 3450 1578 
Q 3572 1556 3572 1497 
Q 3572 1200 3084 113 
Q 3309 113 3397 200 
L 3609 506 
Q 3894 516 3916 528 
L 3934 566 
L 3934 609 
L 3922 641 
L 3897 656 
L 3734 684 
L 3950 963 
Q 4019 966 4072 969 
Q 4125 972 4166 975 
Q 4206 978 4228 981 
Q 4250 984 4256 988 
L 4272 1022 
L 4272 1066 
L 4259 1094 
L 4241 1109 
Q 4125 1125 4075 1138 
L 4400 1578 
Q 5353 1613 5353 1747 
z
M 759 2431 
L 759 2491 
Q 759 2531 859 2641 
Q 959 2741 959 2800 
L 947 2834 
L 916 2847 
L 869 2847 
Q 831 2847 825 2794 
L 759 2794 
Q 775 2916 869 2916 
L 969 2916 
Q 1075 2916 1075 2775 
Q 1075 2731 978 2634 
Q 878 2534 875 2500 
L 1075 2500 
L 1075 2431 
L 759 2431 
z
M 6269 2431 
L 6269 2491 
Q 6269 2531 6369 2641 
Q 6469 2741 6469 2800 
L 6456 2834 
L 6425 2847 
L 6375 2847 
Q 6334 2847 6334 2794 
L 6269 2794 
Q 6284 2916 6375 2916 
L 6475 2916 
Q 6584 2916 6584 2775 
Q 6584 2731 6488 2634 
Q 6388 2534 6384 2500 
L 6584 2500 
L 6584 2431 
L 6269 2431 
z
M 6550 2125 
Q 6484 1994 6484 1822 
L 6369 1822 
L 6369 1934 
Q 6369 1981 6469 2197 
L 6469 2238 
L 6269 2238 
L 6269 2306 
L 6584 2306 
L 6584 2194 
L 6550 2125 
z
M 1041 2125 
Q 975 1994 975 1822 
L 859 1822 
L 859 1934 
Q 859 1981 959 2197 
L 959 2238 
L 759 2238 
L 759 2306 
L 1075 2306 
L 1075 2194 
L 1041 2125 
z
M 6600 1316 
Q 6600 1203 6481 1203 
L 6253 1203 
L 6253 1694 
L 6481 1694 
Q 6600 1694 6600 1553 
Q 6600 1475 6525 1450 
Q 6600 1428 6600 1316 
z
M 1091 1581 
L 1091 1316 
Q 1091 1203 978 1203 
L 856 1203 
Q 744 1203 744 1313 
L 744 1584 
Q 744 1694 856 1694 
L 978 1694 
Q 1091 1694 1091 1581 
z
M 966 1578 
L 950 1613 
L 919 1625 
L 884 1613 
L 872 1578 
L 872 1319 
L 884 1288 
L 919 1272 
L 950 1288 
L 966 1319 
L 966 1578 
z
M 6472 1578 
L 6459 1613 
L 6425 1625 
L 6378 1625 
L 6378 1484 
L 6425 1484 
L 6459 1497 
L 6472 1528 
L 6472 1578 
z
M 6472 1369 
Q 6472 1416 6425 1416 
L 6378 1416 
L 6378 1272 
L 6425 1272 
L 6459 1288 
L 6472 1319 
L 6472 1369 
z
M 6391 991 
L 6391 881 
L 6538 881 
L 6538 794 
L 6391 794 
L 6391 588 
L 6263 588 
L 6263 1078 
L 6581 1078 
L 6581 991 
L 6391 991 
z
M 1091 963 
L 1091 700 
Q 1091 588 978 588 
L 856 588 
Q 744 588 744 694 
L 744 969 
Q 744 1075 856 1075 
L 978 1075 
Q 1091 1075 1091 963 
z
M 966 963 
L 950 994 
L 919 1006 
L 884 994 
L 872 963 
L 872 703 
L 884 669 
L 919 656 
L 950 669 
L 966 703 
L 966 963 
z
M 4325 -1234 
L 4325 -1031 
L 4238 -1031 
L 4238 -1234 
L 4125 -1234 
L 4125 -869 
Q 4125 -763 4225 -763 
L 4338 -763 
Q 4438 -763 4438 -872 
L 4438 -1234 
L 4325 -1234 
z
M 3159 -1234 
L 2894 -991 
L 2894 -1234 
L 2828 -1234 
L 2828 -763 
L 2863 -763 
L 3128 -1006 
L 3128 -763 
L 3194 -763 
L 3194 -1234 
L 3159 -1234 
z
M 2619 -1234 
L 2619 -763 
L 2722 -763 
L 2722 -1234 
L 2619 -1234 
z
M 2516 -872 
L 2516 -1125 
Q 2516 -1234 2413 -1234 
L 2200 -1234 
L 2200 -763 
L 2413 -763 
Q 2516 -763 2516 -872 
z
M 3603 -1125 
Q 3603 -1234 3497 -1234 
L 3397 -1234 
Q 3291 -1234 3291 -1125 
L 3291 -872 
Q 3291 -763 3397 -763 
L 3497 -763 
Q 3597 -763 3603 -881 
L 3541 -881 
Q 3538 -831 3497 -831 
L 3450 -831 
L 3419 -844 
L 3403 -875 
L 3403 -1125 
L 3419 -1156 
L 3447 -1169 
Q 3491 -1163 3491 -1125 
L 3491 -1031 
L 3441 -1031 
L 3441 -966 
L 3603 -966 
L 3603 -1125 
z
M 4022 -1125 
Q 4022 -1234 3916 -1234 
L 3709 -1234 
L 3709 -763 
L 3916 -763 
Q 4022 -763 4022 -897 
Q 4022 -972 3956 -997 
Q 4022 -1019 4022 -1125 
z
M 4728 -831 
L 4728 -1234 
L 4613 -1234 
L 4613 -831 
L 4513 -831 
L 4513 -763 
L 4825 -763 
L 4825 -831 
L 4728 -831 
z
M 5144 -881 
L 5078 -881 
Q 5072 -828 5041 -828 
Q 4997 -828 4997 -872 
Q 4997 -903 5041 -947 
L 5069 -972 
Q 5141 -1034 5141 -1125 
Q 5141 -1234 5041 -1234 
L 4981 -1234 
Q 4881 -1234 4881 -1119 
L 4944 -1119 
L 4944 -1131 
L 4959 -1159 
L 4972 -1166 
Q 4975 -1169 4988 -1169 
Q 5000 -1169 5012 -1158 
Q 5025 -1147 5025 -1134 
Q 5025 -1106 4981 -1053 
L 4956 -1025 
Q 4881 -941 4881 -872 
Q 4881 -763 4981 -763 
L 5041 -763 
Q 5134 -763 5144 -881 
z
M 4325 -875 
L 4309 -844 
L 4281 -831 
L 4253 -844 
L 4238 -875 
L 4238 -966 
L 4325 -966 
L 4325 -875 
z
M 3909 -875 
L 3894 -844 
L 3866 -831 
L 3822 -831 
L 3822 -966 
L 3866 -966 
L 3894 -953 
L 3909 -922 
L 3909 -875 
z
M 2400 -875 
L 2388 -844 
L 2356 -831 
L 2316 -831 
L 2316 -1169 
L 2356 -1169 
L 2388 -1156 
L 2400 -1125 
L 2400 -875 
z
M 3909 -1075 
Q 3909 -1031 3866 -1031 
L 3822 -1031 
L 3822 -1169 
L 3866 -1169 
L 3894 -1156 
L 3909 -1125 
L 3909 -1075 
z
" transform="scale(0.015625)"/>
      <path id="DejaVuSerif-Bold-2c" d="M 300 0 
L 300 378 
L 897 378 
L 897 4288 
L 300 4288 
L 300 4666 
L 2700 4666 
L 2700 4288 
L 2100 4288 
L 2100 378 
L 2700 378 
L 2700 0 
L 300 0 
z
" transform="scale(0.015625)"/>
      <path id="DejaVuSerif-Bold-29" d="M 300 0 
L 300 378 
L 897 378 
L 897 4288 
L 300 4288 
L 300 4666 
L 4459 4666 
L 4459 3566 
L 4031 3566 
L 4031 4238 
L 2106 4238 
L 2106 2741 
L 3291 2741 
L 3291 3334 
L 3719 3334 
L 3719 1722 
L 3291 1722 
L 3291 2316 
L 2106 2316 
L 2106 378 
L 2841 378 
L 2841 0 
L 300 0 
z
" transform="scale(0.015625)"/>
      <path id="DejaVuSerif-Bold-54" d="M 3853 2944 
L 3853 -953 
L 4325 -953 
L 4325 -1331 
L 2234 -1331 
L 2234 -953 
L 2747 -953 
L 2747 422 
Q 2606 163 2367 36 
Q 2128 -91 1778 -91 
Q 1072 -91 667 378 
Q 263 847 263 1663 
Q 263 2481 667 2947 
Q 1072 3413 1778 3413 
Q 2128 3413 2367 3286 
Q 2606 3159 2747 2900 
L 2747 3322 
L 4325 3322 
L 4325 2944 
L 3853 2944 
z
M 2747 1825 
Q 2747 2406 2597 2665 
Q 2447 2925 2119 2925 
Q 1775 2925 1636 2651 
Q 1497 2378 1497 1663 
Q 1497 947 1637 672 
Q 1778 397 2119 397 
Q 2447 397 2597 656 
Q 2747 916 2747 1497 
L 2747 1825 
z
" transform="scale(0.015625)"/>
      <path id="DejaVuSerif-Bold-5c" d="M 1997 -750 
Q 1847 -1116 1634 -1269 
Q 1422 -1422 1063 -1422 
Q 909 -1422 721 -1387 
Q 534 -1353 313 -1288 
L 313 -594 
L 666 -597 
Q 675 -838 779 -953 
Q 884 -1069 1094 -1069 
Q 1297 -1069 1422 -958 
Q 1547 -847 1672 -538 
L 1722 -422 
L 275 2944 
L -84 2944 
L -84 3322 
L 1831 3322 
L 1831 2944 
L 1434 2944 
L 2278 978 
L 3066 2944 
L 2625 2944 
L 2625 3322 
L 3872 3322 
L 3872 2944 
L 3469 2944 
L 1997 -750 
z
" transform="scale(0.015625)"/>
     </defs>
     <use xlink:href="#LastResortHE-Regular-5a"/>
     <use xlink:href="#DejaVuSerif-Bold-3" transform="translate(114.75 0)"/>
     <use xlink:href="#DejaVuSerif-Bold-2c" transform="translate(149.5625 0)"/>
     <use xlink:href="#DejaVuSerif-Bold-51" transform="translate(196.34375 0)"/>
     <use xlink:href="#DejaVuSerif-Bold-57" transform="translate(269.046875 0)"/>
     <use xlink:href="#DejaVuSerif-Bold-44" transform="translate(315.234375 0)"/>
     <use xlink:href="#DejaVuSerif-Bold-46" transform="translate(380.03125 0)"/>
     <use xlink:href="#DejaVuSerif-Bold-57" transform="translate(440.921875 0)"/>
     <use xlink:href="#DejaVuSerif-Bold-3" transform="translate(487.109375 0)"/>
     <use xlink:href="#DejaVuSerif-Bold-29" transform="translate(521.921875 0)"/>
     <use xlink:href="#DejaVuSerif-Bold-55" transform="translate(591.171875 0)"/>
     <use xlink:href="#DejaVuSerif-Bold-48" transform="translate(643.859375 0)"/>
     <use xlink:href="#DejaVuSerif-Bold-54" transform="translate(707.484375 0)"/>
     <use xlink:href="#DejaVuSerif-Bold-58" transform="translate(777.40625 0)"/>
     <use xlink:href="#DejaVuSerif-Bold-48" transform="translate(850.109375 0)"/>
     <use xlink:href="#DejaVuSerif-Bold-51" transform="translate(913.734375 0)"/>
     <use xlink:href="#DejaVuSerif-Bold-46" transform="translate(986.4375 0)"/>
     <use xlink:href="#DejaVuSerif-Bold-5c" transform="translate(1047.328125 0)"/>
    </g>
    <!-- ✓ No Collapse -->
    <g style="fill: #2ca02c" transform="translate(555.153802 285.990545) scale(0.12 -0.12)">
     <defs>
      <path id="DejaVuSerif-Bold-31" d="M 281 0 
L 281 378 
L 878 378 
L 878 4288 
L 281 4288 
L 281 4666 
L 1741 4666 
L 4556 1363 
L 4556 4288 
L 3963 4288 
L 3963 4666 
L 5594 4666 
L 5594 4288 
L 4997 4288 
L 4997 0 
L 4178 0 
L 1319 3372 
L 1319 378 
L 1913 378 
L 1913 0 
L 281 0 
z
" transform="scale(0.015625)"/>
     </defs>
     <use xlink:href="#LastResortHE-Regular-5a"/>
     <use xlink:href="#DejaVuSerif-Bold-3" transform="translate(114.75 0)"/>
     <use xlink:href="#DejaVuSerif-Bold-31" transform="translate(149.5625 0)"/>
     <use xlink:href="#DejaVuSerif-Bold-52" transform="translate(240.96875 0)"/>
     <use xlink:href="#DejaVuSerif-Bold-3" transform="translate(307.671875 0)"/>
     <use xlink:href="#DejaVuSerif-Bold-26" transform="translate(342.484375 0)"/>
     <use xlink:href="#DejaVuSerif-Bold-52" transform="translate(422.078125 0)"/>
     <use xlink:href="#DejaVuSerif-Bold-4f" transform="translate(488.78125 0)"/>
     <use xlink:href="#DejaVuSerif-Bold-4f" transform="translate(526.765625 0)"/>
     <use xlink:href="#DejaVuSerif-Bold-44" transform="translate(564.75 0)"/>
     <use xlink:href="#DejaVuSerif-Bold-53" transform="translate(629.546875 0)"/>
     <use xlink:href="#DejaVuSerif-Bold-56" transform="translate(699.46875 0)"/>
     <use xlink:href="#DejaVuSerif-Bold-48" transform="translate(755.765625 0)"/>
    </g>
   </g>
   <g id="text_17">
    <!-- Quantum Non-Demolition (QND) Measurement: -->
    <g transform="translate(138.972969 20.959063) scale(0.16 -0.16)">
     <defs>
      <path id="DejaVuSerif-Bold-27" d="M 2100 378 
L 2534 378 
Q 3266 378 3605 847 
Q 3944 1316 3944 2338 
Q 3944 3353 3606 3820 
Q 3269 4288 2534 4288 
L 2100 4288 
L 2100 378 
z
M 300 0 
L 300 378 
L 897 378 
L 897 4288 
L 300 4288 
L 300 4666 
L 2694 4666 
Q 3950 4666 4615 4066 
Q 5281 3466 5281 2338 
Q 5281 1203 4614 601 
Q 3947 0 2694 0 
L 300 0 
z
" transform="scale(0.015625)"/>
      <path id="DejaVuSerif-Bold-1d" d="M 588 2541 
Q 588 2788 761 2963 
Q 934 3138 1178 3138 
Q 1422 3138 1597 2961 
Q 1772 2784 1772 2541 
Q 1772 2297 1598 2125 
Q 1425 1953 1178 1953 
Q 931 1953 759 2125 
Q 588 2297 588 2541 
z
M 588 506 
Q 588 750 761 925 
Q 934 1100 1178 1100 
Q 1422 1100 1597 925 
Q 1772 750 1772 506 
Q 1772 259 1597 84 
Q 1422 -91 1178 -91 
Q 934 -91 761 84 
Q 588 259 588 506 
z
" transform="scale(0.015625)"/>
     </defs>
     <use xlink:href="#DejaVuSerif-Bold-34"/>
     <use xlink:href="#DejaVuSerif-Bold-58" transform="translate(87.109375 0)"/>
     <use xlink:href="#DejaVuSerif-Bold-44" transform="translate(159.8125 0)"/>
     <use xlink:href="#DejaVuSerif-Bold-51" transform="translate(224.609375 0)"/>
     <use xlink:href="#DejaVuSerif-Bold-57" transform="translate(297.3125 0)"/>
     <use xlink:href="#DejaVuSerif-Bold-58" transform="translate(343.5 0)"/>
     <use xlink:href="#DejaVuSerif-Bold-50" transform="translate(416.203125 0)"/>
     <use xlink:href="#DejaVuSerif-Bold-3" transform="translate(522.015625 0)"/>
     <use xlink:href="#DejaVuSerif-Bold-31" transform="translate(556.828125 0)"/>
     <use xlink:href="#DejaVuSerif-Bold-52" transform="translate(648.234375 0)"/>
     <use xlink:href="#DejaVuSerif-Bold-51" transform="translate(714.9375 0)"/>
     <use xlink:href="#DejaVuSerif-Bold-10" transform="translate(787.640625 0)"/>
     <use xlink:href="#DejaVuSerif-Bold-27" transform="translate(829.140625 0)"/>
     <use xlink:href="#DejaVuSerif-Bold-48" transform="translate(915.859375 0)"/>
     <use xlink:href="#DejaVuSerif-Bold-50" transform="translate(979.484375 0)"/>
     <use xlink:href="#DejaVuSerif-Bold-52" transform="translate(1085.296875 0)"/>
     <use xlink:href="#DejaVuSerif-Bold-4f" transform="translate(1152 0)"/>
     <use xlink:href="#DejaVuSerif-Bold-4c" transform="translate(1189.984375 0)"/>
     <use xlink:href="#DejaVuSerif-Bold-57" transform="translate(1227.96875 0)"/>
     <use xlink:href="#DejaVuSerif-Bold-4c" transform="translate(1274.15625 0)"/>
     <use xlink:href="#DejaVuSerif-Bold-52" transform="translate(1312.140625 0)"/>
     <use xlink:href="#DejaVuSerif-Bold-51" transform="translate(1378.84375 0)"/>
     <use xlink:href="#DejaVuSerif-Bold-3" transform="translate(1451.546875 0)"/>
     <use xlink:href="#DejaVuSerif-Bold-b" transform="translate(1486.359375 0)"/>
     <use xlink:href="#DejaVuSerif-Bold-34" transform="translate(1533.671875 0)"/>
     <use xlink:href="#DejaVuSerif-Bold-31" transform="translate(1620.78125 0)"/>
     <use xlink:href="#DejaVuSerif-Bold-27" transform="translate(1712.1875 0)"/>
     <use xlink:href="#DejaVuSerif-Bold-c" transform="translate(1798.90625 0)"/>
     <use xlink:href="#DejaVuSerif-Bold-3" transform="translate(1846.21875 0)"/>
     <use xlink:href="#DejaVuSerif-Bold-30" transform="translate(1881.03125 0)"/>
     <use xlink:href="#DejaVuSerif-Bold-48" transform="translate(1991.71875 0)"/>
     <use xlink:href="#DejaVuSerif-Bold-44" transform="translate(2055.34375 0)"/>
     <use xlink:href="#DejaVuSerif-Bold-56" transform="translate(2120.140625 0)"/>
     <use xlink:href="#DejaVuSerif-Bold-58" transform="translate(2176.4375 0)"/>
     <use xlink:href="#DejaVuSerif-Bold-55" transform="translate(2249.140625 0)"/>
     <use xlink:href="#DejaVuSerif-Bold-48" transform="translate(2301.828125 0)"/>
     <use xlink:href="#DejaVuSerif-Bold-50" transform="translate(2365.453125 0)"/>
     <use xlink:href="#DejaVuSerif-Bold-48" transform="translate(2471.265625 0)"/>
     <use xlink:href="#DejaVuSerif-Bold-51" transform="translate(2534.890625 0)"/>
     <use xlink:href="#DejaVuSerif-Bold-57" transform="translate(2607.59375 0)"/>
     <use xlink:href="#DejaVuSerif-Bold-1d" transform="translate(2653.78125 0)"/>
    </g>
    <!-- Analytical Thermodynamic Wake Reading -->
    <g transform="translate(167.586719 40.163437) scale(0.16 -0.16)">
     <defs>
      <path id="DejaVuSerif-Bold-3a" d="M 5453 0 
L 4647 0 
L 3591 3397 
L 2534 0 
L 1728 0 
L 397 4288 
L -56 4288 
L -56 4666 
L 2156 4666 
L 2156 4288 
L 1656 4288 
L 2547 1422 
L 3553 4666 
L 4441 4666 
L 5466 1369 
L 6375 4288 
L 5819 4288 
L 5819 4666 
L 7263 4666 
L 7263 4288 
L 6784 4288 
L 5453 0 
z
" transform="scale(0.015625)"/>
      <path id="DejaVuSerif-Bold-4e" d="M 2216 0 
L 219 0 
L 219 378 
L 691 378 
L 691 4488 
L 219 4488 
L 219 4863 
L 1797 4863 
L 1797 1741 
L 3138 2944 
L 2741 2944 
L 2741 3322 
L 4256 3322 
L 4256 2944 
L 3641 2944 
L 2784 2175 
L 4184 378 
L 4544 378 
L 4544 0 
L 2638 0 
L 2638 378 
L 3028 378 
L 2106 1563 
L 1797 1288 
L 1797 378 
L 2216 378 
L 2216 0 
z
" transform="scale(0.015625)"/>
      <path id="DejaVuSerif-Bold-35" d="M 3397 2278 
Q 3675 2238 3865 2094 
Q 4056 1950 4197 1678 
L 4878 378 
L 5356 378 
L 5356 0 
L 3822 0 
L 3078 1409 
Q 2863 1847 2711 1967 
Q 2559 2088 2291 2088 
L 2100 2088 
L 2100 378 
L 2700 378 
L 2700 0 
L 300 0 
L 300 378 
L 897 378 
L 897 4288 
L 300 4288 
L 300 4666 
L 2963 4666 
Q 3775 4666 4217 4339 
Q 4659 4013 4659 3413 
Q 4659 2925 4345 2642 
Q 4031 2359 3397 2278 
z
M 2100 2463 
L 2509 2463 
Q 2947 2463 3183 2700 
Q 3419 2938 3419 3378 
Q 3419 3819 3183 4053 
Q 2947 4288 2509 4288 
L 2100 4288 
L 2100 2463 
z
" transform="scale(0.015625)"/>
      <path id="DejaVuSerif-Bold-4a" d="M 3853 2944 
L 3853 44 
Q 3853 -656 3354 -1039 
Q 2856 -1422 1947 -1422 
Q 1616 -1422 1275 -1370 
Q 934 -1319 575 -1216 
L 575 -422 
L 928 -422 
Q 975 -750 1192 -909 
Q 1409 -1069 1813 -1069 
Q 2325 -1069 2536 -823 
Q 2747 -578 2747 44 
L 2747 422 
Q 2606 163 2367 36 
Q 2128 -91 1778 -91 
Q 1072 -91 667 378 
Q 263 847 263 1663 
Q 263 2481 667 2947 
Q 1072 3413 1778 3413 
Q 2128 3413 2367 3286 
Q 2606 3159 2747 2900 
L 2747 3322 
L 4325 3322 
L 4325 2944 
L 3853 2944 
z
M 2747 1825 
Q 2747 2406 2597 2665 
Q 2447 2925 2119 2925 
Q 1775 2925 1636 2651 
Q 1497 2378 1497 1663 
Q 1497 947 1637 672 
Q 1778 397 2119 397 
Q 2447 397 2597 656 
Q 2747 916 2747 1497 
L 2747 1825 
z
" transform="scale(0.015625)"/>
     </defs>
     <use xlink:href="#DejaVuSerif-Bold-24"/>
     <use xlink:href="#DejaVuSerif-Bold-51" transform="translate(77.59375 0)"/>
     <use xlink:href="#DejaVuSerif-Bold-44" transform="translate(150.296875 0)"/>
     <use xlink:href="#DejaVuSerif-Bold-4f" transform="translate(215.09375 0)"/>
     <use xlink:href="#DejaVuSerif-Bold-5c" transform="translate(253.078125 0)"/>
     <use xlink:href="#DejaVuSerif-Bold-57" transform="translate(311.1875 0)"/>
     <use xlink:href="#DejaVuSerif-Bold-4c" transform="translate(357.375 0)"/>
     <use xlink:href="#DejaVuSerif-Bold-46" transform="translate(395.359375 0)"/>
     <use xlink:href="#DejaVuSerif-Bold-44" transform="translate(456.25 0)"/>
     <use xlink:href="#DejaVuSerif-Bold-4f" transform="translate(521.046875 0)"/>
     <use xlink:href="#DejaVuSerif-Bold-3" transform="translate(559.03125 0)"/>
     <use xlink:href="#DejaVuSerif-Bold-37" transform="translate(593.84375 0)"/>
     <use xlink:href="#DejaVuSerif-Bold-4b" transform="translate(668.265625 0)"/>
     <use xlink:href="#DejaVuSerif-Bold-48" transform="translate(740.96875 0)"/>
     <use xlink:href="#DejaVuSerif-Bold-55" transform="translate(804.59375 0)"/>
     <use xlink:href="#DejaVuSerif-Bold-50" transform="translate(857.28125 0)"/>
     <use xlink:href="#DejaVuSerif-Bold-52" transform="translate(963.09375 0)"/>
     <use xlink:href="#DejaVuSerif-Bold-47" transform="translate(1029.796875 0)"/>
     <use xlink:href="#DejaVuSerif-Bold-5c" transform="translate(1099.71875 0)"/>
     <use xlink:href="#DejaVuSerif-Bold-51" transform="translate(1157.828125 0)"/>
     <use xlink:href="#DejaVuSerif-Bold-44" transform="translate(1230.53125 0)"/>
     <use xlink:href="#DejaVuSerif-Bold-50" transform="translate(1295.328125 0)"/>
     <use xlink:href="#DejaVuSerif-Bold-4c" transform="translate(1401.140625 0)"/>
     <use xlink:href="#DejaVuSerif-Bold-46" transform="translate(1439.125 0)"/>
     <use xlink:href="#DejaVuSerif-Bold-3" transform="translate(1500.015625 0)"/>
     <use xlink:href="#DejaVuSerif-Bold-3a" transform="translate(1534.828125 0)"/>
     <use xlink:href="#DejaVuSerif-Bold-44" transform="translate(1638.453125 0)"/>
     <use xlink:href="#DejaVuSerif-Bold-4e" transform="translate(1703.25 0)"/>
     <use xlink:href="#DejaVuSerif-Bold-48" transform="translate(1772.53125 0)"/>
     <use xlink:href="#DejaVuSerif-Bold-3" transform="translate(1836.15625 0)"/>
     <use xlink:href="#DejaVuSerif-Bold-35" transform="translate(1870.96875 0)"/>
     <use xlink:href="#DejaVuSerif-Bold-48" transform="translate(1954.078125 0)"/>
     <use xlink:href="#DejaVuSerif-Bold-44" transform="translate(2017.703125 0)"/>
     <use xlink:href="#DejaVuSerif-Bold-47" transform="translate(2082.5 0)"/>
     <use xlink:href="#DejaVuSerif-Bold-4c" transform="translate(2152.421875 0)"/>
     <use xlink:href="#DejaVuSerif-Bold-51" transform="translate(2190.40625 0)"/>
     <use xlink:href="#DejaVuSerif-Bold-4a" transform="translate(2263.109375 0)"/>
    </g>
   </g>
   <g id="legend_1">
    <g id="patch_7">
     <path d="M 356.676719 134.366719 
L 645.816094 134.366719 
Q 648.616094 134.366719 648.616094 131.566719 
L 648.616094 69.963437 
Q 648.616094 67.163437 645.816094 67.163437 
L 356.676719 67.163437 
Q 353.876719 67.163437 353.876719 69.963437 
L 353.876719 131.566719 
Q 353.876719 134.366719 356.676719 134.366719 
z
" style="fill: #ffffff; opacity: 0.8; stroke: #000000; stroke-linejoin: miter"/>
    </g>
    <g id="line2d_29">
     <path d="M 359.476719 78.50125 
L 373.476719 78.50125 
L 387.476719 78.50125 
" style="fill: none; stroke: #1f77b4; stroke-width: 2.5; stroke-linecap: square"/>
    </g>
    <g id="text_18">
     <!-- Left Sensor (Vacuum Barometer) -->
     <g transform="translate(398.676719 83.40125) scale(0.14 -0.14)">
      <defs>
       <path id="DejaVuSerif-2f" d="M 353 0 
L 353 331 
L 947 331 
L 947 4331 
L 353 4331 
L 353 4666 
L 2175 4666 
L 2175 4331 
L 1581 4331 
L 1581 384 
L 3713 384 
L 3713 1166 
L 4097 1166 
L 4097 0 
L 353 0 
z
" transform="scale(0.015625)"/>
       <path id="DejaVuSerif-48" d="M 3469 1600 
L 991 1600 
L 991 1575 
Q 991 903 1244 561 
Q 1497 219 1991 219 
Q 2369 219 2611 417 
Q 2853 616 2950 1006 
L 3413 1006 
Q 3275 459 2904 184 
Q 2534 -91 1931 -91 
Q 1203 -91 761 389 
Q 319 869 319 1663 
Q 319 2450 753 2931 
Q 1188 3413 1894 3413 
Q 2647 3413 3050 2948 
Q 3453 2484 3469 1600 
z
M 2791 1931 
Q 2772 2513 2545 2808 
Q 2319 3103 1894 3103 
Q 1497 3103 1269 2806 
Q 1041 2509 991 1931 
L 2791 1931 
z
" transform="scale(0.015625)"/>
       <path id="DejaVuSerif-49" d="M 2753 4078 
L 2450 4078 
Q 2447 4313 2317 4434 
Q 2188 4556 1941 4556 
Q 1619 4556 1487 4379 
Q 1356 4203 1356 3750 
L 1356 3322 
L 2284 3322 
L 2284 2988 
L 1356 2988 
L 1356 331 
L 2094 331 
L 2094 0 
L 231 0 
L 231 331 
L 781 331 
L 781 2988 
L 231 2988 
L 231 3322 
L 781 3322 
L 781 3738 
Q 781 4294 1070 4578 
Q 1359 4863 1919 4863 
Q 2128 4863 2337 4825 
Q 2547 4788 2753 4709 
L 2753 4078 
z
" transform="scale(0.015625)"/>
       <path id="DejaVuSerif-57" d="M 691 2988 
L 184 2988 
L 184 3322 
L 691 3322 
L 691 4353 
L 1269 4353 
L 1269 3322 
L 2350 3322 
L 2350 2988 
L 1269 2988 
L 1269 878 
Q 1269 456 1350 337 
Q 1431 219 1650 219 
Q 1875 219 1978 351 
Q 2081 484 2088 781 
L 2522 781 
Q 2497 328 2275 118 
Q 2053 -91 1600 -91 
Q 1103 -91 897 129 
Q 691 350 691 878 
L 691 2988 
z
" transform="scale(0.015625)"/>
       <path id="DejaVuSerif-3" transform="scale(0.015625)"/>
       <path id="DejaVuSerif-36" d="M 594 225 
L 594 1288 
L 953 1284 
Q 969 753 1261 498 
Q 1553 244 2150 244 
Q 2706 244 2998 464 
Q 3291 684 3291 1106 
Q 3291 1444 3114 1625 
Q 2938 1806 2369 1978 
L 1753 2163 
Q 1084 2366 811 2669 
Q 538 2972 538 3500 
Q 538 4094 959 4422 
Q 1381 4750 2144 4750 
Q 2469 4750 2856 4679 
Q 3244 4609 3681 4475 
L 3681 3481 
L 3328 3481 
Q 3275 3975 2998 4195 
Q 2722 4416 2156 4416 
Q 1663 4416 1405 4214 
Q 1147 4013 1147 3628 
Q 1147 3294 1340 3103 
Q 1534 2913 2163 2725 
L 2741 2553 
Q 3375 2363 3645 2067 
Q 3916 1772 3916 1275 
Q 3916 597 3481 253 
Q 3047 -91 2188 -91 
Q 1803 -91 1404 -12 
Q 1006 66 594 225 
z
" transform="scale(0.015625)"/>
       <path id="DejaVuSerif-51" d="M 263 0 
L 263 331 
L 781 331 
L 781 2988 
L 231 2988 
L 231 3322 
L 1356 3322 
L 1356 2731 
Q 1516 3069 1770 3241 
Q 2025 3413 2363 3413 
Q 2913 3413 3172 3097 
Q 3431 2781 3431 2113 
L 3431 331 
L 3944 331 
L 3944 0 
L 2356 0 
L 2356 331 
L 2853 331 
L 2853 1931 
Q 2853 2541 2703 2767 
Q 2553 2994 2175 2994 
Q 1775 2994 1565 2701 
Q 1356 2409 1356 1850 
L 1356 331 
L 1856 331 
L 1856 0 
L 263 0 
z
" transform="scale(0.015625)"/>
       <path id="DejaVuSerif-56" d="M 359 184 
L 359 959 
L 691 959 
Q 703 588 923 403 
Q 1144 219 1575 219 
Q 1963 219 2166 364 
Q 2369 509 2369 788 
Q 2369 1006 2220 1140 
Q 2072 1275 1594 1428 
L 1178 1569 
Q 750 1706 558 1912 
Q 366 2119 366 2438 
Q 366 2894 700 3153 
Q 1034 3413 1625 3413 
Q 1888 3413 2178 3344 
Q 2469 3275 2778 3144 
L 2778 2419 
L 2447 2419 
Q 2434 2741 2221 2922 
Q 2009 3103 1644 3103 
Q 1281 3103 1095 2975 
Q 909 2847 909 2591 
Q 909 2381 1050 2254 
Q 1191 2128 1613 1997 
L 2069 1856 
Q 2541 1709 2748 1489 
Q 2956 1269 2956 922 
Q 2956 450 2595 179 
Q 2234 -91 1600 -91 
Q 1278 -91 972 -22 
Q 666 47 359 184 
z
" transform="scale(0.015625)"/>
       <path id="DejaVuSerif-52" d="M 1925 219 
Q 2388 219 2623 584 
Q 2859 950 2859 1663 
Q 2859 2375 2623 2739 
Q 2388 3103 1925 3103 
Q 1463 3103 1227 2739 
Q 991 2375 991 1663 
Q 991 950 1228 584 
Q 1466 219 1925 219 
z
M 1925 -91 
Q 1200 -91 759 389 
Q 319 869 319 1663 
Q 319 2456 758 2934 
Q 1197 3413 1925 3413 
Q 2653 3413 3092 2934 
Q 3531 2456 3531 1663 
Q 3531 869 3092 389 
Q 2653 -91 1925 -91 
z
" transform="scale(0.015625)"/>
       <path id="DejaVuSerif-55" d="M 3059 3328 
L 3059 2497 
L 2728 2497 
Q 2713 2744 2591 2866 
Q 2469 2988 2234 2988 
Q 1809 2988 1582 2694 
Q 1356 2400 1356 1850 
L 1356 331 
L 2022 331 
L 2022 0 
L 263 0 
L 263 331 
L 781 331 
L 781 2994 
L 231 2994 
L 231 3322 
L 1356 3322 
L 1356 2731 
Q 1525 3078 1790 3245 
Q 2056 3413 2438 3413 
Q 2578 3413 2733 3391 
Q 2888 3369 3059 3328 
z
" transform="scale(0.015625)"/>
       <path id="DejaVuSerif-b" d="M 2041 -997 
Q 1281 -656 893 83 
Q 506 822 506 1931 
Q 506 3044 893 3783 
Q 1281 4522 2041 4863 
L 2041 4556 
Q 1559 4225 1350 3623 
Q 1141 3022 1141 1931 
Q 1141 844 1350 242 
Q 1559 -359 2041 -691 
L 2041 -997 
z
" transform="scale(0.015625)"/>
       <path id="DejaVuSerif-39" d="M 1119 4331 
L 2497 750 
L 3872 4331 
L 3347 4331 
L 3347 4666 
L 4716 4666 
L 4716 4331 
L 4263 4331 
L 2597 0 
L 2059 0 
L 403 4331 
L -63 4331 
L -63 4666 
L 1638 4666 
L 1638 4331 
L 1119 4331 
z
" transform="scale(0.015625)"/>
       <path id="DejaVuSerif-44" d="M 2547 1044 
L 2547 1747 
L 1806 1747 
Q 1378 1747 1168 1562 
Q 959 1378 959 997 
Q 959 650 1171 447 
Q 1384 244 1747 244 
Q 2106 244 2326 466 
Q 2547 688 2547 1044 
z
M 3122 2075 
L 3122 331 
L 3634 331 
L 3634 0 
L 2547 0 
L 2547 359 
Q 2356 128 2106 18 
Q 1856 -91 1522 -91 
Q 969 -91 644 203 
Q 319 497 319 997 
Q 319 1513 691 1797 
Q 1063 2081 1741 2081 
L 2547 2081 
L 2547 2309 
Q 2547 2688 2317 2895 
Q 2088 3103 1672 3103 
Q 1328 3103 1125 2947 
Q 922 2791 872 2484 
L 575 2484 
L 575 3156 
Q 875 3284 1158 3348 
Q 1441 3413 1709 3413 
Q 2400 3413 2761 3070 
Q 3122 2728 3122 2075 
z
" transform="scale(0.015625)"/>
       <path id="DejaVuSerif-46" d="M 3291 997 
Q 3169 466 2822 187 
Q 2475 -91 1925 -91 
Q 1200 -91 759 389 
Q 319 869 319 1663 
Q 319 2459 759 2936 
Q 1200 3413 1925 3413 
Q 2241 3413 2553 3339 
Q 2866 3266 3181 3116 
L 3181 2266 
L 2847 2266 
Q 2781 2703 2561 2903 
Q 2341 3103 1931 3103 
Q 1466 3103 1228 2742 
Q 991 2381 991 1663 
Q 991 944 1227 581 
Q 1463 219 1931 219 
Q 2303 219 2525 412 
Q 2747 606 2828 997 
L 3291 997 
z
" transform="scale(0.015625)"/>
       <path id="DejaVuSerif-58" d="M 2266 3322 
L 3341 3322 
L 3341 331 
L 3884 331 
L 3884 0 
L 2766 0 
L 2766 588 
Q 2606 256 2353 82 
Q 2100 -91 1766 -91 
Q 1213 -91 952 223 
Q 691 538 691 1209 
L 691 2988 
L 172 2988 
L 172 3322 
L 1269 3322 
L 1269 1388 
Q 1269 781 1417 556 
Q 1566 331 1947 331 
Q 2347 331 2556 625 
Q 2766 919 2766 1478 
L 2766 2988 
L 2266 2988 
L 2266 3322 
z
" transform="scale(0.015625)"/>
       <path id="DejaVuSerif-50" d="M 3316 2675 
Q 3481 3041 3739 3227 
Q 3997 3413 4341 3413 
Q 4863 3413 5119 3089 
Q 5375 2766 5375 2113 
L 5375 331 
L 5894 331 
L 5894 0 
L 4300 0 
L 4300 331 
L 4800 331 
L 4800 2047 
Q 4800 2556 4650 2772 
Q 4500 2988 4153 2988 
Q 3769 2988 3567 2697 
Q 3366 2406 3366 1850 
L 3366 331 
L 3866 331 
L 3866 0 
L 2291 0 
L 2291 331 
L 2791 331 
L 2791 2069 
Q 2791 2566 2641 2777 
Q 2491 2988 2144 2988 
Q 1759 2988 1557 2697 
Q 1356 2406 1356 1850 
L 1356 331 
L 1856 331 
L 1856 0 
L 263 0 
L 263 331 
L 781 331 
L 781 2994 
L 231 2994 
L 231 3322 
L 1356 3322 
L 1356 2731 
Q 1516 3063 1762 3238 
Q 2009 3413 2322 3413 
Q 2709 3413 2968 3220 
Q 3228 3028 3316 2675 
z
" transform="scale(0.015625)"/>
       <path id="DejaVuSerif-25" d="M 1581 331 
L 2516 331 
Q 3078 331 3337 575 
Q 3597 819 3597 1350 
Q 3597 1878 3339 2120 
Q 3081 2363 2516 2363 
L 1581 2363 
L 1581 331 
z
M 1581 2694 
L 2375 2694 
Q 2888 2694 3123 2891 
Q 3359 3088 3359 3513 
Q 3359 3941 3123 4136 
Q 2888 4331 2375 4331 
L 1581 4331 
L 1581 2694 
z
M 353 0 
L 353 331 
L 947 331 
L 947 4331 
L 353 4331 
L 353 4666 
L 2656 4666 
Q 3363 4666 3720 4377 
Q 4078 4088 4078 3513 
Q 4078 3097 3829 2850 
Q 3581 2603 3103 2547 
Q 3697 2472 4005 2167 
Q 4313 1863 4313 1350 
Q 4313 656 3875 328 
Q 3438 0 2509 0 
L 353 0 
z
" transform="scale(0.015625)"/>
       <path id="DejaVuSerif-c" d="M 453 -997 
L 453 -691 
Q 934 -359 1145 242 
Q 1356 844 1356 1931 
Q 1356 3022 1145 3623 
Q 934 4225 453 4556 
L 453 4863 
Q 1216 4522 1603 3783 
Q 1991 3044 1991 1931 
Q 1991 822 1603 83 
Q 1216 -656 453 -997 
z
" transform="scale(0.015625)"/>
      </defs>
      <use xlink:href="#DejaVuSerif-2f"/>
      <use xlink:href="#DejaVuSerif-48" transform="translate(66.40625 0)"/>
      <use xlink:href="#DejaVuSerif-49" transform="translate(125.59375 0)"/>
      <use xlink:href="#DejaVuSerif-57" transform="translate(162.609375 0)"/>
      <use xlink:href="#DejaVuSerif-3" transform="translate(202.796875 0)"/>
      <use xlink:href="#DejaVuSerif-36" transform="translate(234.578125 0)"/>
      <use xlink:href="#DejaVuSerif-48" transform="translate(303.078125 0)"/>
      <use xlink:href="#DejaVuSerif-51" transform="translate(362.265625 0)"/>
      <use xlink:href="#DejaVuSerif-56" transform="translate(426.671875 0)"/>
      <use xlink:href="#DejaVuSerif-52" transform="translate(477.984375 0)"/>
      <use xlink:href="#DejaVuSerif-55" transform="translate(538.1875 0)"/>
      <use xlink:href="#DejaVuSerif-3" transform="translate(585.984375 0)"/>
      <use xlink:href="#DejaVuSerif-b" transform="translate(617.765625 0)"/>
      <use xlink:href="#DejaVuSerif-39" transform="translate(656.78125 0)"/>
      <use xlink:href="#DejaVuSerif-44" transform="translate(719.828125 0)"/>
      <use xlink:href="#DejaVuSerif-46" transform="translate(779.453125 0)"/>
      <use xlink:href="#DejaVuSerif-58" transform="translate(835.453125 0)"/>
      <use xlink:href="#DejaVuSerif-58" transform="translate(899.859375 0)"/>
      <use xlink:href="#DejaVuSerif-50" transform="translate(964.265625 0)"/>
      <use xlink:href="#DejaVuSerif-3" transform="translate(1059.09375 0)"/>
      <use xlink:href="#DejaVuSerif-25" transform="translate(1090.875 0)"/>
      <use xlink:href="#DejaVuSerif-44" transform="translate(1164.359375 0)"/>
      <use xlink:href="#DejaVuSerif-55" transform="translate(1223.984375 0)"/>
      <use xlink:href="#DejaVuSerif-52" transform="translate(1271.78125 0)"/>
      <use xlink:href="#DejaVuSerif-50" transform="translate(1331.984375 0)"/>
      <use xlink:href="#DejaVuSerif-48" transform="translate(1426.8125 0)"/>
      <use xlink:href="#DejaVuSerif-57" transform="translate(1486 0)"/>
      <use xlink:href="#DejaVuSerif-48" transform="translate(1526.1875 0)"/>
      <use xlink:href="#DejaVuSerif-55" transform="translate(1585.375 0)"/>
      <use xlink:href="#DejaVuSerif-c" transform="translate(1633.171875 0)"/>
     </g>
    </g>
    <g id="line2d_30">
     <path d="M 359.476719 99.502344 
L 373.476719 99.502344 
L 387.476719 99.502344 
" style="fill: none; stroke: #d62728; stroke-width: 2.5; stroke-linecap: square"/>
    </g>
    <g id="text_19">
     <!-- Right Sensor (Vacuum Barometer) -->
     <g transform="translate(398.676719 104.402344) scale(0.14 -0.14)">
      <defs>
       <path id="DejaVuSerif-35" d="M 3066 2316 
Q 3284 2256 3442 2114 
Q 3600 1972 3725 1716 
L 4403 331 
L 4972 331 
L 4972 0 
L 3872 0 
L 3144 1484 
Q 2934 1916 2759 2042 
Q 2584 2169 2278 2169 
L 1581 2169 
L 1581 331 
L 2241 331 
L 2241 0 
L 353 0 
L 353 331 
L 947 331 
L 947 4331 
L 353 4331 
L 353 4666 
L 2719 4666 
Q 3400 4666 3770 4341 
Q 4141 4016 4141 3419 
Q 4141 2938 3870 2661 
Q 3600 2384 3066 2316 
z
M 1581 2503 
L 2503 2503 
Q 2975 2503 3200 2726 
Q 3425 2950 3425 3419 
Q 3425 3888 3200 4109 
Q 2975 4331 2503 4331 
L 1581 4331 
L 1581 2503 
z
" transform="scale(0.015625)"/>
       <path id="DejaVuSerif-4c" d="M 622 4353 
Q 622 4497 726 4603 
Q 831 4709 978 4709 
Q 1122 4709 1226 4603 
Q 1331 4497 1331 4353 
Q 1331 4206 1228 4103 
Q 1125 4000 978 4000 
Q 831 4000 726 4103 
Q 622 4206 622 4353 
z
M 1356 331 
L 1900 331 
L 1900 0 
L 231 0 
L 231 331 
L 781 331 
L 781 2988 
L 231 2988 
L 231 3322 
L 1356 3322 
L 1356 331 
z
" transform="scale(0.015625)"/>
       <path id="DejaVuSerif-4a" d="M 3359 2988 
L 3359 72 
Q 3359 -644 2965 -1033 
Q 2572 -1422 1844 -1422 
Q 1516 -1422 1216 -1362 
Q 916 -1303 641 -1184 
L 641 -488 
L 941 -488 
Q 997 -813 1206 -963 
Q 1416 -1113 1806 -1113 
Q 2313 -1113 2548 -827 
Q 2784 -541 2784 72 
L 2784 519 
Q 2616 206 2355 57 
Q 2094 -91 1709 -91 
Q 1097 -91 708 395 
Q 319 881 319 1663 
Q 319 2444 706 2928 
Q 1094 3413 1709 3413 
Q 2094 3413 2355 3264 
Q 2616 3116 2784 2803 
L 2784 3322 
L 3909 3322 
L 3909 2988 
L 3359 2988 
z
M 2784 1825 
Q 2784 2422 2554 2737 
Q 2325 3053 1888 3053 
Q 1444 3053 1217 2703 
Q 991 2353 991 1663 
Q 991 975 1217 622 
Q 1444 269 1888 269 
Q 2325 269 2554 583 
Q 2784 897 2784 1497 
L 2784 1825 
z
" transform="scale(0.015625)"/>
       <path id="DejaVuSerif-4b" d="M 263 0 
L 263 331 
L 781 331 
L 781 4531 
L 231 4531 
L 231 4863 
L 1356 4863 
L 1356 2731 
Q 1516 3069 1770 3241 
Q 2025 3413 2363 3413 
Q 2913 3413 3172 3097 
Q 3431 2781 3431 2113 
L 3431 331 
L 3944 331 
L 3944 0 
L 2356 0 
L 2356 331 
L 2853 331 
L 2853 1931 
Q 2853 2541 2704 2764 
Q 2556 2988 2175 2988 
Q 1775 2988 1565 2697 
Q 1356 2406 1356 1850 
L 1356 331 
L 1856 331 
L 1856 0 
L 263 0 
z
" transform="scale(0.015625)"/>
      </defs>
      <use xlink:href="#DejaVuSerif-35"/>
      <use xlink:href="#DejaVuSerif-4c" transform="translate(75.296875 0)"/>
      <use xlink:href="#DejaVuSerif-4a" transform="translate(107.28125 0)"/>
      <use xlink:href="#DejaVuSerif-4b" transform="translate(171.296875 0)"/>
      <use xlink:href="#DejaVuSerif-57" transform="translate(235.703125 0)"/>
      <use xlink:href="#DejaVuSerif-3" transform="translate(275.890625 0)"/>
      <use xlink:href="#DejaVuSerif-36" transform="translate(307.671875 0)"/>
      <use xlink:href="#DejaVuSerif-48" transform="translate(376.171875 0)"/>
      <use xlink:href="#DejaVuSerif-51" transform="translate(435.359375 0)"/>
      <use xlink:href="#DejaVuSerif-56" transform="translate(499.765625 0)"/>
      <use xlink:href="#DejaVuSerif-52" transform="translate(551.078125 0)"/>
      <use xlink:href="#DejaVuSerif-55" transform="translate(611.28125 0)"/>
      <use xlink:href="#DejaVuSerif-3" transform="translate(659.078125 0)"/>
      <use xlink:href="#DejaVuSerif-b" transform="translate(690.859375 0)"/>
      <use xlink:href="#DejaVuSerif-39" transform="translate(729.875 0)"/>
      <use xlink:href="#DejaVuSerif-44" transform="translate(792.921875 0)"/>
      <use xlink:href="#DejaVuSerif-46" transform="translate(852.546875 0)"/>
      <use xlink:href="#DejaVuSerif-58" transform="translate(908.546875 0)"/>
      <use xlink:href="#DejaVuSerif-58" transform="translate(972.953125 0)"/>
      <use xlink:href="#DejaVuSerif-50" transform="translate(1037.359375 0)"/>
      <use xlink:href="#DejaVuSerif-3" transform="translate(1132.1875 0)"/>
      <use xlink:href="#DejaVuSerif-25" transform="translate(1163.96875 0)"/>
      <use xlink:href="#DejaVuSerif-44" transform="translate(1237.453125 0)"/>
      <use xlink:href="#DejaVuSerif-55" transform="translate(1297.078125 0)"/>
      <use xlink:href="#DejaVuSerif-52" transform="translate(1344.875 0)"/>
      <use xlink:href="#DejaVuSerif-50" transform="translate(1405.078125 0)"/>
      <use xlink:href="#DejaVuSerif-48" transform="translate(1499.90625 0)"/>
      <use xlink:href="#DejaVuSerif-57" transform="translate(1559.09375 0)"/>
      <use xlink:href="#DejaVuSerif-48" transform="translate(1599.28125 0)"/>
      <use xlink:href="#DejaVuSerif-55" transform="translate(1658.46875 0)"/>
      <use xlink:href="#DejaVuSerif-c" transform="translate(1706.265625 0)"/>
     </g>
    </g>
    <g id="patch_8">
     <path d="M 359.476719 125.403437 
L 387.476719 125.403437 
L 387.476719 115.603437 
L 359.476719 115.603437 
z
" style="fill: #e6e6e6; stroke: #e6e6e6; stroke-linejoin: miter"/>
    </g>
    <g id="text_20">
     <!-- Logic Operation (HQPU Gate) -->
     <g transform="translate(398.676719 125.403437) scale(0.14 -0.14)">
      <defs>
       <path id="DejaVuSerif-32" d="M 2625 244 
Q 3391 244 3781 770 
Q 4172 1297 4172 2328 
Q 4172 3363 3781 3889 
Q 3391 4416 2625 4416 
Q 1856 4416 1465 3889 
Q 1075 3363 1075 2328 
Q 1075 1297 1465 770 
Q 1856 244 2625 244 
z
M 2625 -91 
Q 2150 -91 1751 65 
Q 1353 222 1050 525 
Q 700 875 529 1319 
Q 359 1763 359 2328 
Q 359 2894 529 3339 
Q 700 3784 1050 4134 
Q 1356 4441 1750 4595 
Q 2144 4750 2625 4750 
Q 3641 4750 4266 4084 
Q 4891 3419 4891 2328 
Q 4891 1769 4719 1320 
Q 4547 872 4197 525 
Q 3891 219 3497 64 
Q 3103 -91 2625 -91 
z
" transform="scale(0.015625)"/>
       <path id="DejaVuSerif-53" d="M 1313 1825 
L 1313 1497 
Q 1313 897 1542 583 
Q 1772 269 2209 269 
Q 2650 269 2876 622 
Q 3103 975 3103 1663 
Q 3103 2353 2876 2703 
Q 2650 3053 2209 3053 
Q 1772 3053 1542 2737 
Q 1313 2422 1313 1825 
z
M 738 2988 
L 184 2988 
L 184 3322 
L 1313 3322 
L 1313 2803 
Q 1481 3116 1742 3264 
Q 2003 3413 2388 3413 
Q 3000 3413 3387 2928 
Q 3775 2444 3775 1663 
Q 3775 881 3387 395 
Q 3000 -91 2388 -91 
Q 2003 -91 1742 57 
Q 1481 206 1313 519 
L 1313 -997 
L 1856 -997 
L 1856 -1331 
L 184 -1331 
L 184 -997 
L 738 -997 
L 738 2988 
z
" transform="scale(0.015625)"/>
       <path id="DejaVuSerif-2b" d="M 353 0 
L 353 331 
L 947 331 
L 947 4331 
L 353 4331 
L 353 4666 
L 2175 4666 
L 2175 4331 
L 1581 4331 
L 1581 2719 
L 4000 2719 
L 4000 4331 
L 3406 4331 
L 3406 4666 
L 5228 4666 
L 5228 4331 
L 4634 4331 
L 4634 331 
L 5228 331 
L 5228 0 
L 3406 0 
L 3406 331 
L 4000 331 
L 4000 2338 
L 1581 2338 
L 1581 331 
L 2175 331 
L 2175 0 
L 353 0 
z
" transform="scale(0.015625)"/>
       <path id="DejaVuSerif-34" d="M 2700 -91 
Q 1628 -91 993 567 
Q 359 1225 359 2328 
Q 359 2894 529 3339 
Q 700 3784 1050 4134 
Q 1356 4441 1750 4595 
Q 2144 4750 2625 4750 
Q 3641 4750 4266 4084 
Q 4891 3419 4891 2328 
Q 4891 1403 4422 773 
Q 3953 144 3128 -38 
Q 3297 -247 3539 -347 
Q 3781 -447 4122 -447 
L 4219 -447 
L 4219 -1025 
Q 3691 -1000 3314 -767 
Q 2938 -534 2700 -91 
z
M 2625 244 
Q 3391 244 3781 770 
Q 4172 1297 4172 2328 
Q 4172 3363 3781 3889 
Q 3391 4416 2625 4416 
Q 1856 4416 1465 3889 
Q 1075 3363 1075 2328 
Q 1075 1297 1465 770 
Q 1856 244 2625 244 
z
" transform="scale(0.015625)"/>
       <path id="DejaVuSerif-33" d="M 1581 2375 
L 2406 2375 
Q 2872 2375 3115 2626 
Q 3359 2878 3359 3353 
Q 3359 3831 3115 4081 
Q 2872 4331 2406 4331 
L 1581 4331 
L 1581 2375 
z
M 353 0 
L 353 331 
L 947 331 
L 947 4331 
L 353 4331 
L 353 4666 
L 2559 4666 
Q 3259 4666 3668 4311 
Q 4078 3956 4078 3353 
Q 4078 2753 3668 2397 
Q 3259 2041 2559 2041 
L 1581 2041 
L 1581 331 
L 2303 331 
L 2303 0 
L 353 0 
z
" transform="scale(0.015625)"/>
       <path id="DejaVuSerif-38" d="M 897 4331 
L 300 4331 
L 300 4666 
L 2125 4666 
L 2125 4331 
L 1528 4331 
L 1528 1919 
Q 1528 1025 1820 672 
Q 2113 319 2828 319 
Q 3544 319 3836 672 
Q 4128 1025 4128 1919 
L 4128 4331 
L 3531 4331 
L 3531 4666 
L 5106 4666 
L 5106 4331 
L 4513 4331 
L 4513 1856 
Q 4513 791 4103 350 
Q 3694 -91 2713 -91 
Q 1731 -91 1314 353 
Q 897 797 897 1856 
L 897 4331 
z
" transform="scale(0.015625)"/>
       <path id="DejaVuSerif-2a" d="M 4097 3272 
Q 3988 3856 3641 4136 
Q 3294 4416 2675 4416 
Q 1869 4416 1472 3897 
Q 1075 3378 1075 2328 
Q 1075 1300 1484 772 
Q 1894 244 2688 244 
Q 3041 244 3362 331 
Q 3684 419 3975 594 
L 3975 1797 
L 3097 1797 
L 3097 2131 
L 4609 2131 
L 4609 391 
Q 4194 150 3714 29 
Q 3234 -91 2688 -91 
Q 1631 -91 995 570 
Q 359 1231 359 2328 
Q 359 3434 996 4092 
Q 1634 4750 2713 4750 
Q 3113 4750 3539 4658 
Q 3966 4566 4447 4378 
L 4447 3272 
L 4097 3272 
z
" transform="scale(0.015625)"/>
      </defs>
      <use xlink:href="#DejaVuSerif-2f"/>
      <use xlink:href="#DejaVuSerif-52" transform="translate(66.40625 0)"/>
      <use xlink:href="#DejaVuSerif-4a" transform="translate(126.609375 0)"/>
      <use xlink:href="#DejaVuSerif-4c" transform="translate(190.625 0)"/>
      <use xlink:href="#DejaVuSerif-46" transform="translate(222.609375 0)"/>
      <use xlink:href="#DejaVuSerif-3" transform="translate(278.609375 0)"/>
      <use xlink:href="#DejaVuSerif-32" transform="translate(310.390625 0)"/>
      <use xlink:href="#DejaVuSerif-53" transform="translate(392.375 0)"/>
      <use xlink:href="#DejaVuSerif-48" transform="translate(456.390625 0)"/>
      <use xlink:href="#DejaVuSerif-55" transform="translate(515.578125 0)"/>
      <use xlink:href="#DejaVuSerif-44" transform="translate(563.375 0)"/>
      <use xlink:href="#DejaVuSerif-57" transform="translate(623 0)"/>
      <use xlink:href="#DejaVuSerif-4c" transform="translate(663.1875 0)"/>
      <use xlink:href="#DejaVuSerif-52" transform="translate(695.171875 0)"/>
      <use xlink:href="#DejaVuSerif-51" transform="translate(755.375 0)"/>
      <use xlink:href="#DejaVuSerif-3" transform="translate(819.78125 0)"/>
      <use xlink:href="#DejaVuSerif-b" transform="translate(851.5625 0)"/>
      <use xlink:href="#DejaVuSerif-2b" transform="translate(890.578125 0)"/>
      <use xlink:href="#DejaVuSerif-34" transform="translate(977.78125 0)"/>
      <use xlink:href="#DejaVuSerif-33" transform="translate(1059.765625 0)"/>
      <use xlink:href="#DejaVuSerif-38" transform="translate(1125.296875 0)"/>
      <use xlink:href="#DejaVuSerif-3" transform="translate(1209.578125 0)"/>
      <use xlink:href="#DejaVuSerif-2a" transform="translate(1241.359375 0)"/>
      <use xlink:href="#DejaVuSerif-44" transform="translate(1321.25 0)"/>
      <use xlink:href="#DejaVuSerif-57" transform="translate(1380.875 0)"/>
      <use xlink:href="#DejaVuSerif-48" transform="translate(1421.0625 0)"/>
      <use xlink:href="#DejaVuSerif-c" transform="translate(1480.25 0)"/>
     </g>
    </g>
   </g>
  </g>
 </g>
 <defs>
  <clipPath id="p0b2dcd1e7d">
   <rect x="52.842344" y="60.163437" width="602.77375" height="309.631562"/>
  </clipPath>
 </defs>
</svg>
